<svg xmlns="http://www.w3.org/2000/svg" viewBox="0 0 98.44 98.45">
  <path fill="#1f386a" d="M0 0h98.44v98.45H0z"/>
  <path fill="#fff" d="M74.25 59.7a12.84 12.84 0 0 0-12.36-12.81 12.82 12.82 0 0 0-24.18 0 12.81 12.81 0 0 0-7.4 22.92 12.81 12.81 0 0 0 19.56 14.13A12.82 12.82 0 0 0 69.32 69.8a12.81 12.81 0 0 0 4.93-10.1M60 51.16a10.25 10.25 0 0 1-8.73 10.12 10.08 10.08 0 0 1-.13-1.57 10.25 10.25 0 0 1 8.73-10.12 10.2 10.2 0 0 1 .13 1.57M49.85 80.62A10.21 10.21 0 0 1 49.76 66a10.21 10.21 0 0 1 .09 14.59m-10.15-31a10.14 10.14 0 0 1 8.6 11.69 10.15 10.15 0 0 1-8.6-11.69m7.64 14.7a10.2 10.2 0 0 1-13.85 4.5 10.2 10.2 0 0 1 13.85-4.5m4.91-.07a10.21 10.21 0 0 1 13.92 4.56 10.21 10.21 0 0 1-13.92-4.56m-2.44-23.3a10.25 10.25 0 0 1 9.39 6.16 12.86 12.86 0 0 0-9.39 7.21 12.85 12.85 0 0 0-9.39-7.21 10.25 10.25 0 0 1 9.39-6.16M27.95 59.7a10.26 10.26 0 0 1 9.14-10.18 12.76 12.76 0 0 0 4.08 11.11 12.85 12.85 0 0 0-9.83 6.66 10.21 10.21 0 0 1-3.39-7.59m4.44 13.67a10.15 10.15 0 0 1 .22-2.12 12.8 12.8 0 0 0 11.77-.32 12.76 12.76 0 0 0 3.4 11.28 10.22 10.22 0 0 1-15.39-8.83m34.83-.09a10.22 10.22 0 0 1-15.29 8.9 12.76 12.76 0 0 0 3.28-11.26 12.8 12.8 0 0 0 11.8.32 10.16 10.16 0 0 1 .21 2m-8.7-12.73a12.79 12.79 0 0 0 4.11-9.4 13 13 0 0 0-.11-1.64 10.22 10.22 0 0 1 5.78 17.79 12.84 12.84 0 0 0-9.78-6.71M14.73 8.25V28.1H11.4V12.9h-.03l-2.34 2.44H9v-3.49l3.07-3.6h2.66zM16.26 8.25h8.37v3.07L20.27 28.1h-3.31l4.45-17.13h-5.15V8.25zM32 8.17h2.07c1.41 0 1.92.7 1.92 1.86v1.75c0 1.16-.51 1.87-1.92 1.87h-.67v2.82H32zm1.4 1.14v3.27h.51a.6.6 0 0 0 .69-.69V10c0-.45-.21-.67-.69-.67zM36 16.47l1.57-8.3h1.59l1.58 8.3h-1.45L39 14.95h-1.45l-.24 1.52zm1.75-2.63h1.11l-.55-3.33zM42.69 12.66v3.81H41.3v-8.3h2c1.41 0 1.92.7 1.92 1.86v1.07c0 .89-.32 1.42-1.11 1.6l1.34 3.77H44zm0-3.35v2.58h.46a.6.6 0 0 0 .69-.68V10c0-.45-.21-.67-.69-.67zM45.73 8.17h3.7v1.14h-1.15v7.16h-1.4V9.31h-1.15V8.17zM51.26 11.25v5.22h-1.18v-8.3h1.37l1.51 4.76V8.17h1.16v8.3H52.9l-1.64-5.22zM54.91 8.17h3.33v1.14h-1.93v2.37h1.38v1.13h-1.38v2.52h1.93v1.14h-3.33v-8.3zM60.38 12.66v3.81H59v-8.3h2c1.41 0 1.92.7 1.92 1.86v1.07c0 .89-.32 1.42-1.11 1.6l1.34 3.77h-1.46zm0-3.35v2.58h.46a.6.6 0 0 0 .69-.68V10c0-.45-.21-.67-.69-.67zM63.57 14.68v-1.11h1.3v1.13c0 .47.21.74.68.74s.64-.29.64-.74v-.32a1.5 1.5 0 0 0-.62-1.17l-.82-.82a2.8 2.8 0 0 1-1.16-2.21V9.9a1.73 1.73 0 0 1 2-1.82c1.4 0 1.95.68 1.95 1.89v.67h-1.33v-.73c0-.48-.22-.71-.66-.71a.61.61 0 0 0-.66.69v.17c0 .47.26.74.66 1.13l.89.88a2.79 2.79 0 0 1 1.13 2.15v.4a1.8 1.8 0 0 1-2 1.94 1.73 1.73 0 0 1-2-1.88M71.04 12.81h-1.35v3.66H68.3v-8.3h1.39v3.51h1.35V8.17h1.41v8.3h-1.41v-3.66zM73.24 8.17h1.4v8.3h-1.4zM75.44 8.17h2.07c1.41 0 1.92.7 1.92 1.86v1.75c0 1.16-.51 1.87-1.92 1.87h-.67v2.82h-1.4zm1.4 1.14v3.27h.51a.6.6 0 0 0 .68-.69V10c0-.45-.21-.67-.68-.67zM80.08 14.68v-1.11h1.3v1.13c0 .47.21.74.68.74s.64-.29.64-.74v-.32a1.5 1.5 0 0 0-.62-1.17l-.82-.82a2.8 2.8 0 0 1-1.16-2.21V9.9a1.73 1.73 0 0 1 2-1.82c1.4 0 1.95.68 1.95 1.89v.67h-1.33v-.73c0-.48-.22-.71-.66-.71a.61.61 0 0 0-.66.69v.17c0 .47.26.74.66 1.13l.89.88a2.78 2.78 0 0 1 1.13 2.15v.4a1.8 1.8 0 0 1-2 1.94 1.73 1.73 0 0 1-2-1.88M31.99 19.79h3.27v1.14h-1.88v2.37h1.4v1.13h-1.4v3.66h-1.39v-8.3zM35.74 25.95v-4a2.11 2.11 0 1 1 4.22 0v4a2.11 2.11 0 1 1-4.22 0m2.83.22v-4.46c0-.5-.22-.86-.72-.86s-.71.35-.71.86v4.45c0 .5.22.86.71.86s.72-.35.72-.86M42.16 24.28v3.81h-1.4v-8.3h2c1.41 0 1.92.7 1.92 1.86v1.07c0 .89-.32 1.42-1.11 1.6l1.34 3.77h-1.44zm0-3.35v2.58h.46a.6.6 0 0 0 .69-.68V21.6c0-.45-.21-.67-.69-.67zM46.6 19.79h3.7v1.14h-1.15v7.16h-1.4v-7.16H46.6v-1.14zM53.69 24.43h-1.34v3.66h-1.4v-8.3h1.4v3.51h1.34v-3.51h1.41v8.3h-1.41v-3.66zM55.89 19.79h3.33v1.14h-1.93v2.37h1.38v1.13h-1.38v2.52h1.93v1.14h-3.33v-8.3zM63.36 23.66h2v4.43h-1v-.9a1.26 1.26 0 0 1-1.33 1c-1.2 0-1.75-1-1.75-2.24v-4a2 2 0 0 1 2.09-2.24c1.54 0 2 .86 2 2.08v.73h-1.3v-.84c0-.51-.2-.81-.7-.81s-.72.35-.72.86v4.45c0 .5.21.86.69.86s.68-.26.68-.8v-1.48h-.66zM66.13 25.95v-4a2.11 2.11 0 1 1 4.22 0v4a2.11 2.11 0 1 1-4.22 0m2.83.22v-4.46c0-.5-.22-.86-.72-.86s-.71.35-.71.86v4.45c0 .5.22.86.71.86s.72-.35.72-.86M70.75 28.09l1.57-8.3h1.58l1.58 8.3h-1.43l-.26-1.52h-1.48l-.24 1.52zm1.75-2.63h1.11l-.55-3.33zM76.06 19.79h1.39v7.16h1.66v1.14h-3.05v-8.3zM79.62 26.3v-1.11h1.3v1.14c0 .47.21.74.68.74s.64-.29.64-.74V26a1.5 1.5 0 0 0-.62-1.17l-.83-.83a2.8 2.8 0 0 1-1.16-2.21v-.28a1.73 1.73 0 0 1 2-1.82c1.4 0 1.95.68 1.95 1.89v.67h-1.32v-.72c0-.48-.22-.71-.66-.71a.61.61 0 0 0-.66.69v.17c0 .47.26.74.66 1.13l.89.88a2.79 2.79 0 0 1 1.13 2.15v.4a1.8 1.8 0 0 1-2 1.94 1.73 1.73 0 0 1-2-1.88"/>
</svg>