<svg xmlns="http://www.w3.org/2000/svg" viewBox="0 0 98.44 98.44">
  <path fill="#8f1838" d="M0 0h98.44v98.44H0z"/>
  <path fill="#fff" d="M67.83 48.43L57.82 58a1.66 1.66 0 0 0-.57 1.43v26.63a.57.57 0 0 0 .57.57h10.34a.57.57 0 0 0 .57-.57V48.67c0-.32-.25-.89-.9-.24M39 60.83l-10 9.52a1.66 1.66 0 0 0-.57 1.43v14.28a.57.57 0 0 0 .57.57h10.33a.57.57 0 0 0 .57-.57v-25c0-.32-.25-.89-.9-.24"/>
  <path fill="#fff" d="M72.38 36.89a.28.28 0 0 0-.09-.22.3.3 0 0 0-.18-.08H72l-7.66 1.73h-.14a.29.29 0 0 0-.15.49l.09.09 1.75 1.75L48.49 58l-8-8a.23.23 0 0 0-.33 0L38 52.19 25.12 65a.23.23 0 0 0 0 .33l2.18 2.18a.23.23 0 0 0 .32 0l12.69-12.66 5.82 5.82 2.18 2.17a.23.23 0 0 0 .33 0l19.7-19.7L70.19 45a.29.29 0 0 0 .41 0 .28.28 0 0 0 .08-.19L72.37 37z"/>
  <path fill="#fff" d="M53.47 62.5l-4.84 4.88a.23.23 0 0 1-.31 0l-4.39-4.48c-.8-.8-1-.15-1 .16v23a.57.57 0 0 0 .57.57h10.36a.57.57 0 0 0 .57-.57V62.68c0-.31-.25-.89-1-.18M19.06 23.24v-2.16c0-1.9-.67-3.28-2.23-4a3.5 3.5 0 0 0 1.93-3.45v-.82c0-3.1-1.61-4.77-4.68-4.77s-4.63 1.68-4.63 4.78v.82a3.53 3.53 0 0 0 1.87 3.45c-1.55.7-2.19 2.08-2.19 4v2.17c0 3 1.43 5.12 4.95 5.12s5-2.11 5-5.12m-6.49-10.64c0-1.2.41-1.9 1.49-1.9s1.52.7 1.52 1.9V14c0 1.2-.41 1.9-1.52 1.9s-1.49-.7-1.49-1.9zm3.13 11c0 1.2-.44 2.05-1.64 2.05s-1.61-.85-1.61-2.05v-3.25c0-1.2.44-2 1.61-2s1.64.85 1.64 2zM30.38 10.5v3.84c0 1.27-.53 2.23-2 2.23H26.2v-8.3h2.15c1.49 0 2 .94 2 2.23m-2.19 4.93c.57 0 .79-.34.79-.84v-4.35a.73.73 0 0 0-.79-.83h-.56v6zM31.17 8.27h3.33v1.14h-1.93v2.37h1.38v1.13h-1.38v2.52h1.93v1.14h-3.33v-8.3zM35.12 14.42v-4a2 2 0 0 1 2.08-2.25c1.54 0 2 .86 2 2.08v1h-1.3v-1.11c0-.52-.17-.81-.67-.81s-.71.36-.71.86v4.45c0 .5.21.86.71.86s.67-.32.67-.81v-1.53h1.27v1.44c0 1.19-.49 2.07-2 2.07a2 2 0 0 1-2.08-2.24M39.93 8.27h3.33v1.14h-1.93v2.37h1.38v1.13h-1.38v2.52h1.93v1.14h-3.33v-8.3zM45.18 11.35v5.22h-1.17v-8.3h1.37l1.5 4.76V8.27h1.17v8.3h-1.23l-1.64-5.22zM48.68 8.27h3.71v1.14h-1.15v7.16h-1.41V9.41h-1.15V8.27zM57.33 11.44l-.78 5.13h-1.31l-1.12-8.3h1.35l.65 5.26h.01l.7-5.26h1.14l.77 5.26h.01l.64-5.26h1.17l-1.08 8.3h-1.32l-.82-5.13h-.01zM61 14.42v-4a2.12 2.12 0 1 1 4.22 0v4a2.12 2.12 0 1 1-4.22 0m2.83.22v-4.45c0-.5-.22-.86-.72-.86s-.71.35-.71.86v4.45c0 .5.22.86.71.86s.72-.36.72-.86M67.45 12.76v3.81h-1.4v-8.3h2c1.41 0 1.92.7 1.92 1.86v1.07c0 .89-.32 1.42-1.11 1.6l1.33 3.77h-1.43zm0-3.35V12h.46a.6.6 0 0 0 .68-.68v-1.24c0-.45-.21-.67-.68-.67zM72.16 12.53v4.04h-1.4v-8.3h1.4v3.65l1.51-3.65h1.38L73.43 12l1.65 4.57h-1.47l-1.45-4.04zM76.67 16.57l1.57-8.3h1.59l1.58 8.3H80L79.72 15h-1.48L78 16.57zm1.75-2.63h1.11L79 10.61zM83.16 11.35v5.22h-1.18v-8.3h1.37l1.51 4.76V8.27h1.16v8.3H84.8l-1.64-5.22zM91 10.5v3.84c0 1.27-.53 2.23-2 2.23h-2.19v-8.3H89c1.49 0 2 .94 2 2.23m-2.2 4.93c.57 0 .79-.34.79-.84v-4.35a.73.73 0 0 0-.79-.83h-.59v6zM26.2 19.89h3.33v1.14H27.6v2.37h1.38v1.13H27.6v2.52h1.93v1.14H26.2v-8.3zM30.16 26v-4a2 2 0 0 1 2.08-2.24c1.54 0 2 .86 2 2.08v1h-1.31v-1.08c0-.52-.17-.81-.67-.81s-.71.35-.71.86v4.45c0 .5.21.86.71.86s.67-.32.67-.81v-1.52h1.27v1.43c0 1.19-.49 2.07-2 2.07A2 2 0 0 1 30.16 26M35 26v-4a2.12 2.12 0 1 1 4.22 0v4A2.12 2.12 0 1 1 35 26m2.83.22v-4.41c0-.5-.22-.86-.72-.86s-.71.35-.71.86v4.45c0 .5.22.86.71.86s.72-.36.72-.86M41.16 22.98v5.21h-1.18v-8.3h1.37l1.51 4.76v-4.76h1.16v8.3H42.8l-1.64-5.21zM44.81 26v-4A2.12 2.12 0 1 1 49 22v4a2.12 2.12 0 1 1-4.22 0m2.83.22v-4.41c0-.5-.22-.86-.72-.86s-.71.35-.71.86v4.45c0 .5.22.86.71.86s.72-.36.72-.86M53.67 22.8h-.04l-.94 5.39h-.64L51 22.8h-.02v5.39h-1.15v-8.3h1.63l.9 4.68h.02l.8-4.68h1.77v8.3h-1.28V22.8zM55.74 19.89h1.4v8.3h-1.4zM57.94 26v-4A2 2 0 0 1 60 19.79c1.54 0 2 .86 2 2.08v1h-1.28v-1.11c0-.52-.17-.81-.67-.81s-.71.35-.71.86v4.45c0 .5.21.86.71.86s.67-.32.67-.81v-1.52H62v1.43c0 1.19-.49 2.07-2 2.07A2 2 0 0 1 57.94 26M66.14 23.76h2v4.43h-1v-.9a1.26 1.26 0 0 1-1.33 1c-1.2 0-1.75-1-1.75-2.24V22a2 2 0 0 1 2.09-2.24c1.54 0 2 .86 2 2.08v.73h-1.3v-.84c0-.51-.2-.81-.7-.81s-.72.35-.72.86v4.45c0 .5.21.86.69.86s.68-.26.68-.8v-1.43h-.66zM70.31 24.38v3.81h-1.4v-8.3h2c1.41 0 1.92.7 1.92 1.86v1.07c0 .89-.32 1.42-1.11 1.6l1.33 3.77h-1.43zm0-3.35v2.58h.46a.6.6 0 0 0 .68-.68V21.7c0-.45-.21-.67-.68-.67zM73.63 26v-4a2.11 2.11 0 1 1 4.22 0v4a2.11 2.11 0 1 1-4.22 0m2.83.22v-4.41c0-.5-.22-.86-.72-.86s-.71.35-.71.86v4.45c0 .5.22.86.71.86s.72-.36.72-.86M81.53 23.06l-.78 5.13h-1.31l-1.12-8.3h1.35l.65 5.26h.01l.7-5.26h1.14l.77 5.26h.01l.64-5.26h1.17l-1.08 8.3h-1.32l-.82-5.13h-.01zM85.2 19.89h3.71v1.14h-1.15v7.16h-1.41v-7.16H85.2v-1.14zM92.3 24.53h-1.35v3.66h-1.39v-8.3h1.39v3.51h1.35v-3.51h1.4v8.3h-1.4v-3.66z"/>
</svg>
