<svg xmlns="http://www.w3.org/2000/svg" viewBox="0 0 98.44 98.44">
  <path fill="#df1783" d="M0 0h98.44v98.44H0z"/>
  <path fill="#fff" d="M9.46 12.9v15.21h3.34V8.24h-2.67l-3.07 3.6v3.49h.03l2.34-2.43h.03zM25 23v-9.63C25 10.26 23.44 8 20 8s-4.92 2.26-4.92 5.36V23c0 3.08 1.55 5.36 4.92 5.36s5-2.29 5-5.36m-6.53.53V12.84c0-1.2.44-2.05 1.58-2.05s1.61.85 1.61 2.05v10.67c0 1.2-.44 2.05-1.61 2.05s-1.58-.85-1.58-2.05M33.14 12.76v3.81h-1.4v-8.3h2c1.41 0 1.92.7 1.92 1.86v1.07c0 .89-.32 1.42-1.12 1.6l1.34 3.77h-1.43zm0-3.35V12h.46a.6.6 0 0 0 .69-.68v-1.24c0-.45-.21-.67-.69-.67zM36.46 8.27h3.33v1.14h-1.94v2.37h1.39v1.13h-1.39v2.52h1.94v1.14h-3.33v-8.3zM44.71 10.5v3.84c0 1.27-.53 2.23-2 2.23h-2.18v-8.3h2.15c1.49 0 2 .94 2 2.23m-2.19 4.93c.57 0 .8-.34.8-.84v-4.35a.73.73 0 0 0-.8-.83h-.59v6zM49.55 8.27v6.28c0 1.28-.55 2.11-2 2.11a1.87 1.87 0 0 1-2.08-2.11V8.27h1.43v6.41c0 .49.2.82.69.82s.68-.33.68-.82V8.27zM50.35 14.42v-4a2 2 0 0 1 2.08-2.24c1.54 0 2 .86 2 2.08v1h-1.31v-1.12c0-.52-.17-.81-.67-.81s-.71.36-.71.86v4.45c0 .5.21.86.71.86s.67-.32.67-.81v-1.53h1.28v1.44c0 1.19-.49 2.07-2 2.07a2 2 0 0 1-2.08-2.24M55.15 8.27h3.33v1.14h-1.93v2.37h1.38v1.13h-1.38v2.52h1.93v1.14h-3.33v-8.3zM63.4 10.5v3.84c0 1.27-.53 2.23-2 2.23h-2.17v-8.3h2.15c1.49 0 2 .94 2 2.23m-2.19 4.93c.57 0 .79-.34.79-.84v-4.35a.73.73 0 0 0-.79-.83h-.59v6zM31.75 19.89h1.39v8.3h-1.39zM35.13 22.98v5.21h-1.18v-8.3h1.37l1.51 4.76v-4.76h1.16v8.3h-1.22l-1.64-5.21zM38.78 19.89h3.33v1.14h-1.93v2.37h1.38v1.13h-1.38v2.52h1.93v1.14h-3.33v-8.3zM44.33 28.75v-.56A1.91 1.91 0 0 1 42.74 26v-4A2.11 2.11 0 1 1 47 22v4a2 2 0 0 1-1 2l1 .2v1zm1.24-2.41v-4.53c0-.5-.22-.86-.72-.86s-.71.35-.71.86v4.53c0 .49.22.86.71.86s.72-.37.72-.86M51.8 19.89v6.28c0 1.28-.55 2.12-2 2.12a1.87 1.87 0 0 1-2.08-2.12v-6.28h1.4v6.41c0 .49.2.82.68.82s.68-.33.68-.82v-6.41zM52.19 28.19l1.57-8.3h1.59l1.58 8.3H55.5l-.26-1.52h-1.48l-.24 1.52zm1.75-2.63h1.11l-.55-3.33zM57.5 19.89h1.4v7.16h1.66v1.14H57.5v-8.3zM61.2 19.89h1.39v8.3H61.2zM63.24 19.89h3.71v1.14H65.8v7.16h-1.41v-7.16h-1.15v-1.14zM67.6 19.89h1.39v8.3H67.6zM69.8 19.89h3.33v1.14h-1.94v2.37h1.39v1.13h-1.39v2.52h1.94v1.14H69.8v-8.3zM73.74 26.4v-1.11H75v1.14c0 .47.21.73.68.73s.64-.29.64-.73v-.32a1.5 1.5 0 0 0-.62-1.17l-.82-.82a2.8 2.8 0 0 1-1.16-2.21v-.28a1.73 1.73 0 0 1 2-1.82c1.4 0 1.95.68 1.95 1.89v.67h-1.29v-.72c0-.48-.22-.71-.66-.71a.61.61 0 0 0-.66.69v.17c0 .46.26.73.66 1.13l.89.88a2.79 2.79 0 0 1 1.13 2.15v.4a1.8 1.8 0 0 1-2 1.94 1.73 1.73 0 0 1-2-1.88M58.49 64.77H40.36a.21.21 0 0 0-.2.22v5.45a.21.21 0 0 0 .2.22h18.13a.21.21 0 0 0 .2-.22V65a.21.21 0 0 0-.2-.22M58.49 53.17H40.36a.21.21 0 0 0-.2.22v5.45a.21.21 0 0 0 .2.22h18.13a.21.21 0 0 0 .2-.22v-5.45a.21.21 0 0 0-.2-.22M58.23 44.93l-8.71-8.7a.15.15 0 0 0-.21 0l-8.7 8.7a.15.15 0 0 0 .11.26h17.41a.15.15 0 0 0 .11-.26M66.41 70.73l8.7-8.7a.15.15 0 0 0 0-.21l-8.7-8.7a.15.15 0 0 0-.26.11v17.39a.15.15 0 0 0 .26.11M40.61 78.9l8.7 8.71a.15.15 0 0 0 .21 0l8.7-8.71a.15.15 0 0 0-.11-.26H40.72a.15.15 0 0 0-.11.26M32.44 53.1l-8.71 8.71a.15.15 0 0 0 0 .21l8.71 8.7a.15.15 0 0 0 .26-.11v-17.4a.15.15 0 0 0-.26-.11"/>
</svg>