<svg xmlns="http://www.w3.org/2000/svg" viewBox="0 0 98.44 98.44">
  <path fill="#0bc0e1" d="M0 0h98.44v98.44H0z"/>
  <path fill="#fff" d="M67.35 39.81a.43.43 0 0 0-.32-.14H31.31a.43.43 0 0 0-.32.14.43.43 0 0 0-.09.34l6 36.29a.42.42 0 0 0 .41.35h7.36l.5 5.91h-3.1l7.21 7.21 7.23-7.23h-3.1l.5-5.9h7.49a.41.41 0 0 0 .41-.35l5.61-36.28a.42.42 0 0 0-.1-.34M53.55 68.86a5.73 5.73 0 0 1-4.26 1.49A5.73 5.73 0 0 1 45 68.86c-2.67-2.67-1.72-6-.79-7.72.58-1.08 4.69-7.25 5-7.77.34.52 4.46 6.7 5 7.77.93 1.72 1.89 5-.79 7.72m11.46-21.42a4.44 4.44 0 0 0-3.37.2c-4.43 1.8-7.45 2.44-12.11 1-2.93-.92-5.68-2.84-8.93-1.67a18.38 18.38 0 0 1-6.6 1.49l-1.41-7.21h33.43zM14.9 28.36c3.54 0 4.92-1.93 4.92-5v-2.93c0-3.25-1.29-4.89-3.69-4.89a2.86 2.86 0 0 0-2.75 1.61v-4.28c0-1.2.38-2 1.58-2s1.55.7 1.55 1.93v1.32h3V13c0-2.93-1-5-4.65-5C11.35 8 10 10.3 10 13.4v9.66c0 3.08 1.35 5.3 4.86 5.3M13.34 20c.06-1.11.53-1.81 1.58-1.81s1.58.7 1.58 2v3.46c0 1.26-.47 2-1.61 2s-1.55-.76-1.55-2zM28.56 14.63v-4a2 2 0 0 1 2.08-2.24c1.54 0 2 .86 2 2.08v1h-1.3v-1.12c0-.52-.17-.81-.67-.81s-.67.36-.67.86v4.45c0 .5.21.86.71.86s.67-.32.67-.81v-1.53h1.27v1.43c0 1.19-.49 2.07-2 2.07a2 2 0 0 1-2.08-2.24M33.37 8.48h1.4v7.16h1.66v1.14h-3.06v-8.3zM37.06 8.48h3.33v1.14h-1.93v2.37h1.38v1.13h-1.38v2.52h1.93v1.14h-3.33v-8.3zM40.92 16.78l1.57-8.3h1.59l1.58 8.3h-1.44L44 15.26h-1.52l-.24 1.52zm1.75-2.63h1.11l-.55-3.33zM47.4 11.56v5.22h-1.17v-8.3h1.37l1.51 4.76V8.48h1.16v8.3h-1.23l-1.64-5.22zM55.36 11.65l-.79 5.13h-1.31l-1.11-8.3h1.35l.65 5.26h.01l.7-5.26h1.13l.77 5.26h.02l.63-5.26h1.18l-1.08 8.3h-1.32l-.82-5.13h-.01zM58.48 16.78L60 8.48h1.59l1.58 8.3h-1.39l-.26-1.52H60l-.24 1.52zm1.75-2.63h1.11l-.55-3.33zM63.02 8.48h3.7v1.14h-1.15v7.16h-1.4V9.62h-1.15V8.48zM67.37 8.48h3.33v1.14h-1.93v2.37h1.38v1.13h-1.38v2.52h1.93v1.14h-3.33v-8.3zM72.84 13v3.81h-1.4V8.48h2c1.41 0 1.92.7 1.92 1.86v1.06c0 .89-.32 1.42-1.11 1.6l1.34 3.77h-1.44zm0-3.35v2.55h.46a.6.6 0 0 0 .69-.68v-1.23c0-.45-.21-.67-.69-.67zM28.34 28.4l1.57-8.3h1.59l1.58 8.3h-1.43l-.26-1.52h-1.48l-.24 1.52zm1.75-2.63h1.11l-.55-3.33zM34.83 23.18v5.22h-1.18v-8.3h1.37l1.51 4.76V20.1h1.16v8.3h-1.22l-1.64-5.22zM42.66 22.33v3.84c0 1.27-.53 2.23-2 2.23h-2.18v-8.3h2.15c1.49 0 2 .94 2 2.23m-2.19 4.93c.57 0 .8-.34.8-.84v-4.35a.73.73 0 0 0-.8-.83h-.59v6zM44.66 26.61V25.5H46v1.14c0 .47.21.73.68.73s.64-.29.64-.73v-.32a1.5 1.5 0 0 0-.62-1.17l-.82-.82a2.8 2.8 0 0 1-1.16-2.21v-.28a1.73 1.73 0 0 1 2-1.82c1.4 0 1.95.68 1.95 1.88v.67H47.3v-.72c0-.48-.22-.71-.66-.71a.61.61 0 0 0-.66.69V22c0 .46.26.73.66 1.13l.89.88a2.79 2.79 0 0 1 1.13 2.15v.4a1.8 1.8 0 0 1-2 1.94 1.73 1.73 0 0 1-2-1.88M49.05 28.4l1.57-8.3h1.59l1.58 8.3h-1.43l-.26-1.52h-1.48l-.24 1.52zm1.75-2.63h1.11l-.55-3.33zM55.54 23.18v5.22h-1.18v-8.3h1.37l1.51 4.76V20.1h1.16v8.3h-1.22l-1.64-5.22zM59.2 20.1h1.4v8.3h-1.4zM61.24 20.1h3.71v1.14H63.8v7.16h-1.41v-7.16h-1.15V20.1zM64.76 28.4l1.57-8.3h1.59l1.58 8.3h-1.43l-.26-1.52h-1.48l-.24 1.52zm1.75-2.63h1.11l-.55-3.33zM69.3 20.1h3.71v1.14h-1.15v7.16h-1.41v-7.16H69.3V20.1zM73.66 20.1h1.4v8.3h-1.4zM75.86 26.26v-4a2.12 2.12 0 1 1 4.22 0v4a2.12 2.12 0 1 1-4.22 0m2.83.22V22c0-.5-.22-.86-.72-.86s-.71.35-.71.86v4.45c0 .5.22.86.71.86s.72-.36.72-.86M82.05 23.18v5.22h-1.17v-8.3h1.37l1.5 4.76V20.1h1.17v8.3h-1.23l-1.64-5.22z"/>
</svg>