<svg xmlns="http://www.w3.org/2000/svg" viewBox="0 0 98.44 98.44">
  <path fill="#ef4f3b" d="M0 0h98.44v98.44H0z"/>
  <path fill="#fff" d="M71.71 37.25H59.47a.16.16 0 0 0-.16.16v4.07a.16.16 0 0 0 .16.16h4.87L58.94 47A16 16 0 1 0 47 75.53v4.68h-4.84a.15.15 0 0 0-.16.15v4.36a.15.15 0 0 0 .16.16H47v4.61a.15.15 0 0 0 .16.15h4.34a.16.16 0 0 0 .16-.15v-4.61h4.83a.15.15 0 0 0 .16-.16v-4.35a.15.15 0 0 0-.16-.15h-4.83v-4.77a16 16 0 0 0 10.5-25l5.33-5.33v4.55a.16.16 0 0 0 .16.15h4.06a.16.16 0 0 0 .16-.15V37.41a.16.16 0 0 0-.16-.16M49.06 71.44a11.79 11.79 0 1 1 11.8-11.79 11.81 11.81 0 0 1-11.8 11.79"/>
  <path fill="#fff" d="M56.26 54.8H42a.15.15 0 0 0-.16.14v3.46a.15.15 0 0 0 .16.14h14.26a.15.15 0 0 0 .16-.14v-3.46a.15.15 0 0 0-.16-.14M56.26 61H42a.15.15 0 0 0-.16.15v3.46a.15.15 0 0 0 .16.14h14.26a.15.15 0 0 0 .16-.14v-3.48a.15.15 0 0 0-.16-.15M16.35 14.53a3 3 0 0 0-2.81 1.38V11h5.74V8.24h-8.82v11.18h3V19c0-1.17.53-1.82 1.46-1.82s1.43.7 1.43 1.79v4.8c0 1.05-.38 1.79-1.41 1.79s-1.55-.76-1.55-1.93v-2.51h-3v2.26c0 3 1.2 4.95 4.6 4.95s4.74-1.79 4.74-4.54v-4.86c0-3.13-1.61-4.39-3.4-4.39M31.33 12.48h2v4.43h-1V16A1.26 1.26 0 0 1 31 17c-1.2 0-1.75-1-1.75-2.24v-4a2 2 0 0 1 2.09-2.24c1.54 0 2 .86 2 2.08v.73H32v-.84c0-.51-.2-.81-.7-.81s-.72.35-.72.86V15c0 .5.21.86.69.86s.68-.26.68-.8v-1.48h-.66zM34.11 8.61h3.33v1.14H35.5v2.37h1.39v1.13H35.5v2.52h1.94v1.14h-3.33v-8.3zM39.36 11.7v5.21h-1.18v-8.3h1.37l1.51 4.76V8.61h1.16v8.3H41l-1.64-5.21zM47.19 10.84v3.84c0 1.27-.53 2.23-2 2.23H43v-8.3h2.15c1.49 0 2 .94 2 2.23M45 15.77c.57 0 .79-.34.79-.84v-4.35a.73.73 0 0 0-.79-.83h-.59v6zM47.98 8.61h3.33v1.14h-1.93v2.37h1.38v1.13h-1.38v2.52h1.93v1.14h-3.33v-8.3zM53.45 13.1v3.81h-1.4v-8.3h2c1.41 0 1.92.7 1.92 1.86v1.07c0 .89-.32 1.42-1.11 1.6l1.34 3.77h-1.44zm0-3.35v2.58h.46a.6.6 0 0 0 .69-.68v-1.23c0-.45-.21-.67-.69-.67zM29.23 20.23h3.33v1.14h-1.94v2.38h1.39v1.12h-1.39v2.52h1.94v1.14h-3.33v-8.3zM34.77 29.09v-.56a1.91 1.91 0 0 1-1.59-2.14v-4a2.11 2.11 0 1 1 4.22 0v4a2 2 0 0 1-1 2l1 .2v1zM36 26.68v-4.53c0-.5-.22-.86-.72-.86s-.71.35-.71.86v4.53c0 .49.22.86.71.86s.72-.37.72-.86M42.25 20.23v6.28c0 1.28-.55 2.12-2 2.12a1.87 1.87 0 0 1-2.08-2.12v-6.28h1.4v6.41c0 .49.2.82.68.82s.68-.33.68-.82v-6.41zM42.64 28.53l1.57-8.3h1.59l1.58 8.3h-1.44L45.68 27H44.2l-.2 1.53zm1.75-2.63h1.11l-.55-3.33zM47.95 20.23h1.39v7.16h1.67v1.14h-3.06v-8.3zM51.64 20.23h1.4v8.3h-1.4zM53.69 20.23h3.7v1.14h-1.15v7.16h-1.4v-7.16h-1.15v-1.14zM60.76 25.37v3.16h-1.4v-3.16l-1.55-5.14h1.45l.85 3.15h.01l.85-3.15h1.33l-1.54 5.14z"/>
</svg>