<svg xmlns="http://www.w3.org/2000/svg" viewBox="0 0 98.44 98.44">
  <path fill="#fdb714" d="M0 0h98.44v98.44H0z"/>
  <path fill="#fff" d="M49.26 47.7a14.43 14.43 0 1 0 14.42 14.42A14.43 14.43 0 0 0 49.26 47.7m-1.07 5.7a1.07 1.07 0 0 1 2.14 0v5a1.07 1.07 0 0 1-2.14 0zm1.07 16.12A7.51 7.51 0 0 1 47 54.85v2.79a4.91 4.91 0 1 0 4.45 0v-2.8a7.51 7.51 0 0 1-2.22 14.67M32.69 62a1.21 1.21 0 0 0-1.11-1.18h-6.31a1.19 1.19 0 0 0 0 2.37h6.32a1.21 1.21 0 0 0 1.1-1.19M74.37 62a1.21 1.21 0 0 0-1.11-1.18h-6.32a1.19 1.19 0 0 0 0 2.37h6.32A1.21 1.21 0 0 0 74.37 62"/>
  <path fill="#fff" d="M49.26 87.11A1.21 1.21 0 0 0 50.45 86v-6.32a1.19 1.19 0 0 0-2.37 0V86a1.21 1.21 0 0 0 1.19 1.11M71.05 74.47a1.21 1.21 0 0 0-.37-1.58l-5.48-3.14a1.19 1.19 0 0 0-1.2 2.06L69.5 75a1.21 1.21 0 0 0 1.55-.48M36.79 83.79a1.2 1.2 0 0 0 1.58-.37l3.14-5.48a1.19 1.19 0 0 0-2.06-1.18l-3.14 5.48a1.21 1.21 0 0 0 .48 1.55M61.78 83.77a1.21 1.21 0 0 0 .47-1.55l-3.15-5.48a1.19 1.19 0 0 0-2.1 1.18l3.2 5.48a1.21 1.21 0 0 0 1.58.37M27.49 74.52A1.21 1.21 0 0 0 29 75l5.48-3.15a1.19 1.19 0 0 0-1.18-2.06l-5.48 3.15a1.21 1.21 0 0 0-.37 1.58M49.26 45.43a1.21 1.21 0 0 0 1.18-1.11V38a1.19 1.19 0 0 0-2.37 0v6.32a1.21 1.21 0 0 0 1.19 1.11M34.88 53.77a1.2 1.2 0 0 0-.37-1.58L29 49.05a1.19 1.19 0 0 0-1.18 2.06l5.48 3.14a1.21 1.21 0 0 0 1.55-.48M57.49 47.62a1.21 1.21 0 0 0 1.58-.37l3.14-5.48a1.19 1.19 0 0 0-2.06-1.18L57 46.07a1.21 1.21 0 0 0 .48 1.55M41 47.64a1.21 1.21 0 0 0 .47-1.55l-3.15-5.48a1.19 1.19 0 0 0-2.06 1.18l3.15 5.48a1.21 1.21 0 0 0 1.58.37M63.62 53.74a1.21 1.21 0 0 0 1.55.47l5.48-3.15A1.19 1.19 0 0 0 69.47 49L64 52.16a1.21 1.21 0 0 0-.37 1.58M10.1 10.97h5.15L10.8 28.1h3.31l4.36-16.78V8.25H10.1v2.72zM27.82 16.57l1.57-8.3H31l1.58 8.3h-1.46L30.86 15h-1.48l-.24 1.52zm1.75-2.63h1.11l-.55-3.33zM33.13 8.27h3.26v1.14h-1.87v2.37h1.39v1.13h-1.39v3.66h-1.39v-8.3zM37 8.27h3.27v1.14H38.4v2.37h1.39v1.13H38.4v3.66H37v-8.3zM40.76 14.42v-4a2.12 2.12 0 1 1 4.22 0v4a2.12 2.12 0 1 1-4.22 0m2.83.22v-4.45c0-.5-.22-.86-.72-.86s-.71.35-.71.86v4.45c0 .5.22.86.71.86s.72-.36.72-.86M47.17 12.76v3.81h-1.4v-8.3h2c1.41 0 1.92.7 1.92 1.86v1.07c0 .89-.32 1.42-1.12 1.6l1.34 3.77h-1.43zm0-3.35V12h.46a.6.6 0 0 0 .68-.68v-1.24c0-.45-.21-.67-.68-.67zM54.66 10.5v3.84c0 1.27-.53 2.23-2 2.23h-2.17v-8.3h2.15c1.49 0 2 .94 2 2.23m-2.19 4.93c.57 0 .79-.34.79-.84v-4.35a.73.73 0 0 0-.79-.83h-.59v6zM55.05 16.57l1.57-8.3h1.59l1.58 8.3h-1.44L58.1 15h-1.48l-.24 1.52zm1.75-2.63h1.11l-.55-3.33zM60.36 8.27h2c1.39 0 1.86.65 1.86 1.82v.84a1.21 1.21 0 0 1-.83 1.32 1.26 1.26 0 0 1 1 1.38v1.1c0 1.17-.53 1.82-1.92 1.82h-2.11zm1.4 3.5h.49a.59.59 0 0 0 .66-.67v-1a.59.59 0 0 0-.67-.67h-.48zm0 1.06v2.59h.61a.6.6 0 0 0 .69-.67v-1.24c0-.44-.21-.67-.7-.67zM65.14 8.27h1.4v7.16h1.66v1.14h-3.06v-8.3zM68.84 8.27h3.33v1.14h-1.94v2.37h1.38v1.13h-1.38v2.52h1.94v1.14h-3.33v-8.3zM74 16.57l1.57-8.3h1.59l1.58 8.3h-1.46L77 15h-1.46l-.24 1.52zm1.75-2.63h1.11l-.55-3.33zM80.46 11.35v5.22h-1.18v-8.3h1.38l1.5 4.76V8.27h1.16v8.3H82.1l-1.64-5.22zM88.29 10.5v3.84c0 1.27-.53 2.23-2 2.23h-2.17v-8.3h2.15c1.49 0 2 .94 2 2.23m-2.17 4.93c.57 0 .79-.34.79-.84v-4.35a.73.73 0 0 0-.79-.83h-.59v6zM28 26v-4a2 2 0 0 1 2.08-2.24c1.54 0 2 .86 2 2.08v1h-1.27v-1.08c0-.52-.17-.81-.67-.81s-.71.35-.71.86v4.45c0 .5.21.86.71.86s.67-.32.67-.81v-1.52h1.27v1.43c0 1.19-.49 2.07-2 2.07A2 2 0 0 1 28 26M32.84 19.89h1.4v7.16h1.66v1.14h-3.06v-8.3zM36.54 19.89h3.33v1.14h-1.94v2.37h1.39v1.13h-1.39v2.52h1.94v1.14h-3.33v-8.3zM40.39 28.19l1.61-8.3h1.59l1.58 8.3H43.7l-.26-1.52H42l-.24 1.52zm1.75-2.63h1.11l-.55-3.33zM46.88 22.98v5.21H45.7v-8.3h1.37l1.51 4.76v-4.76h1.16v8.3h-1.22l-1.64-5.21zM51.82 19.89h3.33v1.14h-1.93v2.37h1.38v1.13h-1.38v2.52h1.93v1.14h-3.33v-8.3zM57.07 22.98v5.21h-1.18v-8.3h1.37l1.51 4.76v-4.76h1.16v8.3h-1.22l-1.64-5.21zM60.73 19.89h3.33v1.14h-1.94v2.37h1.38v1.13h-1.38v2.52h1.94v1.14h-3.33v-8.3zM66.19 24.38v3.81H64.8v-8.3h2c1.41 0 1.92.7 1.92 1.86v1.07c0 .89-.32 1.42-1.12 1.6l1.4 3.77h-1.5zm0-3.35v2.58h.46a.6.6 0 0 0 .68-.68V21.7c0-.45-.21-.67-.68-.67zM71.61 23.76h2v4.43h-1v-.9a1.26 1.26 0 0 1-1.33 1c-1.2 0-1.75-1-1.75-2.24V22a2 2 0 0 1 2.09-2.24c1.54 0 2 .86 2 2.08v.73h-1.3v-.84c0-.51-.19-.81-.7-.81s-.72.35-.72.86v4.45c0 .5.21.86.69.86s.68-.26.68-.8v-1.43h-.66zM76.8 25.03v3.16h-1.39v-3.16l-1.56-5.14h1.46l.84 3.15h.02l.84-3.15h1.33l-1.54 5.14z"/>
</svg>
