<svg xmlns="http://www.w3.org/2000/svg" viewBox="0 0 98.44 98.44">
  <path fill="#cd8b2a" d="M0 0h98.44v98.44H0z"/>
  <path fill="#fff" d="M74.2 51.08a16.16 16.16 0 0 0-12.22-3l-.24.06c-2.44.57-6.31 1.53-10.84 7.15l-.08.1-.06.07a.36.36 0 0 0 0 .41l.1.17c.57.95 1.29 2.17 1.89 3.3a.39.39 0 0 0 .35.21.38.38 0 0 0 .27-.11l.08-.11c4-5.56 7.18-6.33 9.32-6.83l.26-.06a11.71 11.71 0 0 1 8.38 2.15c2.37 1.9 3.59 4.89 3.59 8.9 0 6.73-3.27 9.37-6 10.39a11.23 11.23 0 0 1-8.37-.55l-.18-.09c-2.34-1-5.83-3.13-9.12-9.73-6.65-13.31-12.2-14.57-15.87-15.4h-.2a15.83 15.83 0 0 0-12 3C20.86 53 18 56.66 18 63.47c0 4.15.85 6.89 3 9.77.48.66 5.39 7 14.88 5.14a14.27 14.27 0 0 0 5.84-2.71l2.09 1.88a.34.34 0 0 0 .48 0 .33.33 0 0 0 .08-.23L45.94 68v-.1a.33.33 0 0 0-.11-.25.31.31 0 0 0-.22-.08h-.16l-8.88 2.48h-.16a.31.31 0 0 0-.17.1.34.34 0 0 0 0 .48l.1.1 2 1.8a9.25 9.25 0 0 1-3.26 1.38c-6.86 1.31-10.26-3.19-10.39-3.36v-.07c-1.6-2.09-2.13-3.87-2.13-7.05 0-4 1.18-7 3.52-8.88a11.36 11.36 0 0 1 8.22-2.12h.2c3 .68 7.13 1.61 12.8 13 2.95 5.92 6.64 9.79 11.28 11.82A16.41 16.41 0 0 0 65.62 79a14.07 14.07 0 0 0 4.93-.87c2.69-1 9-4.44 9-14.62 0-6.8-2.88-10.51-5.3-12.41M9.83 12.94h.03v15.19h3.33V8.28h-2.66l-3.07 3.6v3.49h.02l2.35-2.43zM15.18 12.38v2.4h3v-2.49c0-1.2.59-1.55 1.29-1.55s1.2.26 1.2 1.49v1.64a3.93 3.93 0 0 1-1.23 3.43l-1.87 2c-1.82 1.93-2.49 3.22-2.49 5.18v3.66h8.67v-2.73h-5.44v-.94a3.79 3.79 0 0 1 1.4-3l2.14-2.25a6.25 6.25 0 0 0 2.11-5v-1.99C24 9.39 22.59 8 19.6 8s-4.42 1.55-4.42 4.33M33 12.76v3.81h-1.4v-8.3h2c1.41 0 1.92.7 1.92 1.86v1.07c0 .89-.32 1.42-1.11 1.6l1.34 3.77h-1.43zm0-3.35V12h.46a.6.6 0 0 0 .69-.68v-1.24c0-.45-.21-.67-.69-.67zM36.16 8.27h3.33v1.14h-1.94v2.37h1.39v1.13h-1.39v2.52h1.94v1.14h-3.33v-8.3zM39.93 14.78v-1.11h1.3v1.13c0 .47.21.73.68.73s.64-.29.64-.73v-.32a1.5 1.5 0 0 0-.62-1.17l-.82-.82a2.8 2.8 0 0 1-1.16-2.21V10a1.73 1.73 0 0 1 2-1.82c1.4 0 1.95.69 1.95 1.89v.67h-1.33V10c0-.48-.22-.71-.66-.71a.61.61 0 0 0-.66.68v.17c0 .46.26.73.66 1.13l.89.88a2.79 2.79 0 0 1 1.13 2.15v.4a1.8 1.8 0 0 1-2 1.94 1.73 1.73 0 0 1-2-1.88M44.49 8.27h2.07c1.41 0 1.92.7 1.92 1.86v1.75c0 1.16-.51 1.87-1.92 1.87h-.67v2.82h-1.4zm1.4 1.14v3.27h.51a.6.6 0 0 0 .68-.69v-1.91c0-.45-.21-.67-.68-.67zM49 14.42v-4a2.11 2.11 0 1 1 4.22 0v4a2.11 2.11 0 1 1-4.22 0m2.83.22v-4.45c0-.5-.22-.86-.72-.86s-.71.35-.71.86v4.45c0 .5.22.86.71.86s.72-.36.72-.86M55.05 11.35v5.22h-1.17v-8.3h1.37l1.5 4.76V8.27h1.16v8.3h-1.22l-1.64-5.22zM58.46 14.78v-1.11h1.3v1.13c0 .47.21.73.68.73s.64-.29.64-.73v-.32a1.5 1.5 0 0 0-.62-1.17l-.82-.82a2.8 2.8 0 0 1-1.16-2.21V10a1.73 1.73 0 0 1 2-1.82c1.4 0 1.95.69 1.95 1.89v.67h-1.32V10c0-.48-.22-.71-.66-.71a.61.61 0 0 0-.66.68v.17c0 .46.26.73.66 1.13l.89.88a2.79 2.79 0 0 1 1.13 2.15v.4a1.8 1.8 0 0 1-2 1.94 1.73 1.73 0 0 1-2-1.88M63.03 8.27h1.4v8.3h-1.4zM65.06 8.27h2c1.39 0 1.86.65 1.86 1.82v.84a1.21 1.21 0 0 1-.83 1.32 1.26 1.26 0 0 1 1 1.38v1.1c0 1.17-.53 1.82-1.92 1.82h-2.11zm1.4 3.5h.49a.59.59 0 0 0 .66-.67v-1a.59.59 0 0 0-.67-.67h-.48zm0 1.06v2.59h.61a.6.6 0 0 0 .69-.67v-1.24c0-.44-.21-.67-.7-.67zM69.67 8.27h1.39v7.16h1.67v1.14h-3.06v-8.3zM73.19 8.27h3.33v1.14h-1.93v2.37h1.38v1.13h-1.38v2.52h1.93v1.14h-3.33v-8.3zM31.62 26v-4a2 2 0 0 1 2.08-2.24c1.54 0 2 .86 2 2.08v1h-1.3v-1.08c0-.52-.17-.81-.67-.81s-.71.35-.71.86v4.45c0 .5.21.86.71.86s.67-.32.67-.81v-1.52h1.27v1.43c0 1.19-.49 2.07-2 2.07A2 2 0 0 1 31.62 26M36.26 26v-4a2.12 2.12 0 1 1 4.22 0v4a2.12 2.12 0 1 1-4.22 0m2.83.22v-4.41c0-.5-.22-.86-.72-.86s-.71.35-.71.86v4.45c0 .5.22.86.71.86s.72-.36.72-.86M42.28 22.98v5.21H41.1v-8.3h1.37l1.51 4.76v-4.76h1.16v8.3h-1.22l-1.64-5.21zM45.69 26.4v-1.11H47v1.14c0 .47.21.73.68.73s.64-.29.64-.73v-.32a1.5 1.5 0 0 0-.62-1.17l-.82-.82a2.8 2.8 0 0 1-1.18-2.22v-.28a1.73 1.73 0 0 1 2-1.82c1.4 0 1.95.68 1.95 1.89v.67h-1.32v-.72c0-.48-.22-.71-.66-.71a.61.61 0 0 0-.66.69v.17c0 .46.26.73.66 1.13l.89.88a2.79 2.79 0 0 1 1.13 2.15v.4a1.8 1.8 0 0 1-2 1.94 1.73 1.73 0 0 1-2-1.88M54.3 19.89v6.28c0 1.28-.55 2.12-2 2.12a1.87 1.87 0 0 1-2.08-2.12v-6.28h1.4v6.41c0 .49.2.82.68.82s.68-.33.68-.82v-6.41zM58.77 22.8h-.04l-.94 5.39h-.65L56.1 22.8h-.02v5.39h-1.15v-8.3h1.62l.91 4.68h.01l.81-4.68h1.76v8.3h-1.27V22.8zM60.66 19.89h2.07c1.41 0 1.92.7 1.92 1.86v1.75c0 1.16-.51 1.87-1.92 1.87h-.67v2.82h-1.4zm1.4 1.11v3.3h.51a.6.6 0 0 0 .68-.69V21.7c0-.45-.21-.67-.68-.67zM64.98 19.89h3.71v1.14h-1.15v7.16h-1.41v-7.16h-1.15v-1.14zM69.17 19.89h1.4v8.3h-1.4zM71.2 26v-4a2.11 2.11 0 1 1 4.22 0v4a2.11 2.11 0 1 1-4.22 0m2.83.22v-4.41c0-.5-.22-.86-.72-.86s-.71.35-.71.86v4.45c0 .5.22.86.71.86s.72-.36.72-.86M77.22 22.98v5.21h-1.18v-8.3h1.37l1.51 4.76v-4.76h1.16v8.3h-1.22l-1.64-5.21zM31.4 39.81l1.6-8.3h1.59l1.58 8.3H34.7l-.26-1.52H33l-.24 1.52zm1.75-2.63h1.11l-.55-3.33zM37.71 34.6v5.21h-1.17v-8.3h1.37l1.5 4.77v-4.77h1.17v8.3h-1.23l-1.64-5.21zM45.37 33.74v3.84c0 1.27-.53 2.23-2 2.23H41.2v-8.3h2.15c1.49 0 2 .94 2 2.23m-2.19 4.93c.57 0 .8-.34.8-.84v-4.35a.73.73 0 0 0-.8-.83h-.59v6zM47.11 31.52h2.07c1.41 0 1.92.7 1.92 1.86v1.75c0 1.16-.51 1.87-1.92 1.87h-.68v2.82h-1.4zm1.4 1.14v3.27H49a.6.6 0 0 0 .68-.69v-1.91c0-.45-.21-.67-.68-.67zM53 36v3.81h-1.4v-8.3h2c1.41 0 1.92.7 1.92 1.86v1.07c0 .89-.32 1.42-1.11 1.6l1.34 3.77h-1.4zm0-3.35v2.58h.46a.6.6 0 0 0 .69-.68v-1.22c0-.45-.21-.67-.69-.67zM56.19 37.67v-4a2.12 2.12 0 1 1 4.22 0v4a2.12 2.12 0 1 1-4.22 0m2.83.22v-4.45c0-.5-.22-.86-.72-.86s-.71.35-.71.86v4.45c0 .5.22.86.71.86s.72-.36.72-.86M65.21 33.74v3.84c0 1.27-.53 2.23-2 2.23H61v-8.3h2.15c1.49 0 2 .94 2 2.23M63 38.67c.57 0 .79-.34.79-.84v-4.35a.73.73 0 0 0-.79-.83h-.59v6zM69.88 31.51v6.28c0 1.28-.55 2.12-2 2.12a1.87 1.87 0 0 1-2.08-2.12v-6.28h1.4v6.41c0 .49.2.82.68.82s.68-.33.68-.82v-6.41zM70.5 37.67v-4a2 2 0 0 1 2.08-2.24c1.54 0 2 .86 2 2.08v1h-1.3v-1.12c0-.51-.17-.81-.67-.81s-.71.35-.71.86v4.45c0 .5.21.86.71.86s.67-.32.67-.81v-1.53h1.27v1.43c0 1.19-.49 2.07-2 2.07a2 2 0 0 1-2.08-2.24M74.86 31.52h3.7v1.13h-1.15v7.16h-1.4v-7.16h-1.15v-1.13zM79.04 31.51h1.4v8.3h-1.4zM81.07 37.67v-4a2.11 2.11 0 1 1 4.22 0v4a2.11 2.11 0 1 1-4.22 0m2.83.22v-4.45c0-.5-.22-.86-.72-.86s-.71.35-.71.86v4.45c0 .5.22.86.71.86s.72-.36.72-.86M87.09 34.6v5.21h-1.17v-8.3h1.37l1.5 4.77v-4.77h1.17v8.3h-1.23l-1.64-5.21z"/>
</svg>
