<svg xmlns="http://www.w3.org/2000/svg" viewBox="0 0 98.44 98.44">
  <path fill="#4b7940" d="M0 0h98.44v98.44H0z"/>
  <path fill="#fff" d="M86.09 61.63a45 45 0 0 0-72.27 0l-.28.4.28.41a45 45 0 0 0 72.27 0l.28-.41-.28-.4m-48.3-9c.2-.29.85-1.11.93-1.22a1.17 1.17 0 0 1 .74-.3c.23 0 .54.09.58.26a2 2 0 0 1-.2 1 2.52 2.52 0 0 1-1.61.73c-.36-.05-.49-.33-.43-.43M37 54.2l.08-.09a2 2 0 0 1 1.2-.44c.38-.06.88.13.94.38s-.95.71-1.13.88c-.52.48-1.35 1.47-1.83 1.57a.58.58 0 0 1-.39 0A15.11 15.11 0 0 1 37 54.2m8.16 16.74a4.31 4.31 0 0 1-.93 1.95 3.15 3.15 0 0 1-2.07.79c-.69-.05-.79-1.9-.79-2.85 0-.33-.46.64-.71-1.33-.16-1.26-1 .13-1-.71s-.46-.67-.89-1.2-1 .05-1.54.32-.35.4-1.18.14L36 68a15.13 15.13 0 0 1-1.19-5.91c0-.51 0-1 .08-1.51a.94.94 0 0 1 .09-.14c.8-1 .78-1.17.78-1.17l.89-.31a14.82 14.82 0 0 1 2.49.62c.88.33 2.27 1.08 3.07.75.58-.24 1-.56 1-1s-.55-.75-1.13-.34c-.21.15-.67-.92-1-.86s.44 1.26.14 1.31-.92-1.25-1-1.47-.57-.73-1-.33c-.9.85-2.35.8-2.64 1-.89.67-1.12-.22-1.11-.76l.11-.37a1.82 1.82 0 0 1 1.69-.19c.39.26.68-.07.83-.23a.54.54 0 0 0 0-.62c-.1-.21.2-.37.4-.42a10.67 10.67 0 0 0 1.15-.69 3.79 3.79 0 0 1 2.31 0A1.22 1.22 0 0 0 43.4 55a4.05 4.05 0 0 1 1.1-.92c.22-.1-.54-.81-1.17 0s-.95.84-1.24.84-2-.44-2.27-1 .55-1 1.2-1.28a15.75 15.75 0 0 1 2.87-.41c.92-.2 2.1-.66 2.69-.26s-2.47 1.1-1.47 1.64c.36.2 2-.93 2.53-1.22 1.31-.67-1.27-.9-.93-2.27.38-1.55-3.16-.95-4.92-.82a15.19 15.19 0 0 1 23 9.25 2.51 2.51 0 0 1-.07.7 1 1 0 0 1-1.78.14c-.15-.22-.81-.84-.78.21s1 1.16.05 1.79a3.74 3.74 0 0 1-1.6.64 2.06 2.06 0 0 0-.78 1.82c.11.58 1.49 2.16.47 2.1a6 6 0 0 1-2.36-2.06c-.32-.84-.66-1.66-.91-2.29a.91.91 0 0 0-1.43-.42c-.54.37.15.74-.24 1.53s-.67 1.5-1.24.84c-1.48-1.7-3.64-.86-4-2.75-.18-1-1.06-.93-1.8-1.51s-1.15-.89-1.28-.47 2.32 2.3 2.5 2.79c.26.73-.73 1.38-1.45 1.56s-1-.4-1.74-1.14-1-1.26-1.07-.68a3.32 3.32 0 0 0 1.39 2.52c.61.39 1.3.57 1.1 1.2s0 .27-.69 1a1.86 1.86 0 0 0-.77 1.85c.05.95-.2 1-.35 1.79s-.49.11-.79 1.26m16.3-6.06c.51 0 1.28.67 1 .94A1.36 1.36 0 0 1 61 65.7c-.38-.3.24-.79.47-.81m-.65-.47c-.16-.06-.31-.22-.43-.59a.34.34 0 0 1 .5-.44 1.48 1.48 0 0 1 .72.87c0 .25-.61.22-.78.15m-6.71 0a1.37 1.37 0 0 1-1.45-.13c-.38-.3.24-.79.47-.81.51 0 1.28.67 1 .94m-6.2 3c-.21.34-.78 2.9-1.16 2.6s.15-3 .27-3.16c.6-1.1 1.9-1 .9.57M50 77.31a15.16 15.16 0 0 1-4.27-.61.63.63 0 0 1-.18-.74 3.38 3.38 0 0 1 3-1.81c2.46-.24 5.7 1.6 6.22 1.3s1.56-1.65 3.09-1.59a2.4 2.4 0 0 1 1.39.35 15.13 15.13 0 0 1-9.25 3.1m10.7-4.42a2.68 2.68 0 0 1-.48-.18c-.83-.42-.73.25-1.14.1s.46-1.1-.77-.3-.89-.12-1.42-1.48a2.76 2.76 0 0 1 1.57-3.25 19.13 19.13 0 0 1 2.76-.73c1.82-.46 2.21-1.54 2.54-.88l.18.35a2.39 2.39 0 0 1 .24 1 15.21 15.21 0 0 1-3.48 5.36m4.16-7.67c-.41-.11-2.11-2.47-.77-4 .23-.25-.45-1-.27-1a1.24 1.24 0 0 1 1.32 1.06v.88a15.32 15.32 0 0 1-.32 3.1M12.43 8.26V28.1H9.09V12.91h-.03l-2.34 2.43h-.03v-3.48l3.07-3.6h2.67zM23.43 12.56v1.73a3.17 3.17 0 0 1-2.28 3.22 3 3 0 0 1 2.46 3.36v2.93c0 2.75-1.46 4.54-4.83 4.54s-4.6-1.93-4.6-4.95v-2.6h3v2.84c0 1.17.41 1.93 1.55 1.93s1.49-.73 1.49-1.79v-3.28c0-1.05-.47-1.61-1.64-1.61h-1.4v-2.54h1.26c1.08 0 1.78-.56 1.78-1.61v-2.14c0-1.08-.38-1.78-1.43-1.78s-1.43.7-1.43 1.93v2h-3V13c0-2.93 1.2-5 4.65-5 3.07 0 4.42 1.73 4.42 4.54M30.37 14.33v-4a2 2 0 0 1 2.08-2.24c1.54 0 2 .86 2 2.08v1h-1.3V10c0-.51-.17-.81-.67-.81s-.71.35-.71.86v4.45c0 .5.21.86.71.86s.67-.32.67-.81v-1.49h1.27v1.44c0 1.19-.49 2.07-2 2.07a2 2 0 0 1-2.08-2.24M35.18 8.17h1.39v7.16h1.67v1.14h-3.06v-8.3zM38.87 8.17h1.4v8.3h-1.4zM44.92 11.08h-.04l-.94 5.39h-.65l-1.04-5.39h-.03v5.39h-1.15v-8.3h1.63l.91 4.68h.01l.81-4.68h1.76v8.3h-1.27v-5.39zM46.76 16.47l1.57-8.3h1.59l1.58 8.3h-1.43l-.26-1.52h-1.48l-.24 1.52zm1.75-2.63h1.11l-.55-3.33zM51.3 8.17h3.71v1.14h-1.15v7.16h-1.41V9.31H51.3V8.17zM55.66 8.17h3.32v1.14h-1.93v2.37h1.38v1.13h-1.38v2.52h1.93v1.14h-3.32v-8.3zM30.15 28.09l1.57-8.3h1.59l1.58 8.3h-1.44l-.26-1.52h-1.48l-.24 1.52zm1.75-2.63H33l-.55-3.33zM35.27 25.95v-4a2 2 0 0 1 2.08-2.24c1.54 0 2 .86 2 2.08v1h-1.3v-1.12c0-.51-.17-.81-.67-.81s-.71.35-.71.86v4.45c0 .5.21.86.71.86s.67-.32.67-.81v-1.53h1.27v1.43c0 1.19-.49 2.07-2 2.07a2 2 0 0 1-2.08-2.24M39.8 19.79h3.71v1.14h-1.15v7.16h-1.41v-7.16H39.8v-1.14zM44.16 19.79h1.4v8.3h-1.4zM46.36 25.95v-4a2.12 2.12 0 1 1 4.22 0v4a2.12 2.12 0 1 1-4.22 0m2.83.22v-4.46c0-.5-.22-.86-.72-.86s-.71.35-.71.86v4.45c0 .5.22.86.71.86s.72-.35.72-.86M52.55 22.88v5.21h-1.18v-8.3h1.37l1.51 4.76v-4.76h1.16v8.3h-1.22l-1.64-5.21z"/>
</svg>