<svg xmlns="http://www.w3.org/2000/svg" viewBox="0 0 98.43 98.44">
  <path fill="#279b49" d="M0 0h98.43v98.44H0z"/>
  <path fill="#fff" d="M83 61.52c0-2.77-1.78-5-4.47-5-1.35 0-3 1.47-3.85 2.38-.88-.91-2.4-2.38-3.74-2.38a4.71 4.71 0 0 0-4.58 5 5.07 5.07 0 0 0 1.43 3.55L74.68 72l6.89-6.91A5.08 5.08 0 0 0 83 61.52"/>
  <path fill="#fff" d="M53.62 83.26h-.07a1.13 1.13 0 0 1-1-.94L49 61.91l-5.31 9.84a1.13 1.13 0 0 1-2.12-.38l-2.26-15.75-4.12 9.26a1.14 1.14 0 0 1-1 .67h-16a1.13 1.13 0 1 1 0-2.27h15.23l5.42-12.18a1.13 1.13 0 0 1 2.16.3l2.32 16.24 5.24-9.71a1.13 1.13 0 0 1 2.12.35l3.24 18.92 11.83-39.3a1.13 1.13 0 0 1 2.11-.17l6.22 12.9a1.13 1.13 0 1 1-2 1l-5-10.28L54.7 82.46a1.13 1.13 0 0 1-1.08.81M14.76 28.36c3.37 0 4.83-1.79 4.83-4.54V20.9a3.05 3.05 0 0 0-2.46-3.37 3.17 3.17 0 0 0 2.28-3.22v-1.73C19.42 9.77 18.07 8 15 8c-3.45 0-4.65 2-4.65 5v1.76h3v-2c0-1.23.38-1.93 1.43-1.93s1.43.7 1.43 1.79v2.14c0 1.05-.7 1.61-1.78 1.61h-1.22v2.55h1.41c1.17 0 1.64.56 1.64 1.61v3.27c0 1.05-.47 1.79-1.49 1.79s-1.55-.76-1.55-1.93v-2.85h-3v2.6c0 3 1.2 4.95 4.6 4.95M31.14 12.34h2v4.43h-1v-.91a1.26 1.26 0 0 1-1.33 1c-1.2 0-1.75-1-1.75-2.24v-4a2 2 0 0 1 2.09-2.24c1.54 0 2 .86 2 2.08v.73h-1.3v-.84c0-.51-.2-.81-.7-.81s-.72.35-.72.86v4.45c0 .5.21.86.69.86s.68-.26.68-.8v-1.47h-.66zM33.92 14.63v-4a2.12 2.12 0 1 1 4.22 0v4a2.12 2.12 0 1 1-4.22 0m2.83.22V10.4c0-.5-.22-.86-.72-.86s-.71.35-.71.86v4.45c0 .5.22.86.71.86s.72-.36.72-.86M38.93 14.63v-4a2.11 2.11 0 1 1 4.22 0v4a2.11 2.11 0 1 1-4.22 0m2.83.22V10.4c0-.5-.22-.86-.72-.86s-.71.35-.71.86v4.45c0 .5.22.86.71.86s.72-.36.72-.86M48.12 10.7v3.84c0 1.27-.53 2.23-2 2.23h-2.17V8.48h2.15c1.49 0 2 .94 2 2.23m-2.19 4.93c.57 0 .79-.34.79-.84v-4.35a.73.73 0 0 0-.79-.83h-.59v6zM52.94 13.11H51.6v3.66h-1.4V8.48h1.4v3.51h1.34V8.48h1.41v8.29h-1.41v-3.66zM55.14 8.48h3.33v1.13h-1.93v2.38h1.38v1.12h-1.38v2.52h1.93v1.14h-3.33V8.48zM59 16.77l1.57-8.3h1.59l1.58 8.3H62.3l-.3-1.51h-1.44l-.24 1.52zm1.75-2.63h1.11l-.55-3.33zM64.31 8.48h1.39v7.15h1.67v1.14h-3.06V8.48zM67.05 8.48h3.7v1.13h-1.14v7.16H68.2V9.61h-1.15V8.48zM74.14 13.11H72.8v3.66h-1.4V8.48h1.4v3.51h1.34V8.48h1.41v8.29h-1.41v-3.66zM28.82 28.4l1.57-8.3H32l1.58 8.3h-1.46l-.26-1.52h-1.48l-.24 1.52zm1.75-2.63h1.11l-.55-3.33zM35.3 23.18v5.21h-1.18V20.1h1.37L37 24.86V20.1h1.16v8.29h-1.22l-1.64-5.21zM43.13 22.33v3.84c0 1.27-.53 2.23-2 2.23H39v-8.3h2.15c1.49 0 2 .94 2 2.23m-2.19 4.93c.57 0 .79-.34.79-.84v-4.35a.73.73 0 0 0-.79-.83h-.59v6zM48.22 23.27l-.78 5.13h-1.31l-1.12-8.3h1.35l.65 5.26h.01l.7-5.26h1.14l.77 5.26h.01l.64-5.26h1.17l-1.08 8.3h-1.32l-.82-5.13h-.01zM52.05 20.1h3.33v1.14h-1.94v2.37h1.39v1.13h-1.39v2.52h1.94v1.14h-3.33v-8.3zM56.12 20.1h1.4v7.16h1.66v1.14h-3.06v-8.3zM59.82 20.1h1.39v7.16h1.67v1.14h-3.06v-8.3zM62.69 23.98h1.96v1.13h-1.96zM65.36 20.1h2c1.39 0 1.86.65 1.86 1.82v.84a1.21 1.21 0 0 1-.83 1.32 1.26 1.26 0 0 1 1 1.38v1.1c0 1.17-.53 1.82-1.92 1.82h-2.11zm1.4 3.5h.49a.59.59 0 0 0 .66-.67v-1a.59.59 0 0 0-.67-.67h-.48zm0 1.06v2.59h.61a.6.6 0 0 0 .69-.67v-1.24c0-.44-.21-.67-.7-.67zM70.14 20.1h3.33v1.14h-1.93v2.37h1.38v1.13h-1.38v2.52h1.93v1.14h-3.33v-8.3zM74.22 20.1h1.4v8.3h-1.4zM77.59 23.18v5.21h-1.17V20.1h1.37l1.5 4.76V20.1h1.17v8.29h-1.23l-1.64-5.21zM83.36 24h2v4.4h-1v-.9a1.26 1.26 0 0 1-1.33 1c-1.2 0-1.75-1-1.75-2.24v-4A2 2 0 0 1 83.34 20c1.54 0 2 .86 2 2.08v.73h-1.27V22c0-.51-.2-.81-.7-.81s-.72.35-.72.86v4.45c0 .5.21.86.69.86s.68-.26.68-.8v-1.49h-.66z"/>
</svg>