<svg xmlns="http://www.w3.org/2000/svg" viewBox="0 0 98.44 98.45">
  <path fill="#06578b" d="M0 0h98.44v98.45H0z"/>
  <path fill="#fff" d="M65.33 43.7a3.54 3.54 0 0 0-.68 2.51 3.54 3.54 0 0 0 1.69 2 3.53 3.53 0 0 0 .66-2.54 3.53 3.53 0 0 0-1.69-2M63.77 50.94a3.53 3.53 0 0 0 .68-2.51 3.53 3.53 0 0 0-1.69-2 3.53 3.53 0 0 0-.68 2.57 3.54 3.54 0 0 0 1.69 2M67.7 49.59a3.15 3.15 0 0 0 2.16.92 3.28 3.28 0 0 0 2-1.28 3.14 3.14 0 0 0-2.16-.92 3.28 3.28 0 0 0-2 1.28M69.35 44.15a3.8 3.8 0 0 0-.8 2.63 3.63 3.63 0 0 0 2.58-.8 3.8 3.8 0 0 0 .8-2.63 3.63 3.63 0 0 0-2.58.8M67.29 53.36a3.28 3.28 0 0 0 2.22-.85 3.14 3.14 0 0 0-1.92-1.34 3.29 3.29 0 0 0-2.22.85 3.15 3.15 0 0 0 1.93 1.34M68.31 71.77h-8.56a1.21 1.21 0 1 0 0 2.42h8.56a1.21 1.21 0 1 0 0-2.42M68.31 85.12h-8.56a1.21 1.21 0 1 0 0 2.42h8.56a1.21 1.21 0 1 0 0-2.42M29.81 68.83a5.59 5.59 0 0 0-.59-.15s.22.07.59.15"/>
  <path fill="#fff" d="M68 75h-7.94a.69.69 0 0 0-.69.69v2.4l-5.18.57-7.57-.17V73.9a21 21 0 0 0 3-.61c7.28-2.06 8.87-6.59 8.71-10.76s1.2-5.89 3.15-6.62a8.76 8.76 0 0 1 1.62-.43 13 13 0 0 0 .7 3.7h.52a12.26 12.26 0 0 1-.71-3.73 9.14 9.14 0 0 1 1.73-.05 10.94 10.94 0 0 1-1.64-1.17c.33-2 1.52-3.24 2.76-4.5a14.92 14.92 0 0 0 1.93-2.27l-.39-.32a14.35 14.35 0 0 1-1.87 2.18 8.89 8.89 0 0 0-2.83 4.48 16.11 16.11 0 0 1-1.3-1.24c-1.8-2-4.11-.53-7.4 2.54s-7.44 3.17-11.49-1c-5.34-5.47-10-5.44-13.2-5.13 2.19.93 3 3 4.06 8.17 1.16 5.45 4.08 7.91 8.09 8.26-1.86.3-2.34.56-5.32 2.62-2.33 1.61-5.61 1.1-6.93.8 2.44.76 5.33 3.32 7.91 4.21a19.21 19.21 0 0 0 4.72 1v4.42l-14.35-.31v3.09l26.1-.58 5.18.57v2.4a.69.69 0 0 0 .69.69H68a.69.69 0 0 0 .69-.69v-7.89A.69.69 0 0 0 68 75m-24.31-1h1.7v4.5h-1.7zM27.35 80.69a1.11 1.11 0 0 1-1 1.18h-.61a1.11 1.11 0 0 1-1-1.18v-2.13a1.11 1.11 0 0 1 1-1.18h.61a1.1 1.1 0 0 1 1 1.18zM7.55 11.86v3.48h.03l2.35-2.43h.03v15.2h3.33V8.26h-2.66l-3.08 3.6zM25 23.34v-2.93c0-3.25-1.29-4.89-3.69-4.89a2.85 2.85 0 0 0-2.75 1.61v-4.28c0-1.2.38-2 1.58-2s1.55.7 1.55 1.93v1.32h3V13c0-2.93-1-5-4.65-5-3.51 0-4.83 2.25-4.83 5.36V23c0 3.08 1.35 5.3 4.86 5.3s4.92-1.93 4.92-5m-3.31.29c0 1.26-.47 2-1.61 2s-1.55-.76-1.55-2V20c.06-1.11.53-1.82 1.58-1.82s1.58.7 1.58 2zM31.09 8.17h2.07c1.41 0 1.92.7 1.92 1.86v1.75c0 1.16-.51 1.87-1.92 1.87h-.67v2.82h-1.4zm1.4 1.14v3.27H33a.6.6 0 0 0 .68-.69V10c0-.45-.21-.67-.68-.67zM35.8 8.17h3.33v1.14h-1.94v2.37h1.39v1.13h-1.39v2.52h1.94v1.14H35.8v-8.3zM39.65 16.47l1.57-8.3h1.59l1.58 8.3H43l-.26-1.52h-1.52L41 16.47zm1.75-2.63h1.11L42 10.51zM44.78 14.33v-4a2 2 0 0 1 2.08-2.24c1.54 0 2 .86 2 2.08v1h-1.3V10c0-.51-.17-.81-.67-.81s-.71.35-.71.86v4.45c0 .5.21.86.71.86s.67-.32.67-.81v-1.49h1.27v1.44c0 1.19-.49 2.07-2 2.07a2 2 0 0 1-2.08-2.24M49.59 8.17h3.33v1.14h-1.94v2.37h1.39v1.13h-1.39v2.52h1.94v1.14h-3.33v-8.3zM55.09 15.24l-.71 1.88h-.78l.17-1.99h1.32v.11zM60.88 8.17v6.41a1.73 1.73 0 0 1-1.92 2c-1.44 0-1.83-.79-1.83-1.85v-1.66h1.32v1.68c0 .42.15.66.51.66s.53-.24.53-.67V8.17zM65.71 8.17v6.28c0 1.28-.55 2.12-2 2.12a1.87 1.87 0 0 1-2.08-2.12V8.17h1.39v6.41c0 .49.2.82.69.82s.68-.33.68-.82V8.17zM66.43 14.68v-1.11h1.3v1.13c0 .47.21.74.68.74s.64-.29.64-.74v-.32a1.5 1.5 0 0 0-.62-1.17l-.82-.82a2.8 2.8 0 0 1-1.16-2.21V9.9a1.73 1.73 0 0 1 2-1.82c1.4 0 1.95.68 1.95 1.89v.67h-1.32v-.73c0-.48-.22-.71-.66-.71a.61.61 0 0 0-.66.69v.17c0 .47.26.74.66 1.13l.89.88a2.79 2.79 0 0 1 1.13 2.15v.4a1.8 1.8 0 0 1-2 1.94 1.73 1.73 0 0 1-2-1.88M70.83 8.17h3.7v1.14h-1.14v7.16h-1.41V9.31h-1.15V8.17zM75.18 8.17h1.39v8.3h-1.39zM77.38 14.33v-4a2 2 0 0 1 2.08-2.24c1.54 0 2 .86 2 2.08v1h-1.3V10c0-.51-.17-.81-.67-.81s-.71.35-.71.86v4.45c0 .5.21.86.71.86s.67-.32.67-.81v-1.49h1.27v1.44c0 1.19-.49 2.07-2 2.07a2 2 0 0 1-2.08-2.24M82.19 8.17h3.33v1.14h-1.93v2.37h1.38v1.13h-1.38v2.52h1.93v1.14h-3.33v-8.3zM30.87 28.09l1.57-8.3H34l1.58 8.3h-1.41l-.26-1.52h-1.48l-.24 1.52zm1.75-2.63h1.11l-.55-3.33zM37.35 22.88v5.21h-1.17v-8.3h1.37l1.5 4.76v-4.76h1.17v8.3h-1.23l-1.64-5.21zM45.18 22v3.84c0 1.27-.53 2.23-2 2.23H41v-8.3h2.15c1.49 0 2 .94 2 2.23M43 27c.57 0 .8-.34.8-.84v-4.4a.73.73 0 0 0-.8-.83h-.59v6zM47.19 26.3v-1.11h1.3v1.14c0 .47.21.74.68.74s.64-.29.64-.74V26a1.5 1.5 0 0 0-.62-1.17l-.83-.83a2.8 2.8 0 0 1-1.16-2.2v-.28a1.73 1.73 0 0 1 2-1.82c1.4 0 1.95.68 1.95 1.89v.67h-1.32v-.72c0-.48-.22-.71-.66-.71a.61.61 0 0 0-.66.69v.17c0 .47.26.74.66 1.13l.89.88a2.79 2.79 0 0 1 1.13 2.15v.4a1.8 1.8 0 0 1-2 1.94 1.73 1.73 0 0 1-2-1.88M51.58 19.79h3.71v1.14h-1.15v7.16h-1.41v-7.16h-1.15v-1.14zM57.33 24.28v3.81h-1.4v-8.3h2c1.41 0 1.92.7 1.92 1.86v1.07c0 .89-.32 1.42-1.11 1.6l1.34 3.77h-1.44zm0-3.35v2.58h.46a.6.6 0 0 0 .69-.68V21.6c0-.45-.21-.67-.69-.67zM60.65 25.95v-4a2.11 2.11 0 1 1 4.22 0v4a2.11 2.11 0 1 1-4.22 0m2.83.22v-4.46c0-.5-.22-.86-.72-.86s-.71.35-.71.86v4.45c0 .5.22.86.71.86s.72-.35.72-.86M66.84 22.88v5.21h-1.18v-8.3h1.37l1.51 4.76v-4.76h1.16v8.3h-1.22l-1.64-5.21zM72.6 23.66h2v4.43h-1v-.9a1.26 1.26 0 0 1-1.33 1c-1.2 0-1.75-1-1.75-2.24v-4a2 2 0 0 1 2.09-2.24c1.54 0 2 .86 2 2.08v.73h-1.3v-.84c0-.51-.2-.81-.7-.81s-.72.35-.72.86v4.45c0 .5.21.86.69.86s.68-.26.68-.8v-1.48h-.66zM31.09 31.42h1.39v8.3h-1.39zM34.47 34.5v5.21h-1.18v-8.3h1.37l1.51 4.77v-4.77h1.16v8.3h-1.22l-1.64-5.21zM38.05 37.93v-1.12h1.3V38c0 .47.21.73.68.73s.64-.29.64-.73v-.32a1.5 1.5 0 0 0-.67-1.22l-.82-.82a2.8 2.8 0 0 1-1.16-2.21v-.28a1.73 1.73 0 0 1 2-1.82c1.4 0 1.95.68 1.95 1.88v.67h-1.28v-.72c0-.48-.22-.71-.66-.71a.61.61 0 0 0-.66.69v.17c0 .46.26.73.66 1.13l.89.88a2.79 2.79 0 0 1 1.13 2.15v.4a1.8 1.8 0 0 1-2 1.94 1.73 1.73 0 0 1-2-1.88M42.44 31.42h3.71v1.13H45v7.16h-1.41v-7.16h-1.15v-1.13zM46.8 31.42h1.39v8.3H46.8zM48.84 31.42h3.71v1.13H51.4v7.16h-1.41v-7.16h-1.15v-1.13zM57.25 31.42v6.28c0 1.29-.55 2.12-2 2.12a1.87 1.87 0 0 1-2.08-2.12v-6.28h1.39v6.41c0 .49.2.82.69.82s.68-.33.68-.82v-6.41zM57.88 31.42h3.71v1.13h-1.15v7.16h-1.41v-7.16h-1.15v-1.13zM62.24 31.42h1.39v8.3h-1.39zM64.44 37.57v-4a2.11 2.11 0 1 1 4.22 0v4a2.11 2.11 0 1 1-4.22 0m2.83.22v-4.45c0-.5-.22-.86-.72-.86s-.71.35-.71.86v4.45c0 .5.22.86.71.86s.72-.36.72-.86M70.63 34.5v5.21h-1.18v-8.3h1.38l1.5 4.77v-4.77h1.16v8.3h-1.22l-1.64-5.21zM74.21 37.93v-1.12h1.3V38c0 .47.21.73.68.73s.64-.29.64-.73v-.32a1.5 1.5 0 0 0-.62-1.17l-.82-.82a2.8 2.8 0 0 1-1.16-2.21v-.28a1.73 1.73 0 0 1 2-1.82c1.4 0 1.95.68 1.95 1.88v.67h-1.32v-.72c0-.48-.22-.71-.66-.71a.61.61 0 0 0-.66.69v.17c0 .46.26.73.66 1.13l.89.88a2.79 2.79 0 0 1 1.13 2.15v.4a1.8 1.8 0 0 1-2 1.94 1.73 1.73 0 0 1-2-1.88"/>
</svg>