<svg xmlns="http://www.w3.org/2000/svg" viewBox="0 0 98.44 98.45">
  <path fill="#40ae49" d="M0 0h98.44v98.45H0z"/>
  <rect width="3.34" height="7.6" x="38.3" y="66.56" fill="#fff" rx=".22" ry=".22"/>
  <path fill="#fff" d="M73.27 77.24h-47.8a.22.22 0 0 0-.22.22v2.92a.22.22 0 0 0 .22.21h47.8a.22.22 0 0 0 .22-.21v-2.91a.23.23 0 0 0-.22-.22M73.27 83h-47.8a.22.22 0 0 0-.22.22v2.98a.22.22 0 0 0 .22.21h47.8a.22.22 0 0 0 .22-.21v-2.94a.22.22 0 0 0-.22-.22M64.17 58.63A7.07 7.07 0 0 0 60 57.07a5.53 5.53 0 0 0-3.8 1.63.41.41 0 0 0-.13.3v.26a.42.42 0 0 0 .14.33.39.39 0 0 0 .34.08h.09a.65.65 0 0 0 .24-.15 3.86 3.86 0 0 1 1.92-.4 7.23 7.23 0 0 1 4.92 2.07.57.57 0 0 0 .42.17.57.57 0 0 0 .4-.17 7.25 7.25 0 0 1 4.93-2.07 3.85 3.85 0 0 1 1.92.4.71.71 0 0 0 .27.16.58.58 0 0 0 .28 0 .41.41 0 0 0 .3-.39V59a.41.41 0 0 0-.13-.3 5.54 5.54 0 0 0-3.89-1.68 7 7 0 0 0-4.13 1.56M61.21 39.57a.4.4 0 0 0-.21.25V40a.41.41 0 0 0 .06.36.39.39 0 0 0 .29.16h.06a.5.5 0 0 0 .23-.06 1.26 1.26 0 0 1 .29 0 4.15 4.15 0 0 1 3.42 2.23.49.49 0 0 0 .3.25h.15a.51.51 0 0 0 .24-.06 4.74 4.74 0 0 1 2.13-.53 3.24 3.24 0 0 1 2.18.7.56.56 0 0 0 .16.18l.15.07h.11a.41.41 0 0 0 .19 0 .4.4 0 0 0 .2-.24v-.14a.37.37 0 0 0 0-.12.4.4 0 0 0-.05-.21 3.6 3.6 0 0 0-3.24-1.95 5.1 5.1 0 0 0-1.72.32A4.18 4.18 0 0 0 63 39.12a4 4 0 0 0-1.79.45M51.11 46.93v.22a.4.4 0 0 0 .19.32.4.4 0 0 0 .32 0h.07a.52.52 0 0 0 .21-.15 3.5 3.5 0 0 1 1.82-.41 5.91 5.91 0 0 1 3.78 1.43.57.57 0 0 0 .37.14.55.55 0 0 0 .38-.18 5.74 5.74 0 0 1 4.19-1.94 2.84 2.84 0 0 1 1.25.23.64.64 0 0 0 .25.13.55.55 0 0 0 .18 0h.1a.41.41 0 0 0 .27-.41v-.19a.4.4 0 0 0-.14-.28 4.68 4.68 0 0 0-3.06-1.2 5.7 5.7 0 0 0-3.58 1.48 6 6 0 0 0-3.19-1.06 4.56 4.56 0 0 0-3.39 1.57.42.42 0 0 0-.11.31M26.92 50.77a5.18 5.18 0 0 1 5.18-5.18h.33a7 7 0 1 1 13.29 3.59A7.83 7.83 0 0 1 44 64.67l-10.46-.06a5.54 5.54 0 0 1-4-9.35 5.18 5.18 0 0 1-2.61-4.49M6.97 11.84v3.49H7l2.34-2.44h.03v15.2h3.34V8.24h-2.67l-3.07 3.6zM20.64 14.54a3 3 0 0 0-2.81 1.38V11h5.74V8.24h-8.81v11.19h3V19c0-1.17.53-1.81 1.46-1.81s1.43.7 1.43 1.79v4.8c0 1.05-.38 1.79-1.41 1.79s-1.55-.76-1.55-1.93v-2.52h-3v2.26c0 3 1.2 4.95 4.6 4.95S24 26.54 24 23.79v-4.86c0-3.13-1.61-4.39-3.4-4.39M31.21 8.17h1.4v7.16h1.66v1.14h-3.06v-8.3zM34.91 8.17h1.4v8.3h-1.4zM37.11 8.17h3.27v1.14h-1.87v2.37h1.39v1.13h-1.39v3.66h-1.4v-8.3zM40.99 8.17h3.33v1.14h-1.94v2.37h1.39v1.13h-1.39v2.52h1.94v1.14h-3.33v-8.3zM31.21 25.95v-4a2.12 2.12 0 1 1 4.22 0v4a2.12 2.12 0 1 1-4.22 0m2.83.22v-4.46c0-.5-.22-.86-.72-.86s-.71.35-.71.86v4.45c0 .5.22.86.71.86s.72-.35.72-.86M37.4 22.88v5.21h-1.17v-8.3h1.37l1.5 4.76v-4.76h1.17v8.3h-1.23l-1.64-5.21zM43.63 19.79h1.4v7.16h1.66v1.14h-3.06v-8.3zM47.11 28.09l1.57-8.3h1.59l1.58 8.3h-1.44l-.26-1.52h-1.48l-.24 1.52zm1.75-2.63H50l-.55-3.33zM53.59 22.88v5.21h-1.18v-8.3h1.37l1.51 4.76v-4.76h1.16v8.3h-1.22l-1.64-5.21zM61.42 22v3.84c0 1.27-.53 2.23-2 2.23h-2.17v-8.3h2.15c1.49 0 2 .94 2 2.23m-2.17 5c.57 0 .79-.34.79-.84v-4.4a.73.73 0 0 0-.79-.83h-.59v6z"/>
</svg>
