<svg xmlns="http://www.w3.org/2000/svg" viewBox="0 0 98.44 98.44">
  <path fill="#c22033" d="M0 0h98.44v98.44H0z"/>
  <path fill="#fff" d="M43.67 52.78L26.01 42.59v32.98l17.66 5.32V52.78zM45.61 52.85v28.06l17.77-5.35V42.59L45.61 52.85zM73.58 74.98h-.52l2.09 7.3 2.09-7.3h-.52.52V45.64h-4.18v29.34h.52z"/>
  <path fill="#fff" d="M67.17 44.01l-1.89-1.5v33.95L45.66 82.8H43.67l-19.53-5.45V42.51l-1.9 1.5v34.66l21.34 5.91h2.17l19.68-6.25 1.74-.51V44.01zM77.24 41.75a2.09 2.09 0 1 0-4.18 0V44h4.18zM15.44 28.1h3.16v-3.22h1.35v-2.61H18.6v-14h-3.28L9.55 22.83v2h5.88zm-3-5.82l3-8.17v8.17zM30.61 17.34v-.56A1.91 1.91 0 0 1 29 14.63v-4a2.11 2.11 0 1 1 4.22 0v4a2 2 0 0 1-1 2l1 .2v1zm1.24-2.41V10.4c0-.5-.22-.86-.72-.86s-.71.36-.71.86v4.53c0 .49.22.86.71.86s.72-.37.72-.86M38.08 8.48v6.28c0 1.28-.55 2.12-2 2.12A1.87 1.87 0 0 1 34 14.76V8.48h1.39v6.41c0 .49.2.82.69.82s.68-.33.68-.82V8.48zM38.48 16.78L40 8.48h1.59l1.58 8.3h-1.39l-.26-1.52H40l-.24 1.52zm1.75-2.63h1.11l-.55-3.33zM43.78 8.48h1.4v7.16h1.66v1.14h-3.06v-8.3zM47.48 8.48h1.39v8.3h-1.39zM49.52 8.48h3.71v1.14h-1.15v7.16h-1.41V9.62h-1.15V8.48zM56.6 13.62v3.16h-1.4v-3.16l-1.55-5.14h1.45l.85 3.14h.01l.84-3.14h1.34l-1.54 5.14zM29.02 20.1h3.33v1.14h-1.94v2.37h1.39v1.13h-1.39v2.52h1.94v1.14h-3.33v-8.3zM37.27 22.33v3.84c0 1.27-.53 2.23-2 2.23h-2.18v-8.3h2.15c1.49 0 2 .94 2 2.23m-2.19 4.93c.57 0 .79-.34.79-.84v-4.35a.73.73 0 0 0-.79-.83h-.59v6zM42.11 20.1v6.28c0 1.28-.55 2.12-2 2.12a1.87 1.87 0 0 1-2.08-2.12V20.1h1.39v6.41c0 .49.2.82.69.82s.68-.33.68-.82V20.1zM42.9 26.26v-4A2 2 0 0 1 45 20c1.54 0 2 .86 2 2.08v1h-1.32V22c0-.51-.17-.81-.67-.81s-.71.35-.71.86v4.45c0 .5.21.86.71.86s.67-.32.67-.81V25H47v1.43c0 1.19-.49 2.07-2 2.07a2 2 0 0 1-2.08-2.24M47.37 28.4l1.57-8.3h1.59l1.58 8.3h-1.44l-.26-1.52h-1.47l-.24 1.52zm1.75-2.63h1.11l-.55-3.33zM51.91 20.1h3.71v1.14h-1.15v7.16h-1.41v-7.16h-1.15V20.1zM56.27 20.1h1.39v8.3h-1.39zM58.47 26.26v-4a2.11 2.11 0 1 1 4.22 0v4a2.11 2.11 0 1 1-4.22 0m2.83.22V22c0-.5-.22-.86-.72-.86s-.71.35-.71.86v4.45c0 .5.22.86.71.86s.72-.36.72-.86M64.66 23.18v5.22h-1.18v-8.3h1.37l1.51 4.76V20.1h1.16v8.3H66.3l-1.64-5.22z"/>
</svg>
