<svg xmlns="http://www.w3.org/2000/svg" viewBox="0 0 98.44 98.44">
  <path fill="#f3733c" d="M0 0h98.44v98.44H0z"/>
  <path fill="#fff" d="M75 64.7L63.34 58V44.44a.8.8 0 0 0-.4-.69l-12.1-7a.8.8 0 0 0-.8 0l-12.1 7a.8.8 0 0 0-.4.69V58l-11.7 6.7a.8.8 0 0 0-.4.69v14a.8.8 0 0 0 .4.69l12.1 7a.8.8 0 0 0 .8 0l11.7-6.75L62.14 87a.8.8 0 0 0 .8 0l12.1-7a.8.8 0 0 0 .4-.69v-14a.8.8 0 0 0-.4-.69M49.65 78l-9.71-5.6 9.71-5.6zm11.3-19.57L51.24 64V52.81zM49.65 64l-9.71-5.6 9.71-5.6zM52 65.4l10.5-6.06L73 65.4l-10.46 6.06zm9.74-8.4L52 51.42l9.7-5.6zm-12.9-5.6l-9.7 5.6V45.82zM37.54 85L27 78.91V66.78l10.5 6.07zm1.6 0V73.76l9.7 5.61zm34.7-6.06L63.34 85V72.84l10.51-6.07zM18.7 13.24c0-3.07-1.35-5.3-4.86-5.3S8.93 9.88 8.93 13v2.93c0 3.25 1.29 4.89 3.69 4.89a2.85 2.85 0 0 0 2.75-1.61v4.27c0 1.2-.47 2-1.67 2s-1.64-.7-1.64-1.93v-1.32H9v1.05c0 2.92 1.05 5 4.74 5 3.51 0 4.92-2.25 4.92-5.35zm-3.31 3c-.06 1.11-.53 1.81-1.58 1.81s-1.58-.7-1.58-2v-3.39c0-1.26.47-2 1.61-2s1.55.76 1.55 2zM23.52 8.27h1.4v8.3h-1.4zM26.54 11.35v5.22h-1.18v-8.3h1.38l1.5 4.76V8.27h1.16v8.3h-1.22l-1.64-5.22zM34 10.5v3.84c0 1.27-.53 2.23-2 2.23h-2.16v-8.3H32c1.49 0 2 .94 2 2.23m-2.19 4.93c.57 0 .79-.34.79-.84v-4.35a.73.73 0 0 0-.79-.83h-.59v6zM38.51 8.27v6.28c0 1.28-.55 2.11-2 2.11a1.87 1.87 0 0 1-2.08-2.11V8.27h1.4v6.41c0 .49.2.82.69.82s.68-.33.68-.82V8.27zM38.87 14.78v-1.11h1.3v1.13c0 .47.21.73.68.73s.64-.29.64-.73v-.32a1.5 1.5 0 0 0-.62-1.17l-.87-.82a2.8 2.8 0 0 1-1.16-2.21V10a1.73 1.73 0 0 1 2-1.82c1.4 0 1.95.69 1.95 1.89v.67h-1.28V10c0-.48-.22-.71-.66-.71a.61.61 0 0 0-.66.68v.17c0 .46.26.73.66 1.13l.89.88a2.78 2.78 0 0 1 1.13 2.15v.4a1.8 1.8 0 0 1-2 1.94 1.73 1.73 0 0 1-2-1.88M42.91 8.27h3.71v1.14h-1.15v7.16h-1.41V9.41h-1.15V8.27zM48.3 12.76v3.81h-1.4v-8.3h2c1.41 0 1.92.7 1.92 1.86v1.07c0 .89-.32 1.42-1.11 1.6l1.33 3.77h-1.43zm0-3.35V12h.46a.6.6 0 0 0 .68-.68v-1.24c0-.45-.21-.67-.68-.67zM53.8 13.41v3.16h-1.4v-3.16l-1.55-5.14h1.45l.85 3.14h.01l.85-3.14h1.33l-1.54 5.14zM56.18 15.34l-.71 1.87h-.78l.17-1.98h1.32v.11zM57.55 8.27h1.4v8.3h-1.4zM60.58 11.35v5.22H59.4v-8.3h1.37l1.51 4.76V8.27h1.16v8.3h-1.22l-1.64-5.22zM65.05 11.35v5.22h-1.17v-8.3h1.37l1.5 4.76V8.27h1.17v8.3h-1.23l-1.64-5.22zM68.36 14.42v-4a2.12 2.12 0 1 1 4.22 0v4a2.12 2.12 0 1 1-4.22 0m2.83.22v-4.45c0-.5-.22-.86-.72-.86s-.71.35-.71.86v4.45c0 .5.22.86.71.86s.72-.36.72-.86M77.24 8.27l-1.58 8.3h-1.52l-1.58-8.3h1.42l.96 5.79h.01l.98-5.79h1.31zM76.5 16.57l1.57-8.3h1.59l1.58 8.3h-1.43L79.55 15h-1.48l-.24 1.52zm1.75-2.63h1.11l-.55-3.33zM80.69 8.27h3.71v1.14h-1.15v7.16h-1.41V9.41h-1.15V8.27zM84.69 8.27h1.4v8.3h-1.4zM86.54 14.42v-4a2.11 2.11 0 1 1 4.22 0v4a2.11 2.11 0 1 1-4.22 0m2.83.22v-4.45c0-.5-.22-.86-.72-.86s-.71.35-.71.86v4.45c0 .5.22.86.71.86s.72-.36.72-.86M92.37 11.35v5.22H91.2v-8.3h1.37l1.5 4.76V8.27h1.17v8.3h-1.23l-1.64-5.22zM23.3 28.19l1.57-8.3h1.59l1.54 8.3h-1.4l-.26-1.52h-1.48l-.24 1.52zm1.7-2.63h1.11l-.55-3.33zM29.43 22.98v5.21h-1.18v-8.3h1.37l1.51 4.76v-4.76h1.16v8.3h-1.22l-1.64-5.21zM36.9 22.12V26c0 1.27-.53 2.23-2 2.23h-2.17v-8.3h2.15c1.49 0 2 .94 2 2.23m-2.19 4.93c.57 0 .79-.34.79-.84v-4.39a.73.73 0 0 0-.79-.83h-.59v6zM38.27 19.89h1.4v8.3h-1.4zM41.29 22.98v5.21h-1.17v-8.3h1.37l1.5 4.76v-4.76h1.17v8.3h-1.23l-1.64-5.21zM44.6 19.89h3.26v1.14h-1.87v2.37h1.4v1.13h-1.4v3.66H44.6v-8.3zM49.52 24.38v3.81h-1.4v-8.3h2c1.41 0 1.92.7 1.92 1.86v1.07c0 .89-.32 1.42-1.11 1.6l1.33 3.77h-1.44zm0-3.35v2.58H50a.6.6 0 0 0 .68-.68V21.7c0-.45-.21-.67-.68-.67z"/>
  <path fill="#fff" d="M52.26 28.19l1.57-8.3h1.59l1.58 8.3h-1.44l-.26-1.52h-1.48l-.24 1.52zM54 25.56h1.11l-.55-3.33zM57 26.4v-1.11h1.3v1.14c0 .47.21.73.68.73s.64-.29.64-.73v-.32a1.5 1.5 0 0 0-.62-1.18l-.82-.82A2.8 2.8 0 0 1 57 21.9v-.28a1.73 1.73 0 0 1 2-1.82c1.4 0 1.95.68 1.95 1.89v.67h-1.29v-.72c0-.48-.22-.71-.66-.71a.61.61 0 0 0-.66.69v.17c0 .46.26.73.66 1.13l.89.88A2.78 2.78 0 0 1 61 25.94v.4a1.8 1.8 0 0 1-2 1.94 1.73 1.73 0 0 1-2-1.88M61.05 19.89h3.71v1.14h-1.15v7.16H62.2v-7.16h-1.15v-1.14zM66.45 24.38v3.81h-1.4v-8.3h2c1.41 0 1.92.7 1.92 1.86v1.07c0 .89-.32 1.42-1.11 1.6l1.33 3.77h-1.43zm0-3.35v2.58h.46a.6.6 0 0 0 .68-.68V21.7c0-.45-.21-.67-.68-.67zM73.46 19.89v6.28c0 1.28-.55 2.12-2 2.12a1.87 1.87 0 0 1-2.08-2.12v-6.28h1.4v6.41c0 .49.2.82.69.82s.68-.33.68-.82v-6.41zM73.9 26v-4a2 2 0 0 1 2.1-2.21c1.54 0 2 .86 2 2.08v1h-1.32v-1.11c0-.52-.17-.81-.67-.81s-.71.35-.71.86v4.45c0 .5.21.86.71.86s.67-.32.67-.81v-1.52h1.27v1.43c0 1.19-.49 2.07-2 2.07A2 2 0 0 1 73.9 26M78.07 19.89h3.71v1.14h-1.15v7.16h-1.41v-7.16h-1.15v-1.14zM86.12 19.89v6.28c0 1.28-.55 2.12-2 2.12a1.87 1.87 0 0 1-2.08-2.12v-6.28h1.4v6.41c0 .49.2.82.69.82s.68-.33.68-.82v-6.41zM88 24.38v3.81h-1.4v-8.3h2c1.41 0 1.92.7 1.92 1.86v1.07c0 .89-.32 1.42-1.11 1.6l1.33 3.77h-1.48zM88 21v2.58h.46a.6.6 0 0 0 .68-.68v-1.2c0-.45-.21-.67-.68-.67zM90.92 19.89h3.33v1.14h-1.94v2.37h1.38v1.13h-1.38v2.52h1.94v1.14h-3.33v-8.3z"/>
</svg>