<svg xmlns="http://www.w3.org/2000/svg" viewBox="0 0 98.44 98.45">
  <path fill="#007dbb" d="M0 0h98.44v98.45H0z"/>
  <path fill="#fff" d="M75.51 71.83C74.27 70.15 66.27 60 55 60c-9.74 0-20.16 8.84-20.16 8.84S31 60.77 23 60h-.2a.33.33 0 0 0-.31.32.9.9 0 0 0 .13.29c1 1.71 3.67 6.59 3.67 11.46s-2.65 9.78-3.67 11.48l-.07.11a.31.31 0 0 0 .25.48h.17c8-.75 12-8.79 12-8.79S45.31 84.18 55 84.18c11.22 0 19.22-10.2 20.46-11.87l.08-.11a.33.33 0 0 0 0-.12.31.31 0 0 0 0-.12l-.08-.12m-14.17 1.51a3.27 3.27 0 1 1 3.28-3.27 3.28 3.28 0 0 1-3.28 3.27M34.15 50.81a.38.38 0 0 1 .08-.09.34.34 0 0 1 .18-.06.31.31 0 0 1 .22.09c6.12 5.83 12.53 1.1 13.87 0l.13-.12h.25l.13.12c1.33 1.1 7.75 5.83 13.87 0a.31.31 0 0 1 .22-.09.32.32 0 0 1 .18.06.38.38 0 0 1 .09.09c1.18 1.17 6.31 5.58 11.73.87a.32.32 0 0 0 .1-.23v-2.24a.32.32 0 0 0-.32-.32h-.07l-.16.08a9.87 9.87 0 0 1-11.52-1.61l-.13-.12a.25.25 0 0 0-.14 0h-.1a.27.27 0 0 0-.16.12c-1.4 1.06-7.81 5.41-13.53.08l-.07-.1a.33.33 0 0 0-.23-.09.31.31 0 0 0-.22.09l-.09.08c-5.71 5.33-12.13 1-13.53-.08a.26.26 0 0 0-.16-.12h-.1a.26.26 0 0 0-.13 0l-.14.13A9.86 9.86 0 0 1 22.87 49l-.17-.08h-.06a.32.32 0 0 0-.32.32v2.24a.31.31 0 0 0 .09.23c5.42 4.71 10.55.3 11.73-.87M22.71 40.77h-.06a.32.32 0 0 0-.32.33v2.23a.31.31 0 0 0 .09.23c5.42 4.71 10.54.3 11.73-.87a.31.31 0 0 1 .08-.09.33.33 0 0 1 .18-.06.32.32 0 0 1 .22.09c6.12 5.84 12.53 1.11 13.87 0l.13-.12a.28.28 0 0 1 .12 0 .29.29 0 0 1 .13 0l.13.12c1.33 1.11 7.75 5.84 13.87 0a.31.31 0 0 1 .4 0 .34.34 0 0 1 .09.09c1.19 1.17 6.31 5.57 11.73.87a.32.32 0 0 0 .09-.23v-2.28a.32.32 0 0 0-.32-.33h-.07l-.16.09a9.86 9.86 0 0 1-11.52-1.62l-.12-.11a.33.33 0 0 0-.14 0h-.1a.36.36 0 0 0-.16.13c-1.4 1.07-7.81 5.41-13.53.08l-.07-.1a.36.36 0 0 0-.23-.1.34.34 0 0 0-.22.1l-.09.08c-5.71 5.33-12.13 1-13.53-.08a.36.36 0 0 0-.16-.13h-.1a.36.36 0 0 0-.13 0l-.14.13a9.86 9.86 0 0 1-11.52 1.62l-.16-.09M12.76 8.28v19.84H9.42V12.94h-.03l-2.34 2.42h-.03v-3.48l3.07-3.6h2.67zM22.91 28.13v-3.22h1.35V22.3h-1.35v-14h-3.28l-5.76 14.56v2.05h5.88v3.22zm-6.12-5.83l3-8.17v8.17zM32.08 8.17h1.4v7.16h1.66v1.14h-3.06v-8.3zM35.77 8.17h1.4v8.3h-1.4zM37.98 8.17h3.26v1.14h-1.87v2.37h1.4v1.13h-1.4v3.66h-1.39v-8.3zM41.85 8.17h3.33v1.14h-1.93v2.37h1.38v1.13h-1.38v2.52h1.93v1.14h-3.33v-8.3zM32.08 19.79h2c1.39 0 1.86.65 1.86 1.82v.84a1.21 1.21 0 0 1-.83 1.32 1.26 1.26 0 0 1 1 1.38v1.1c0 1.18-.53 1.82-1.92 1.82h-2.11zm1.4 3.5H34a.59.59 0 0 0 .66-.67v-1a.59.59 0 0 0-.67-.67h-.48zm0 1.06V27h.61a.6.6 0 0 0 .69-.67V25c0-.44-.21-.67-.7-.67zM36.86 19.79h3.33v1.14h-1.93v2.37h1.38v1.13h-1.38v2.52h1.93v1.14h-3.33v-8.3zM40.94 19.79h1.39v7.16H44v1.14h-3.06v-8.3zM44.57 25.95v-4a2.12 2.12 0 1 1 4.22 0v4a2.12 2.12 0 1 1-4.22 0m2.83.22v-4.46c0-.5-.22-.86-.72-.86s-.71.35-.71.86v4.45c0 .5.22.86.71.86s.72-.35.72-.86M52.48 22.96l-.79 5.13h-1.31l-1.11-8.3h1.35l.64 5.26h.02l.69-5.26h1.14l.77 5.26h.01l.64-5.26h1.18l-1.08 8.3h-1.32l-.82-5.13h-.01zM60.6 22.96l-.78 5.13h-1.31l-1.12-8.3h1.35l.65 5.26h.01l.7-5.26h1.13l.78 5.26h.01l.64-5.26h1.17l-1.08 8.3h-1.32l-.82-5.13h-.01zM63.72 28.09l1.57-8.3h1.59l1.58 8.3H67l-.26-1.52h-1.46L65 28.09zm1.75-2.63h1.11L66 22.13zM68.26 19.79h3.71v1.14h-1.16v7.16h-1.4v-7.16h-1.15v-1.14zM72.61 19.79h3.33v1.14h-1.93v2.37h1.38v1.13h-1.38v2.52h1.93v1.14h-3.33v-8.3zM78.08 24.28v3.81h-1.4v-8.3h2c1.41 0 1.92.7 1.92 1.86v1.07c0 .89-.32 1.42-1.11 1.6l1.33 3.77h-1.43zm0-3.35v2.58h.46a.6.6 0 0 0 .68-.68V21.6c0-.45-.21-.67-.68-.67z"/>
</svg>
