<svg xmlns="http://www.w3.org/2000/svg" viewBox="0 0 98.44 98.44">
  <path fill="#f99d25" d="M0 0h98.44v98.44H0z"/>
  <path fill="#fff" d="M16.91 74.95h14.81a.37.37 0 0 0 .36-.36.36.36 0 0 0-.1-.24l-7.38-9.56-.07-.08a.36.36 0 0 0-.51 0v.05l-.07.08-7.19 9.43-.11.13a.36.36 0 0 0-.06.2.36.36 0 0 0 .36.36M31.68 76.29H16.84a.36.36 0 0 0-.36.36v11.61a.36.36 0 0 0 .36.36h4.78v-7.3A.36.36 0 0 1 22 81h4.43a.36.36 0 0 1 .36.36v7.3h4.9a.36.36 0 0 0 .36-.36V76.65a.36.36 0 0 0-.36-.36M83 73.25H68.27a.35.35 0 0 0-.36.35v14.83a.35.35 0 0 0 .36.35H83a.35.35 0 0 0 .36-.35V73.6a.35.35 0 0 0-.36-.35m-8 9.68a.35.35 0 0 1-.36.35h-4.47a.36.36 0 0 1-.36-.35v-2.67a.35.35 0 0 1 .36-.35h4.39a.35.35 0 0 1 .36.35zM75 78a.35.35 0 0 1-.36.35h-4.47a.36.36 0 0 1-.36-.35v-2.67a.35.35 0 0 1 .36-.35h4.39a.35.35 0 0 1 .36.35zm6.71 4.93a.36.36 0 0 1-.36.35h-4.47a.36.36 0 0 1-.36-.35v-2.67a.35.35 0 0 1 .36-.35h4.39a.35.35 0 0 1 .36.35zm0-4.93a.36.36 0 0 1-.36.35h-4.47a.36.36 0 0 1-.36-.35v-2.67a.35.35 0 0 1 .36-.35h4.39a.35.35 0 0 1 .36.35zM48.82 38.83H34.45a.35.35 0 0 0-.35.35V88.3a.35.35 0 0 0 .35.35h14.37a.35.35 0 0 0 .35-.35V39.18a.35.35 0 0 0-.35-.35m-8.55 44.22a.19.19 0 0 1-.19.19h-3.29a.19.19 0 0 1-.19-.19v-3.67a.19.19 0 0 1 .19-.19h3.29a.19.19 0 0 1 .19.19zm0-8.42a.19.19 0 0 1-.19.19h-3.29a.19.19 0 0 1-.19-.19V71a.19.19 0 0 1 .19-.19h3.29a.19.19 0 0 1 .19.19zm0-8.42a.19.19 0 0 1-.19.19h-3.29a.19.19 0 0 1-.19-.19v-3.67a.19.19 0 0 1 .19-.19h3.29a.19.19 0 0 1 .19.19zm0-8.42a.19.19 0 0 1-.19.19h-3.29a.19.19 0 0 1-.19-.19v-3.67a.19.19 0 0 1 .19-.19h3.29a.19.19 0 0 1 .19.19zm0-8.42a.19.19 0 0 1-.19.19h-3.29a.19.19 0 0 1-.19-.19V45.7a.19.19 0 0 1 .19-.19h3.29a.19.19 0 0 1 .19.19zm6.45 33.68a.19.19 0 0 1-.19.19h-3.29a.19.19 0 0 1-.19-.19v-3.67a.19.19 0 0 1 .19-.19h3.29a.19.19 0 0 1 .19.19zm0-8.42a.19.19 0 0 1-.19.19h-3.29a.19.19 0 0 1-.19-.19V71a.19.19 0 0 1 .19-.19h3.29a.19.19 0 0 1 .19.19zm0-8.42a.19.19 0 0 1-.19.19h-3.29a.19.19 0 0 1-.19-.19v-3.67a.19.19 0 0 1 .19-.19h3.29a.19.19 0 0 1 .19.19zm0-8.42a.19.19 0 0 1-.19.19h-3.29a.19.19 0 0 1-.19-.19v-3.67a.19.19 0 0 1 .19-.19h3.29a.19.19 0 0 1 .19.19zm0-8.42a.19.19 0 0 1-.19.19h-3.29a.19.19 0 0 1-.19-.19V45.7a.19.19 0 0 1 .19-.19h3.29a.19.19 0 0 1 .19.19zM68.22 68.51H83a.29.29 0 0 1 .29.29v3a.29.29 0 0 1-.29.29H68.22a.3.3 0 0 1-.3-.3v-3a.3.3 0 0 1 .3-.28zM66.18 48.1a.38.38 0 0 0-.36-.27.37.37 0 0 0-.21.07l-.12.15L51.34 66l-.06.09a.41.41 0 0 0-.12.28v22a.35.35 0 0 0 .35.35h14.35a.35.35 0 0 0 .35-.35V48.25a.34.34 0 0 0 0-.15m-5.95 9.73l.1-.13c1-1.24 2.6-3.24 3.39-4.22l.1-.12a.41.41 0 0 1 .32-.15.4.4 0 0 1 .39.33v4.53a.41.41 0 0 1-.39.4h-3.6a.41.41 0 0 1-.31-.65M58 82.93a.35.35 0 0 1-.35.35h-4.29a.35.35 0 0 1-.35-.35v-2.68a.35.35 0 0 1 .35-.35h4.28a.35.35 0 0 1 .35.35zm0-5a.35.35 0 0 1-.35.35h-4.29A.35.35 0 0 1 53 78v-2.71a.35.35 0 0 1 .35-.35h4.28a.35.35 0 0 1 .35.35zm0-5a.35.35 0 0 1-.35.35h-4.29A.35.35 0 0 1 53 73v-2.66a.35.35 0 0 1 .35-.35h4.28a.35.35 0 0 1 .35.35zm0-10.86v5.91a.35.35 0 0 1-.35.35h-4.28a.35.35 0 0 1-.35-.35v-.74a.38.38 0 0 1 0-.13v-.06c.55-.78 3-3.83 4.06-5.1l.1-.12a.41.41 0 0 1 .32-.15.4.4 0 0 1 .5.32zm6.54 20.76a.35.35 0 0 1-.35.35h-4.28a.35.35 0 0 1-.35-.35v-2.58a.35.35 0 0 1 .35-.35h4.28a.35.35 0 0 1 .35.35zm0-5a.35.35 0 0 1-.35.35h-4.28a.35.35 0 0 1-.35-.35v-2.54a.35.35 0 0 1 .35-.35h4.28a.35.35 0 0 1 .35.35zm0-5a.35.35 0 0 1-.35.35h-4.28a.35.35 0 0 1-.35-.35v-2.49a.35.35 0 0 1 .35-.35h4.28a.35.35 0 0 1 .35.35zm0-5a.35.35 0 0 1-.35.35h-4.28a.35.35 0 0 1-.35-.35v-2.45a.35.35 0 0 1 .35-.35h4.28a.35.35 0 0 1 .35.35zm0-5a.35.35 0 0 1-.35.35h-4.28a.35.35 0 0 1-.35-.35v-2.4a.35.35 0 0 1 .35-.35h4.28a.35.35 0 0 1 .35.35zM7.03 11.85v3.49h.03L9.4 12.9h.03v15.2h3.34V8.25h-2.66l-3.08 3.6zM14.64 11.85v3.49h.03l2.35-2.44h.02v15.2h3.34V8.25h-2.66l-3.08 3.6zM27.26 14.78v-1.11h1.3v1.13c0 .47.21.73.68.73s.64-.29.64-.73v-.32a1.5 1.5 0 0 0-.62-1.17l-.82-.82a2.8 2.8 0 0 1-1.16-2.21V10a1.73 1.73 0 0 1 2-1.82c1.4 0 1.95.69 1.95 1.89v.67H29.9V10c0-.48-.22-.71-.66-.71a.61.61 0 0 0-.66.68v.17c0 .46.26.73.66 1.13l.89.88a2.78 2.78 0 0 1 1.13 2.15v.4a1.8 1.8 0 0 1-2 1.94 1.73 1.73 0 0 1-2-1.88M35.91 8.27v6.28c0 1.28-.55 2.11-2 2.11a1.87 1.87 0 0 1-2.08-2.11V8.27h1.4v6.41c0 .49.2.82.68.82s.68-.33.68-.82V8.27zM36.5 14.78v-1.11h1.3v1.13c0 .47.21.73.68.73s.64-.29.64-.73v-.32a1.5 1.5 0 0 0-.62-1.17l-.82-.82a2.8 2.8 0 0 1-1.16-2.21V10a1.73 1.73 0 0 1 2-1.82c1.4 0 1.95.69 1.95 1.89v.67h-1.33V10c0-.48-.22-.71-.66-.71a.61.61 0 0 0-.66.68v.17c0 .46.26.73.66 1.13l.89.88a2.79 2.79 0 0 1 1.13 2.15v.4a1.8 1.8 0 0 1-2 1.94 1.73 1.73 0 0 1-2-1.88M40.75 8.27h3.71v1.14h-1.15v7.16H41.9V9.41h-1.15V8.27zM44.14 16.57l1.57-8.3h1.59l1.58 8.3h-1.43L47.19 15h-1.48l-.24 1.52zm1.75-2.63H47l-.55-3.33zM49.32 8.27h1.4v8.3h-1.4zM52.56 11.35v5.22h-1.17v-8.3h1.37l1.5 4.76V8.27h1.16v8.3H54.2l-1.64-5.22zM55.86 16.57l1.57-8.3H59l1.58 8.3h-1.41L58.91 15h-1.48l-.24 1.52zm1.75-2.63h1.11l-.55-3.33zM61 8.27h2c1.39 0 1.86.65 1.86 1.82v.84a1.21 1.21 0 0 1-.83 1.32 1.26 1.26 0 0 1 1 1.38v1.1c0 1.17-.53 1.82-1.92 1.82H61zm1.4 3.5h.49a.59.59 0 0 0 .66-.67v-1a.59.59 0 0 0-.67-.67h-.48zm0 1.06v2.59h.6a.6.6 0 0 0 .69-.67v-1.24c0-.44-.21-.67-.7-.67zM65.69 8.27h1.39v7.16h1.67v1.14h-3.06v-8.3zM69.25 8.27h3.33v1.14h-1.94v2.37h1.39v1.13h-1.39v2.52h1.94v1.14h-3.33v-8.3zM74.34 14.42v-4a2 2 0 0 1 2.08-2.24c1.54 0 2 .86 2 2.08v1h-1.3v-1.12c0-.52-.17-.81-.67-.81s-.71.36-.71.86v4.45c0 .5.21.86.71.86s.67-.32.67-.81v-1.53h1.27v1.44c0 1.19-.49 2.07-2 2.07a2 2 0 0 1-2.08-2.24M79.01 8.27h1.4v8.3h-1.4zM80.92 8.27h3.71v1.14h-1.15v7.16h-1.41V9.41h-1.15V8.27zM85.14 8.27h1.4v8.3h-1.4zM87.21 8.27h3.33v1.14h-1.93v2.37h1.38v1.13h-1.38v2.52h1.93v1.14h-3.33v-8.3zM91 14.78v-1.11h1.3v1.13c0 .47.21.73.68.73s.64-.29.64-.73v-.32a1.5 1.5 0 0 0-.62-1.17l-.82-.82A2.8 2.8 0 0 1 91 10.28V10a1.73 1.73 0 0 1 2-1.82c1.4 0 1.95.69 1.95 1.89v.67h-1.29V10c0-.48-.22-.71-.66-.71a.61.61 0 0 0-.66.68v.17c0 .46.26.73.66 1.13l.89.88A2.79 2.79 0 0 1 95 14.31v.4a1.8 1.8 0 0 1-2 1.94 1.73 1.73 0 0 1-2-1.88M27.11 28.19l1.57-8.3h1.59l1.58 8.3h-1.43l-.26-1.52h-1.48l-.24 1.52zm1.75-2.63H30l-.55-3.33zM33.46 22.98v5.21h-1.17v-8.3h1.37l1.5 4.76v-4.76h1.17v8.3H35.1l-1.64-5.21zM41.16 22.12V26c0 1.27-.53 2.23-2 2.23H37v-8.3h2.15c1.49 0 2 .94 2 2.23M39 27.05c.57 0 .8-.34.8-.84v-4.35A.73.73 0 0 0 39 21h-.59v6zM43 26v-4a2 2 0 0 1 2-2.21c1.54 0 2 .86 2 2.08v1h-1.25v-1.11c0-.52-.17-.81-.67-.81s-.71.35-.71.86v4.45c0 .5.21.86.71.86s.67-.32.67-.81v-1.52H47v1.43c0 1.19-.49 2.07-2 2.07A2 2 0 0 1 43 26M47.64 26v-4a2.11 2.11 0 1 1 4.22 0v4a2.11 2.11 0 1 1-4.22 0m2.83.22v-4.41c0-.5-.22-.86-.72-.86s-.71.35-.71.86v4.45c0 .5.22.86.71.86s.72-.36.72-.86M56.37 22.8h-.04l-.94 5.39h-.65L53.7 22.8h-.03v5.39h-1.15v-8.3h1.63l.91 4.68h.01l.81-4.68h1.76v8.3h-1.27V22.8zM62.14 22.8h-.04l-.94 5.39h-.65l-1.04-5.39h-.02v5.39H58.3v-8.3h1.63l.9 4.68h.01l.81-4.68h1.76v8.3h-1.27V22.8zM68.13 19.89v6.28c0 1.28-.55 2.12-2 2.12a1.87 1.87 0 0 1-2.08-2.12v-6.28h1.4v6.41c0 .49.2.82.68.82s.68-.33.68-.82v-6.41zM69.96 22.98v5.21h-1.18v-8.3h1.37l1.51 4.76v-4.76h1.16v8.3H71.6l-1.64-5.21zM73.48 19.89h1.4v8.3h-1.4zM75.39 19.89h3.71v1.14h-1.15v7.16h-1.41v-7.16h-1.15v-1.14zM79.61 19.89h1.4v8.3h-1.4zM81.68 19.89h3.33v1.14h-1.94v2.37h1.39v1.13h-1.39v2.52h1.94v1.14h-3.33v-8.3zM85.48 26.4v-1.11h1.3v1.14c0 .47.21.73.68.73s.64-.29.64-.73v-.32a1.5 1.5 0 0 0-.62-1.17l-.82-.82a2.8 2.8 0 0 1-1.16-2.22v-.28a1.73 1.73 0 0 1 2-1.82c1.4 0 1.95.68 1.95 1.89v.67h-1.32v-.72c0-.48-.22-.71-.66-.71a.61.61 0 0 0-.66.69v.17c0 .46.26.73.66 1.13l.89.88a2.79 2.79 0 0 1 1.13 2.15v.4a1.8 1.8 0 0 1-2 1.94 1.73 1.73 0 0 1-2-1.88"/>
</svg>
