<svg xmlns="http://www.w3.org/2000/svg" viewBox="0 0 98.44 98.44">
  <path fill="#d19f2a" d="M0 0h98.44v98.44H0z"/>
  <path fill="#fff" d="M39.3 83.65V85a.65.65 0 0 0 .64.62h16.29a.65.65 0 0 0 .64-.65v-1.48c9.14-3 16-10.41 17.5-19.43V64a.69.69 0 0 0 0-.09.66.66 0 0 0-.66-.66H22a.66.66 0 0 0-.66.66v.3C22.93 73.32 30 80.78 39.3 83.65M56.85 41.17c-.21.3-5.21 7.5.11 13.32 2.44 2.67 2.23 5 1.53 6.62h3.42c.69-2.35.41-5.3-2.37-8.33-3.92-4.29.05-10.09.11-10.18a1.28 1.28 0 0 0-.55-1.91 1.82 1.82 0 0 0-2.25.47M48.2 61.11h3.42c.69-2.35.4-5.3-2.37-8.33-3.93-4.29 0-10.08.11-10.18a1.28 1.28 0 0 0-.56-1.91 1.81 1.81 0 0 0-2.25.47c-.21.3-5.22 7.5.11 13.32 2.44 2.67 2.23 5 1.53 6.62M36.26 41.17c-.22.3-5.22 7.5.11 13.32 2.44 2.67 2.23 5 1.54 6.62h3.42c.69-2.35.41-5.3-2.37-8.33-3.96-4.29.04-10.08.1-10.18a1.28 1.28 0 0 0-.56-1.91 1.81 1.81 0 0 0-2.24.47M18.93 25.38h-5.47v-.94a3.79 3.79 0 0 1 1.41-3l2.13-2.3a6.24 6.24 0 0 0 2.11-5V12.2c0-2.84-1.38-4.2-4.37-4.2s-4.42 1.55-4.42 4.33v2.4h3v-2.47c0-1.2.59-1.55 1.29-1.55s1.2.27 1.2 1.49v1.64a3.94 3.94 0 0 1-1.23 3.43l-1.87 2c-1.81 1.93-2.49 3.22-2.49 5.18v3.65h8.67zM29.99 15.64h2.12v1.13h-3.57v-1.13l2.19-6.02h-1.98V8.48h3.45v1.14l-2.21 6.02zM32.93 8.48h3.33v1.14h-1.94v2.37h1.39v1.13h-1.39v2.52h1.94v1.14h-3.33v-8.3zM38.4 13v3.81H37V8.48h2c1.41 0 1.92.7 1.92 1.86v1.06c0 .89-.32 1.42-1.11 1.6l1.34 3.77h-1.44zm0-3.35v2.55h.46a.6.6 0 0 0 .69-.68v-1.23c0-.45-.21-.67-.69-.67zM41.71 14.63v-4a2.11 2.11 0 1 1 4.22 0v4a2.11 2.11 0 1 1-4.22 0m2.83.22V10.4c0-.5-.22-.86-.72-.86s-.71.35-.71.86v4.45c0 .5.22.86.71.86s.72-.36.72-.86M31.38 24.74h-1.35v3.66h-1.4v-8.3h1.4v3.51h1.35V20.1h1.4v8.3h-1.4v-3.66zM37.63 20.1v6.28c0 1.28-.55 2.12-2 2.12a1.87 1.87 0 0 1-2.08-2.12V20.1H35v6.41c0 .49.2.82.69.82s.68-.33.68-.82V20.1zM39.59 23.18v5.22h-1.17v-8.3h1.37l1.51 4.76V20.1h1.16v8.3h-1.23l-1.64-5.22zM45.36 24h2v4.4h-1v-.9a1.26 1.26 0 0 1-1.33 1c-1.2 0-1.75-1-1.75-2.24v-4A2 2 0 0 1 45.35 20c1.54 0 2 .86 2 2.08v.73h-1.28V22c0-.51-.19-.81-.7-.81s-.72.35-.72.86v4.45c0 .5.21.86.68.86s.69-.26.69-.8v-1.49h-.66zM48.13 20.1h3.33v1.14h-1.93v2.37h1.38v1.13h-1.38v2.52h1.93v1.14h-3.33v-8.3zM53.6 24.59v3.81h-1.4v-8.3h2c1.41 0 1.92.7 1.92 1.86V23c0 .89-.32 1.42-1.11 1.6l1.34 3.77h-1.44zm0-3.35v2.58h.46a.6.6 0 0 0 .68-.69v-1.22c0-.45-.21-.67-.68-.67z"/>
</svg>
