<svg xmlns="http://www.w3.org/2000/svg" viewBox="0 0 98.44 98.44">
  <path fill="#ea1c2d" d="M0 0h98.44v98.44H0z"/>
  <path fill="#fff" d="M75.81 47a2.72 2.72 0 1 1 2.73 2.73A2.73 2.73 0 0 1 75.81 47M81.72 50.74A3.63 3.63 0 0 1 85 54.36v7.55a1.06 1.06 0 0 1-2.11 0v-6.48c0-.24-.07-.57-.51-.57s-.37.33-.38.53v19.45a1.52 1.52 0 0 1-3 0V63.63a.41.41 0 0 0-.43-.45.42.42 0 0 0-.44.45v11.21a1.52 1.52 0 1 1-3 0V55.39c0-.21-.08-.53-.38-.53s-.51.33-.51.57v6.49a1.06 1.06 0 0 1-2.11 0v-7.56a3.63 3.63 0 0 1 3.3-3.62h6.41M59.61 48.4A2.58 2.58 0 1 0 57 51a2.58 2.58 0 0 0 2.58-2.58M51.83 54.24l-2.15 7s-.38 1.28.7 1.6 1.41-.93 1.41-.93l1.73-5.83s.09-.45.43-.35.21.58.21.58l-3 10.92H54V75a1.34 1.34 0 0 0 2.69 0v-7.78h.76V75a1.35 1.35 0 0 0 2.69 0v-7.78h2.8l-3-10.92s-.13-.48.21-.58.43.35.43.35l1.73 5.83s.33 1.25 1.41.93.71-1.6.71-1.6l-2.15-7s-.77-2-2.46-2h-5.53c-1.7 0-2.46 2-2.46 2M44.15 48.4a2.58 2.58 0 1 0-2.58 2.6 2.58 2.58 0 0 0 2.58-2.58M36.37 54.24l-2.14 7s-.38 1.28.7 1.6 1.41-.93 1.41-.93l1.73-5.83s.09-.45.43-.35.21.58.21.58l-3 10.92h2.8V75a1.34 1.34 0 0 0 2.69 0v-7.78h.8V75a1.34 1.34 0 0 0 2.69 0v-7.78h2.8l-3-10.92s-.13-.48.21-.58.43.35.43.35l1.67 5.83s.33 1.25 1.41.93.7-1.6.7-1.6l-2.15-7s-.76-2-2.46-2h-5.46c-1.7 0-2.47 2-2.47 2M68.27 62.84a2.15 2.15 0 1 0-2.15-2.15 2.15 2.15 0 0 0 2.15 2.15M63.12 69.51a.75.75 0 0 0 .31 1 .72.72 0 0 0 .92-.3l1.17-3.73s.2-.25.2 0v8.77a1.1 1.1 0 0 0 2.2 0v-3.43s-.06-.49.33-.49.33.49.33.49v3.46a1.1 1.1 0 0 0 2.21 0v-8.76c0-.26.14-.07.14-.07l.93 2.55a6.06 6.06 0 0 0 .52 1.19.81.81 0 0 0 1.06-.44.8.8 0 0 0-.09-.78c0-.08-1.37-3.37-1.53-3.83-.49-1.42-1.37-1.4-2.21-1.43s-1.36 0-1.36 0h-1.67c-1.13 0-1.47.61-2.71 3.79-.18.46-.77 1.94-.78 2zM21.1 47a2.73 2.73 0 1 0-2.73 2.73A2.73 2.73 0 0 0 21.1 47M15.19 50.74a3.63 3.63 0 0 0-3.3 3.62v7.55a1.06 1.06 0 0 0 2.11 0v-6.48c0-.24.07-.57.51-.57s.37.33.38.53v19.45a1.52 1.52 0 1 0 3 0V63.63a.42.42 0 0 1 .43-.45.42.42 0 0 1 .44.45v11.21a1.52 1.52 0 1 0 3 0V55.39c0-.21.08-.53.38-.53s.51.33.51.57v6.49a1.06 1.06 0 0 0 2.11 0v-7.56a3.63 3.63 0 0 0-3.3-3.62h-6.41"/>
  <path fill="none" stroke="#fff" stroke-linecap="round" stroke-miterlimit="10" stroke-width="1.16" d="M12.82 63.01L10.4 75.84"/>
  <path fill="#fff" d="M26.15 61.72a.78.78 0 0 0-1.45.41 1.44 1.44 0 0 0 .08.35l2.17 3.92a1.38 1.38 0 0 1 .13.52v8.41a1.06 1.06 0 1 0 2.11 0V72s-.06-.47.32-.47.32.47.32.47v3.32a1.06 1.06 0 0 0 2.12 0v-8.41a1.41 1.41 0 0 1 .13-.52l2-3.62a3.5 3.5 0 0 0 .25-.64.78.78 0 0 0-.78-.78.77.77 0 0 0-.66.37c-.06.05-1.06 1.84-1.39 2.17a.87.87 0 0 1-.66.31h-2.6a.87.87 0 0 1-.66-.31c-.34-.33-1.33-2.12-1.4-2.17z"/>
  <path fill="#fff" d="M29.52 62.84a2.15 2.15 0 1 0-2.15-2.15 2.15 2.15 0 0 0 2.15 2.15M29.52 65.86l2.43 1.77 1.15 4.25h-7.16l1.16-4.25 2.42-1.77zM13.74 12.95h.03v15.19h3.34V8.29h-2.66l-3.08 3.6v3.49h.03l2.34-2.43zM29.34 11.56v5.22h-1.18v-8.3h1.37l1.51 4.76V8.48h1.16v8.3h-1.22l-1.64-5.22zM33 14.63v-4a2.12 2.12 0 1 1 4.22 0v4a2.12 2.12 0 1 1-4.22 0m2.83.22V10.4c0-.5-.22-.86-.72-.86s-.71.35-.71.86v4.45c0 .5.22.86.71.86s.72-.36.72-.86M28.16 20.1h2.07c1.41 0 1.92.7 1.92 1.86v1.75c0 1.16-.51 1.87-1.92 1.87h-.67v2.82h-1.4zm1.4 1.14v3.27h.51a.6.6 0 0 0 .68-.68v-1.92c0-.45-.21-.67-.68-.67zM32.87 26.26v-4a2.12 2.12 0 1 1 4.22 0v4a2.12 2.12 0 1 1-4.22 0m2.83.22V22c0-.5-.22-.86-.72-.86s-.71.35-.71.86v4.45c0 .5.22.86.71.86s.72-.36.72-.86M42.11 20.1l-1.58 8.3h-1.51l-1.58-8.3h1.42l.95 5.79h.01l.98-5.79h1.31zM42.69 20.1h3.32v1.14h-1.93v2.37h1.38v1.13h-1.38v2.52h1.93v1.14h-3.32v-8.3zM48.15 24.59v3.81h-1.4v-8.3h2c1.41 0 1.92.7 1.92 1.86V23c0 .89-.32 1.42-1.12 1.6l1.34 3.77h-1.43zm0-3.35v2.58h.46a.6.6 0 0 0 .68-.69v-1.22c0-.45-.21-.67-.68-.67zM51.19 20.1h3.71v1.14h-1.15v7.16h-1.41v-7.16h-1.15V20.1zM58.26 25.24v3.16h-1.4v-3.16l-1.55-5.14h1.46l.84 3.15h.01l.85-3.15h1.33l-1.54 5.14z"/>
</svg>
