<svg xmlns="http://www.w3.org/2000/svg" id="sdg-wordmark" viewBox="0 0 449.7 59">
  <path fill="#00aeef" d="M1.9 34.6h7.3c6.6 0 10.8 4.5 10.8 11.2v.3c0 6.6-4.2 11.2-10.8 11.2H1.9V34.6zm4.7 4.2V53h2.6c3.6 0 6-2.5 6-7v-.2c0-4.5-2.4-7-6-7H6.6zm15.9-4.2h14.6v4.2h-9.9v4.9H36V48h-8.8v5h10.1v4.2H22.5V34.6zm15.5 0h5.1l4.8 15.6 4.8-15.6h5L50 57.4h-4.3L38 34.6zm21.3 0h14.6v4.2H64v4.9h8.8V48H64v5h10v4.2H59.3V34.6zm17.2 0h4.7V53h9.2v4.3H76.5V34.6zm13.9 11.6v-.4c0-6.8 4.3-11.6 10.3-11.6s10.2 4.7 10.2 11.5v.4c0 6.8-4.3 11.6-10.3 11.6s-10.2-4.8-10.2-11.5m15.6-.1v-.2c0-4.5-2.3-7.3-5.4-7.3s-5.4 2.8-5.4 7.3v.1c0 4.5 2.3 7.3 5.4 7.3s5.4-2.8 5.4-7.2m7.4-11.5h7.6c5.1 0 8.3 3 8.3 7.8v.1c0 5.2-3.7 7.8-8.5 7.9h-2.7v6.9h-4.7V34.6zm7.3 11.6c1.9.2 3.6-1.2 3.8-3.1v-.5c0-2.4-1.4-3.7-3.9-3.7H118v7.3h2.7zm10.4-11.6h4.9l5.1 9.2 5-9.2h5v22.7h-4.6V42.8l-5.4 9.4h-.1l-5.3-9.3v14.4h-4.6V34.6zm23.3 0H169v4.2h-9.9v4.9h8.8V48h-8.8v5h10.1v4.2h-14.8V34.6zm17.2 0h4.3l8.7 13.2V34.6h4.6v22.7h-4l-9-13.7v13.7h-4.6V34.6zm25.3 4.3h-5.7v-4.3h16.1v4.3h-5.7v18.3h-4.7V38.9zM0 23.3l3.1-3.8c1.6 1.7 3.8 2.7 6.2 2.8 2 0 3.2-1 3.2-2.5 0-1.2-.7-2-4.3-3.4C3.8 14.8 1 13.1 1 8.9v-.1c0-4.3 3.3-7.3 8.1-7.3 3 0 5.8 1.1 8 3.1l-2.9 3.9C12.9 7.1 11 6.3 9 6.1c-1.8 0-2.9.9-2.9 2.2 0 1.4.8 2.1 4.7 3.7 4.3 1.7 6.7 3.6 6.7 7.4v.1c0 4.6-3.5 7.5-8.3 7.5-3.4 0-6.7-1.3-9.2-3.7M19.7 17V1.8h5.2V17c0 3.5 1.7 5.3 4.3 5.3s4.3-1.7 4.3-5.1V1.8h5.1v15.1c0 6.9-3.8 10.2-9.5 10.2s-9.4-3.4-9.4-10.1m20.5 6.3l3.1-3.8c1.6 1.7 3.8 2.7 6.2 2.8 2 0 3.2-1 3.2-2.5 0-1.2-.7-2-4.3-3.4-4.4-1.7-7.1-3.4-7.1-7.6 0-4.3 3.3-7.3 8.1-7.3 3 0 5.8 1.1 8 3.1l-2.8 3.9c-1.5-1.4-3.3-2.2-5.3-2.3-1.8 0-2.9.9-2.9 2.2 0 1.4.8 2.1 4.7 3.7 4.3 1.7 6.7 3.6 6.7 7.4v.1c0 4.6-3.5 7.5-8.3 7.5-3.5-.1-6.8-1.4-9.3-3.8M64.5 6.6h-6.2V1.8h17.6v4.8h-6.3v20.1h-5.1V6.6zm18-4.9h4.9l8.9 25H91l-1.9-5.4h-8.6l-1.8 5.4h-5.2l9-25zm5.1 15l-2.7-8.1-2.7 8.1h5.4zM98.3 1.8h5.1v24.9h-5.1V1.8zm8.9 0h4.7l9.5 14.5V1.8h5v24.9H122l-9.9-15v15h-5V1.8zm30-.1h4.9l8.9 25h-5.3l-1.9-5.4h-8.6l-1.8 5.4h-5.2l9-25zm5.1 15l-2.7-8.1-2.7 8.1h5.4zm10.5-14.9h9.2c2.8 0 5.1.8 6.5 2.2 1.1 1.1 1.7 2.7 1.7 4.2v.1c.1 2.3-1.3 4.5-3.4 5.4 2.7 1 4.4 2.7 4.4 5.9v.2c0 4.5-3.6 6.8-9 6.8h-9.5l.1-24.8zm12.4 7.3c0-1.8-1.3-2.8-3.5-2.8h-3.8V12h3.6c2.2 0 3.7-.9 3.7-2.9zm-2.8 7.2h-4.5v5.8h4.6c2.3 0 3.8-1 3.8-2.9-.1-1.8-1.4-2.9-3.9-2.9m11.3-14.5h5.2V22H189v4.7h-15.2V1.8zm17.4 0h16v4.7h-10.9v5.4h9.6v4.6h-9.6V22h11.1v4.6h-16.2V1.8z"/>
  <path fill="#5091cd" d="M243.1 28.7h25.1c-.4 20.2-11.6 30.3-26.6 30.3-16.1 0-26.5-13.6-26.5-28.2s10.4-28.2 26.5-28.2c17.9 0 22.8 11.1 24.9 17l-11.4.7c-2-4.8-5.9-8-13.5-8-8.5 0-15.2 7-15.2 18.5 0 9.8 6.2 18.5 15.9 18.5 8.8 0 12.8-6.2 13.8-11.4h-13v-9.2zm132.5-25h10.8v44.2h20.9V58h-31.7V3.7zM437.7 18c0-3.8-3.6-6.1-8-6.1-5.4 0-8.7 2.4-8.7 6s3.6 5.6 6.3 6.4l10 3.2c7.2 2.3 12.3 6.5 12.3 14.9 0 6.6-4.8 16.6-19.8 16.6-18.9 0-20.6-12.2-20.6-17l10.8-.2c0 5.8 4.5 8 9.8 8 3.7 0 8.9-1.8 8.9-6 0-2.9-1.2-4.4-6.6-6.4l-11.9-4.3c-6-2.2-10.2-7.4-10.2-13.6 0-6.9 4.8-16.9 18.9-16.9 16.8 0 19.4 11.1 19.4 15.1l-10.6.3zm-79.9 28.5h-20.1L334.1 58h-11.9l20.1-55.1h11.6L373.6 58h-12.1l-3.7-11.5zm-10-30.3h-.1l-7 21.4h14.1l-7-21.4z"/>
  <path fill="#5fbb46" d="M285.5 24.1c.7-1.1 1.5-2.2 2.4-3.1l-7.9-8.6c-2 1.9-3.7 4.1-5 6.5l10.5 5.2z"/>
  <path fill="#d19f2a" d="M304.9 18c1.2.5 2.3 1.2 3.3 2.1l7.9-8.6c-2.1-1.8-4.5-3.3-7-4.4L304.9 18z"/>
  <path fill="#c22033" d="M322.9 20.6l-10.5 5.2c.5 1.2.8 2.4 1 3.7l11.6-1.1c-.2-2.7-1-5.3-2.1-7.8"/>
  <path fill="#2d9a47" d="M311.7 24.3l10.5-5.2c-1.3-2.4-2.9-4.6-4.9-6.5l-7.9 8.6c.9.9 1.7 2 2.3 3.1"/>
  <path fill="#48773c" d="M283.5 31.7V31l-11.6-1c0 .6-.1 1.2-.1 1.8 0 2.2.3 4.4.8 6.5l11.2-3.2c-.2-1.2-.4-2.3-.3-3.4"/>
  <path fill="#fdb714" d="M310.2 41.3c-.8 1-1.8 1.9-2.8 2.7l6.1 10c2.3-1.5 4.3-3.4 6-5.6l-9.3-7.1z"/>
  <path fill="#ef412a" d="M313.7 31.7c0 1.1-.1 2.2-.4 3.2l11.2 3.2c.5-2.1.8-4.3.8-6.5V30l-11.6 1.1v.6"/>
  <path fill="#f99d25" d="M287.1 41.5l-9.4 7.1c1.7 2.1 3.8 4 6.1 5.5l6.1-10c-1-.7-2-1.6-2.8-2.6"/>
  <path fill="#007dbb" d="M283.6 29.4c.2-1.3.6-2.6 1.1-3.8l-10.5-5.2c-1.2 2.5-2 5.2-2.3 7.9l11.7 1.1z"/>
  <path fill="#8f1838" d="M312.1 54.8l-6.1-10c-1.1.6-2.3 1.1-3.6 1.5l2.2 11.5c2.6-.5 5.2-1.6 7.5-3"/>
  <path fill="#00add8" d="M312.9 36.6c-.4 1.2-1 2.3-1.6 3.4l9.3 7c1.5-2.2 2.7-4.6 3.5-7.2l-11.2-3.2z"/>
  <path fill="#f36e24" d="M300.7 46.7c-1.3.2-2.6.2-3.9.1l-2.2 11.5c2.7.4 5.5.4 8.3-.1l-2.2-11.5z"/>
  <path fill="#ea1c2d" d="M299.5 16.6c1.3.1 2.5.3 3.7.7l4.2-10.9c-2.6-.9-5.2-1.4-7.9-1.5v11.7z"/>
  <path fill="#e01a83" d="M295.1 46.5c-1.3-.3-2.5-.8-3.7-1.4l-6.1 10c2.4 1.4 5 2.4 7.7 2.9l2.1-11.5z"/>
  <path fill="#1a3668" d="M294 17.3c1.2-.4 2.5-.6 3.8-.7V4.9c-2.7.1-5.5.6-8 1.5l4.2 10.9z"/>
  <path fill="#cd8b2a" d="M286 40.2c-.7-1.1-1.3-2.3-1.8-3.6L273 39.8c.8 2.7 2.1 5.2 3.7 7.4l9.3-7z"/>
  <path fill="#00558a" d="M289.2 19.9c1-.8 2.1-1.5 3.2-2L288.2 7c-2.5 1-4.8 2.5-6.9 4.2l7.9 8.7z"/>
</svg>
