<svg xmlns="http://www.w3.org/2000/svg" viewBox="0 0 98.38 98.38">
  <path fill="#f1f1f1" d="M0 0h98.38v98.38H0z"/>
  <path fill="#00aeef" d="M3.61 53.06h3.21A4.55 4.55 0 0 1 11.55 58v.13A4.56 4.56 0 0 1 6.82 63H3.61zm2.06 1.86v6.21H6.8c1.56 0 2.62-1.09 2.62-3.06V58c0-2-1.06-3.08-2.62-3.08zM12.64 53.06h6.4v1.86h-4.35v2.14h3.83v1.86h-3.83v2.21h4.41v1.86h-6.46v-9.93zM19.44 53.06h2.23l2.1 6.84 2.1-6.84h2.17l-3.35 9.99h-1.9l-3.35-9.99zM28.74 53.06h6.4v1.86h-4.35v2.14h3.83v1.86h-3.83v2.21h4.41v1.86h-6.46v-9.93zM36.29 53.06h2.06v8.04h4.01v1.89h-6.07v-9.93zM42.34 58.13V58c0-3 1.87-5.06 4.5-5.06s4.48 2.07 4.48 5v.17c0 3-1.87 5.06-4.5 5.06s-4.48-2.07-4.48-5m6.85 0V58c0-2-1-3.19-2.37-3.19S44.46 56 44.46 58v.1c0 2 1 3.19 2.38 3.19S49.2 60 49.2 58.08M52.43 53.06h3.3c2.23 0 3.63 1.29 3.63 3.4 0 2.28-1.63 3.43-3.72 3.48h-1.15v3h-2.06zm3.21 5.06a1.52 1.52 0 0 0 1.66-1.59 1.48 1.48 0 0 0-1.69-1.6h-1.12v3.2zM60.19 53.06h2.16l2.21 4.03 2.18-4.03h2.17v9.93H66.9v-6.34l-2.34 4.1h-.04l-2.33-4.07v6.31h-2v-9.93zM70.37 53.06h6.4v1.86h-4.36v2.14h3.83v1.86h-3.83v2.21h4.42v1.86h-6.46v-9.93zM77.92 53.06h1.88l3.81 5.79v-5.79h2.01v9.93h-1.76l-3.93-6v6h-2.01v-9.93zM88.98 54.96h-2.5v-1.9h7.04v1.9h-2.5v8.03h-2.04v-8.03zM3.21 48.38l1.34-1.66a4.18 4.18 0 0 0 2.71 1.23c.87 0 1.4-.43 1.4-1.07 0-.54-.31-.89-1.87-1.48-1.93-.77-3.13-1.5-3.13-3.4s1.46-3.19 3.56-3.19a5.17 5.17 0 0 1 3.52 1.34l-1.26 1.71a3.8 3.8 0 0 0-2.32-1c-.78 0-1.26.39-1.26.95 0 .62.37.92 2.07 1.62 1.9.75 2.93 1.56 2.93 3.25 0 2-1.54 3.27-3.66 3.27a5.85 5.85 0 0 1-4-1.6M11.84 45.61V39h2.26v6.67c0 1.54.73 2.3 1.9 2.3s1.9-.75 1.9-2.25V39h2.24v6.61c0 3-1.65 4.45-4.17 4.45s-4.12-1.46-4.12-4.4M20.8 48.38l1.34-1.66a4.18 4.18 0 0 0 2.71 1.23c.87 0 1.4-.43 1.4-1.07 0-.54-.31-.89-1.87-1.48-1.93-.75-3.13-1.48-3.13-3.34 0-1.9 1.46-3.19 3.56-3.19a5.17 5.17 0 0 1 3.52 1.34l-1.26 1.71a3.8 3.8 0 0 0-2.32-1c-.78 0-1.26.39-1.26.95 0 .62.37.92 2.07 1.62 1.9.75 2.93 1.56 2.93 3.25 0 2-1.54 3.27-3.66 3.27a5.85 5.85 0 0 1-4-1.6M31.42 41.04h-2.74v-2.09h7.72v2.09h-2.74v8.8h-2.24v-8.8zM39.31 38.89h2.15l3.9 11H43l-.81-2.36h-3.72l-.79 2.36h-2.27zm2.23 6.6l-1.18-3.55-1.2 3.55zM46.22 38.95h2.26v10.89h-2.26zM50.15 38.95h2.07l4.17 6.35v-6.35h2.21v10.89h-1.93l-4.31-6.58v6.58h-2.21V38.95zM63.28 38.89h2.15l3.9 11H67l-.81-2.36h-3.75l-.79 2.36h-2.27zm2.22 6.6l-1.18-3.55-1.2 3.55zM70.11 39h4a4 4 0 0 1 2.89.9 2.52 2.52 0 0 1 .73 1.85 2.55 2.55 0 0 1-1.48 2.38 2.59 2.59 0 0 1 1.94 2.6v.08c0 2-1.57 3-3.94 3h-4.14zm5.4 3.21c0-.79-.56-1.21-1.52-1.21H72.3v2.4h1.57c1 0 1.63-.4 1.63-1.23zm-1.23 3.09h-2v2.55h2c1 0 1.65-.43 1.65-1.28 0-.78-.57-1.26-1.69-1.26M79.25 38.95h2.26v8.82h4.4v2.07h-6.66V38.95zM86.85 38.95h7.01v2.04h-4.77v2.35h4.2v2.04h-4.2v2.42h4.83v2.04h-7.07V38.95z"/>
  <path fill="#5091cd" d="M55.75 19.9a8.4 8.4 0 0 1 .56 5.95 8.54 8.54 0 0 1-13 4.81A8.53 8.53 0 0 1 44.27 16a8.94 8.94 0 0 1 3.85-.92 8.51 8.51 0 0 1 7.63 4.83m-7.46-4.42a5.89 5.89 0 0 1 0 1.17.17.17 0 0 1 0-.1c.06 0 .11 0 .13.06s0 .16 0 .19.08 0 .12 0a6.31 6.31 0 0 1 2.67.81c.16-.08.38-.19.55 0 .2-.08.24.17.41.2a.89.89 0 0 1 .45.57c0 .08.16.13.17.21a3.25 3.25 0 0 1 .64-.74l.14-.06a7.89 7.89 0 0 0-4.49-2.12 6.36 6.36 0 0 1-.83-.1m-.47 0a8.24 8.24 0 0 0-4.55 1.61c-.26.18-.49.45-.75.6a7.25 7.25 0 0 1 .94.9v-.06a6.72 6.72 0 0 1 4.33-1.82v-1.1zm1.45.64l-.61.26h-.18c-.03 0 0 .05 0 .07.22.29.61.13.89.07a.53.53 0 0 0 .55-.14.84.84 0 0 0-.66-.25m-1 1v1.26a1.35 1.35 0 0 1 .49 0 5 5 0 0 1 2.28.91.61.61 0 0 1-.2-.3h.05c0-.13-.13-.2-.15-.32a.09.09 0 0 1 .09 0 2.76 2.76 0 0 1 .37.44c.09 0 .17 0 .24.07s0 .23.14.31c0 .25.32.39.3.64 0 .06.08 0 .1 0l.25.31a.13.13 0 0 0 0 .17c.11.05.18-.09.29-.07s0 .2 0 .31.14-.05.2 0-.08.15-.11.21.08.07.14.09a.12.12 0 0 1 .1.15c.21.22-.06.46 0 .69a.4.4 0 0 1-.11.42c0 .19-.17.3-.23.46h-.22c-.11.11.1.26 0 .33h.47l-.05-.05a.7.7 0 0 1 .06-.6 1.38 1.38 0 0 1 .22-.47s.08-.06.11 0a.83.83 0 0 1-.07.44 1.3 1.3 0 0 1 .13.69h1.24v-.08a6.1 6.1 0 0 0-.55-2.19c-.09 0-.15.08-.25.05a.08.08 0 0 1-.05-.09 5.93 5.93 0 0 0-.47-.51c-.21 0-.31-.23-.51-.25s-.06-.35-.3-.27a.4.4 0 0 1-.27-.28.69.69 0 0 0-.24-.6c-.15-.06-.22.15-.37.11s0-.15-.07-.22-.1-.11-.09-.19c.2-.26-.24-.26-.14-.52s-.22-.26-.31-.41a6.81 6.81 0 0 0-2.05-.59 1.45 1.45 0 0 1-.51-.07m3.83 0c-.09.08-.17-.08-.25 0a.17.17 0 0 0 0 .12c.18.06.2.32.43.26.07-.08 0-.16 0-.25a.25.25 0 0 0-.19-.15m-7.6 1.14c-.26.18-.5.42-.77.58a6.8 6.8 0 0 1 .86.79v.08a5.08 5.08 0 0 1 2.54-1.29 2.3 2.3 0 0 1 .67-.05 8.41 8.41 0 0 1 0-1.22 6.5 6.5 0 0 0-3.31 1.11m9.4-.39a9.79 9.79 0 0 1-.84.9h-.14c.09 0 .11.13.17.19.31.16.39.49.66.68s.5.56.52.93a6.71 6.71 0 0 1 .64 2.63v.05a.18.18 0 0 0 .1 0h1.22c-.08-.12 0-.29-.07-.43A8.37 8.37 0 0 0 53.92 18m-11.64 0a8.33 8.33 0 0 0-2.17 4.62c0 .25 0 .52-.07.77a8.4 8.4 0 0 1 1.31 0v-.16a6.88 6.88 0 0 1 1.25-3.63 3.49 3.49 0 0 1 .57-.65c-.28-.26-.56-.56-.85-.84zm5.56.88h-.07A5 5 0 0 0 45 20.12a11.35 11.35 0 0 1 .9.84l.06-.09a3.87 3.87 0 0 1 1.29-.67 1.88 1.88 0 0 1 .64-.07 5.66 5.66 0 0 1 0-1.25m.44 0v1.24h.11a3.71 3.71 0 0 1 1.9.77v.09c.19-.27.48-.5.7-.75l.21-.12h-.1a5 5 0 0 0-1.52-.88 7.36 7.36 0 0 0-1.36-.29m-4.85.32v.08l-.46.58a6.74 6.74 0 0 0-1.21 3.51h1.27v-.12a5.1 5.1 0 0 1 1.35-3.18 8.37 8.37 0 0 1-.89-.89m8.09 1.18v.05c-.39.41-.82.82-1.19 1.24a.31.31 0 0 0 .11.12c0-.1.07-.19.08-.3s.25-.05.39 0a2.84 2.84 0 0 1 .6 0c.15.08.17.27.3.35a.12.12 0 0 1 0 .16c0 .32.2-.09.36 0s.15 0 .2.09.19.11.2.23-.08.08-.12.12-.13.21-.07.34c.24 0 .25-.24.37-.36a2.27 2.27 0 0 0-.24-.64c-.14 0-.22-.19-.36-.23s0-.27 0-.43a5.11 5.11 0 0 0-.57-.75m-6.89 0a5 5 0 0 0-1.14 2.34 3.73 3.73 0 0 1-.1.63 1.05 1.05 0 0 1 .53 0c-.1-.05 0-.17-.07-.24s0-.24.07-.3.17-.26.19-.42.25-.06.35-.15 0-.09 0-.14.21-.11.32-.17a.9.9 0 0 1 .28-.3c.25 0 .26-.35.5-.35a9.88 9.88 0 0 1-.93-.87m3.66.14a7.7 7.7 0 0 1 .06.88l.3.1c.09-.15.28-.18.37-.32s.12 0 .16.05a.85.85 0 0 1-.05.34c-.11.23-.39.26-.54.42.1.05.15 0 .23-.07a.5.5 0 0 1 .28.19h.22c0-.35.49-.3.62-.63h-.08s-.12 0-.11-.1a.85.85 0 0 1 .25-.2 4.32 4.32 0 0 0-1.21-.55 4.17 4.17 0 0 1-.51-.1m-2.39.86h.09c.1.1.27.08.34.22s-.07.07-.07.13.05 0 .07.05.06 0 .09-.08.12.1.22.1a.16.16 0 0 1 .22 0c.07-.06.21 0 .23-.11s.06-.36.25-.44 0 .1 0 .16.28-.11.39 0a2.67 2.67 0 0 1-.06-.92 2.88 2.88 0 0 0-1.81.85m2.05.7c-.07-.08-.22 0-.31 0 .09.08.05.24.1.34a.81.81 0 0 1-.54.32c-.05.07 0 .21-.17.2s-.19.15-.13.28a2.65 2.65 0 0 0-.07.49c-.25.15-.18-.21-.3-.28v.07a.12.12 0 0 1-.12-.05h-.14c-.04 0-.14.17-.12.3s-.15.05-.14.13a2.39 2.39 0 0 0 .43-.06c.1 0 .18 0 .27-.05a.09.09 0 0 1 .06.1.17.17 0 0 0 .07-.2c0-.09.11-.09.16-.12s0 .08 0 .12c.19.07 0 .21-.07.31s0 .26-.16.24a.06.06 0 0 1 0-.07.22.22 0 0 0 .11.19c.12-.1.12-.26.29-.28s0-.24.09-.31.46-.1.63.08v.18a.87.87 0 0 1-.15.28.15.15 0 0 1 0 .16c-.06.26-.35.14-.53.22a1.34 1.34 0 0 0 .93.26c.18 0 .1-.23.2-.33.06-.3.33-.09.49-.17a1.18 1.18 0 0 0 .14-.39.28.28 0 0 1-.11-.32c-.07-.1-.06-.28-.22-.29a.08.08 0 0 1 0-.1c0-.09.09-.12.11-.19s-.07-.2-.07-.28c-.16 0-.18-.17-.3-.22s-.14-.11-.22-.13-.24-.15-.39-.21 0-.11 0-.15.18 0 .27 0zm-3.68 1c-.34.11.05.37 0 .58s-.17 0-.26.06v.22c0 .13-.21 0-.29.12s0 .17.05.24c-.12.27.27.36.26.6s0 .37.15.51 0 .65.2.86v.26c.05.18-.22.13-.18.3.05 0 .06 0 .07.06a11.15 11.15 0 0 1 1.09-1.11l-.16-.16a4.22 4.22 0 0 1-.65-1.45l-.12-.06c0 .14-.07.24-.06.38-.09 0-.15-.08-.22-.12s-.06-.12 0-.16a.15.15 0 0 1 .1 0v-.17c0-.06-.08-.19 0-.28s.14.09.17.14.15 0 .21-.07.1-.17 0-.21a1 1 0 0 0 0-.5c0-.14-.2-.11-.32-.1m7.92.14a.4.4 0 0 1-.12 0 .32.32 0 0 1 .12 0m-.26.41l.13.13c.13.09 0 .28.18.36s.22.28.3.42a.43.43 0 0 0 0-.12c.06-.23.05-.49.12-.72a1.79 1.79 0 0 1-.77-.06m2.89.06l-.07-.05v.11a6.81 6.81 0 0 1-1.34 3.76 2.8 2.8 0 0 1-.5.55 8.71 8.71 0 0 1 .94.93v-.06a8.15 8.15 0 0 0 2.11-5.17l.05-.1H56zm-1.7 0a4.61 4.61 0 0 1-.06.76l.14.15a.15.15 0 0 1 0 .19.16.16 0 0 1-.19 0 5.55 5.55 0 0 1-.74 1.61c-.14.18-.28.42-.46.52l.39.34v-.09c0-.03 0-.11.09-.1s.19.2.3.3.12.29.07.44a6.27 6.27 0 0 0 1.7-4l.06-.07H53.3zm-9.87 0l.06.1a3.35 3.35 0 0 1 .06.83c0-.08.06-.19.16-.24s-.1-.1-.09-.17 0-.41.21-.48a.48.48 0 0 1-.41 0m-2 0h-1.24a8.6 8.6 0 0 0 1 3.71A13.56 13.56 0 0 0 42.19 29l.84-.87h.1a2.61 2.61 0 0 1-.39-.41.58.58 0 0 1-.36-.27v-.16l-.05.06c-.15.07-.2-.08-.3-.14s-.07-.32-.24-.27-.09-.08-.13-.12-.21-.17-.3-.25 0 .09-.05.11-.23-.17-.34-.25-.05 0-.09 0a.49.49 0 0 1-.17-.36c-.14-.16-.08-.41-.05-.6s.1-.08.08-.14.13-.1.22-.1a.24.24 0 0 1 .08.08c.05 0 .18 0 .13-.12a.54.54 0 0 1 .27-.1 1.86 1.86 0 0 0 .19.26l-.06-.09a6.64 6.64 0 0 1-.2-1.29s-.06 0 0-.06a1.26 1.26 0 0 1 0-.24m1.65 0h-.09a9.94 9.94 0 0 1-1.18 0l.05.07.09.78a6.08 6.08 0 0 1 .16.88c0-.06 0-.19.13-.2 0-.09.09-.17 0-.25a.85.85 0 0 1 .24-.56c.22 0 .23-.29.45-.3s.18.14.23.19a.8.8 0 0 1-.09-.62m2.17.52c.12.22.18.47.3.69s.24.35.32.54a2.83 2.83 0 0 1 .35-.41.22.22 0 0 0 0-.16c0-.09 0-.22-.07-.29s0 .15 0 .21a.07.07 0 0 1-.1 0 .29.29 0 0 1-.2-.19c.08-.05 0-.07 0-.12s0 0-.08 0h-.06c0-.24-.27-.1-.37-.22m1.33.33a.61.61 0 0 1-.17.28c.1-.07.17-.2.3-.21zm3.34.35a.32.32 0 0 0 .07.2c.16 0 .09.2.24.18s0-.1 0-.15S50 25.11 50 25v-.07c0-.07-.09 0-.13.05m2.4 0c-.12 0-.27.06-.38 0s-.06 0-.06.05-.08.14-.18.11-.08-.11-.1-.17a.43.43 0 0 1 0 .13 1.55 1.55 0 0 0-.18.28c-.09.1-.23.06-.33.14s-.24.16-.37.22 0 0 0 .05a.16.16 0 0 0 .18 0c.18 0 .14-.18.24-.25s.17-.09.26 0a.6.6 0 0 1 .1.43c-.1.1 0 .26-.12.38s-.15.2-.13.34a.3.3 0 0 1-.23.07 4 4 0 0 0-1.06-.24.07.07 0 0 0-.05.08c.15.08.34.09.5.15s.24.21.42.16.41.05.51-.11.12-.27.19-.41h.05c.08.09.08.22.12.32.12-.13.21-.27.32-.4a3.77 3.77 0 0 0 .61-1.31 1.28 1.28 0 0 0-.33.06m-5.33 0a6.53 6.53 0 0 1-.78.84 3.23 3.23 0 0 0 1.52.7v-.35c0-.09.16-.09.24-.07A.07.07 0 0 0 48 26c-.12 0-.07-.16-.11-.24s.07 0 .06-.09 0-.15 0-.22 0-.07.09-.07c-.27.14-.55 0-.79-.14s-.27-.13-.3-.26m2.46.74s-.06.09 0 .12.32-.1.33-.25c-.15 0-.23.06-.33.14m.48.32c-.13 0-.2.1-.3.18s-.18-.13-.27-.08a.09.09 0 0 1 0 .12c-.14.13-.21-.06-.35 0s0 .08-.05.06-.26-.09-.34-.21-.11 0-.14 0-.16 0-.13.1-.12.15-.2.22-.19.13-.31.12 0 .07 0 .07a.43.43 0 0 0 .24 0c.13-.2.34 0 .52-.11s0 .14.11.18.3.15.44 0 .22-.18.34-.23.41-.27.39-.52zm-4.08.12a6.38 6.38 0 0 1-.84.86c.13 0 .2.15.31.21a5.28 5.28 0 0 0 2.16 1l-.2-.09c-.15-.17-.37-.38-.38-.62.15-.05.14-.22.19-.33a.85.85 0 0 1 .44-.24c-.43.18-.8-.14-1.15-.31a1.63 1.63 0 0 1-.53-.45m5.88 1.18v-.08a.71.71 0 0 1-.19.24c0 .07 0 .17.06.22s.39.16.43.36-.42.36-.2.56-.1.14-.07.23l.06-.08a6 6 0 0 0 .75-.63h-.17a.27.27 0 0 1-.14-.28zm-6.8.16v.05zm.14.18a.19.19 0 0 1-.1-.13zm0 0c0 .1.16.16.12.29a.36.36 0 0 1-.34.11c-.24 0-.42.14-.65.17s-.28-.19-.47-.17a6.67 6.67 0 0 0 4.1 1.76l.12.08V28.74h-.1a4.91 4.91 0 0 1-2.73-1m7.82.79v-.1a2.27 2.27 0 0 1-.58.56c-.27.28-.72.33-.86.73-.15.14-.2.35-.41.42s-.29.19-.42.34c-.35.32-.58-.2-.9-.27l-.65.11a2 2 0 0 1-.66 0 9.82 9.82 0 0 1 0 1.33l.08-.05a8.24 8.24 0 0 0 5.31-2.23zm-9.39 0v.05l-.87.88a8.58 8.58 0 0 0 4.51 2.11 7.31 7.31 0 0 1 .84.1l-.06-.1v-1.2h-.13a6.68 6.68 0 0 1-4.32-1.86m4.83.3l.06.09a8.48 8.48 0 0 1 0 1 6.65 6.65 0 0 1 1-.14.35.35 0 0 1-.19-.11c-.2 0-.29-.22-.36-.38s0-.21.09-.3-.35 0-.5-.11-.07-.08-.13-.09M56 16.67a3.75 3.75 0 0 1 1.08 2l.1.24a8.9 8.9 0 0 1-2.29-2.44l-.7-.71a6 6 0 0 1 1.81.89M40.31 17.77a13.54 13.54 0 0 1-1.41 1.29 8.88 8.88 0 0 1 .62-1.63 4 4 0 0 1 2.3-1.54 10.46 10.46 0 0 0-1.51 1.88"/>
  <path fill="#5091cd" d="M58.24 18.71c.2.89-.09 1.76.09 2.65-.48-1-1.51-1.4-2.22-2.16a3 3 0 0 1-.69-1.59c.41 1 1.5 1.19 2.12 2a2.66 2.66 0 0 1 .42.67 18.41 18.41 0 0 1-.73-2.46 1.92 1.92 0 0 0-.71-.93 2.47 2.47 0 0 1 1.71 1.81M39.54 17c-.84.58-.78 1.61-1.05 2.47-.08.32-.23.61-.3.93a2.9 2.9 0 0 1 .69-1c.6-.55 1.48-.89 1.77-1.71a3.64 3.64 0 0 1-1.86 2.65 3.77 3.77 0 0 0-.93 1.12v-.88a3.52 3.52 0 0 1 .53-2.84 2.1 2.1 0 0 1 1.15-.74"/>
  <path fill="#5091cd" d="M58.77 18.9a4 4 0 0 1 .37 3.79 6.66 6.66 0 0 0-.43 1.57c0-.09 0-.22-.08-.32-.3-1.14-1.38-2-1.82-3a5.7 5.7 0 0 1-.33-1.1c.47.88 1.64 1.33 2 2.29a4.38 4.38 0 0 1 .2.81 11.16 11.16 0 0 1 0-3 2.49 2.49 0 0 0-.35-1.46c.19.11.27.32.41.49M37.75 18.59c-.64 1-.11 2.21-.14 3.32L37.53 23a4 4 0 0 0 .07-.39 4.27 4.27 0 0 1 1.65-2.21 1.78 1.78 0 0 0 .36-.53 4.66 4.66 0 0 1-.39 1.34c-.54 1.06-1.54 1.93-1.73 3.13-.09-1.16-.88-2-.8-3.26a3.92 3.92 0 0 1 1-2.56h.05"/>
  <path fill="#5091cd" d="M59.48 25.49c-.45.63-1 1.22-1.39 1.86a3.6 3.6 0 0 0-.09-1.61 14.07 14.07 0 0 1-.74-3.23v-.44c.26 1.16 1.4 2 1.33 3.27a2.82 2.82 0 0 1-.13.86l.05-.06a13 13 0 0 1 .49-1.88 4.65 4.65 0 0 0 .65-2.76 4.7 4.7 0 0 1-.22 4M37.43 25.09a10.82 10.82 0 0 0 .33 1.29 3.71 3.71 0 0 1 .82-3.3 3.23 3.23 0 0 0 .32-.84 7.14 7.14 0 0 1-.12 1.76c-.15.73-.38 1.42-.58 2.12a3.35 3.35 0 0 0 0 1.4l-.06-.05c-.46-.85-1.38-1.51-1.65-2.45a5.16 5.16 0 0 1-.22-2.41 4.48 4.48 0 0 1 .26-.92c-.26 1.32.63 2.27.92 3.42"/>
  <path fill="#5091cd" d="M57.73 27.49a3 3 0 0 1-.52 1.51h.05a19.29 19.29 0 0 1 1.2-1.61A4.2 4.2 0 0 0 60 25a4.17 4.17 0 0 1-2 4c-.56.37-1.13.71-1.68 1.13v-.03c.83-1.38.42-3.27.93-4.79l.19-.51c-.11.94.3 1.74.28 2.69M39.56 29.36c.09.31.27.59.39.89-1.26-.86-3-1.68-3.54-3.25a3.93 3.93 0 0 1-.21-1.84c.1 1.4 1.61 2.14 2.31 3.3a3.76 3.76 0 0 0 .53.7c0-.15-.17-.27-.22-.43a3 3 0 0 1-.27-1.65 8.34 8.34 0 0 0 .24-2.08c.61 1.32.43 3 .77 4.41"/>
  <path fill="#5091cd" d="M55.85 30.41a4.19 4.19 0 0 1-.86 1c.11 0 .21-.1.3-.17.91-.9 2.09-1.16 3.08-1.89a3 3 0 0 0 .93-1.17 4.6 4.6 0 0 1-3.09 3.36c-.73.19-1.51.26-2.21.5 1.2-1 1.13-2.62 1.93-3.83a12.61 12.61 0 0 1 .76-1c-.49 1-.27 2.24-.83 3.19M40.74 29.14c.42 1 .58 2.22 1.56 3-1.06-.35-2.3-.25-3.23-.9A4.45 4.45 0 0 1 37 28.39c.7 1.59 2.46 1.72 3.64 2.69a3 3 0 0 0 .69.47 4.07 4.07 0 0 1-.77-.84c-.69-1-.45-2.31-1-3.34a7.77 7.77 0 0 1 1.18 1.79"/>
  <path fill="#5091cd" d="M53.29 32.24a6.58 6.58 0 0 1-.85.33 9 9 0 0 0 1.1-.16c1.4-.22 3 0 4-1.18A3.76 3.76 0 0 1 55.41 33c-1.43.54-2.86-.12-4.23-.34h-.26a3.84 3.84 0 0 0 1.81-.81A18.45 18.45 0 0 1 55 29.76c-.63.81-.7 2-1.74 2.48M43.5 31.85a3.94 3.94 0 0 0 1.88.83c-.16.06-.38 0-.56.09-1.23.3-2.6.8-3.91.35a3.79 3.79 0 0 1-2.15-1.78c1.13 1.28 3 .85 4.47 1.19a2.08 2.08 0 0 0 .63.08c-.18-.11-.43-.1-.62-.2-1.18-.41-1.35-1.69-2-2.55a18 18 0 0 1 2.26 2"/>
  <path fill="#5091cd" d="M52.69 33.59a3.26 3.26 0 0 0 2.88-.31A3.4 3.4 0 0 1 54 34.34a3.8 3.8 0 0 1-3.58-.77c-.4-.25-.76-.62-1.28-.59a1.81 1.81 0 0 0-.53.05 9.8 9.8 0 0 1 2.68 1.86 4 4 0 0 1-.49.44 9.5 9.5 0 0 0-2.64-2.15 1.7 1.7 0 0 0-.55.23 8.17 8.17 0 0 0-2.17 1.94l-.44-.41A9.33 9.33 0 0 1 47.67 33c-1-.3-1.6.51-2.33.92a3.41 3.41 0 0 1-4.61-.56 3.32 3.32 0 0 0 2.95.25c1.24-.54 2.52-1.22 4-.89.23 0 .46.24.68 0a4.77 4.77 0 0 1 3.32.42zM14.35 75.51H24c-.17 7.74-4.44 11.63-10.18 11.63-6.19 0-10.15-5.22-10.15-10.82S7.6 65.5 13.79 65.5c6.85 0 8.74 4.27 9.52 6.49l-4.31.27c-.75-1.83-2.25-3.05-5.16-3.05-3.27 0-5.82 2.66-5.82 7.1 0 3.74 2.36 7.1 6.1 7.1a5.14 5.14 0 0 0 5.27-4.35h-5zM65.11 65.94h4.15v16.93h7.99v3.88H65.11V65.94zM88.9 71.42c0-1.44-1.38-2.32-3-2.32-2.08 0-3.32.91-3.32 2.3s1.38 2.13 2.41 2.46l3.82 1.22c2.77.89 4.73 2.49 4.73 5.7 0 2.55-1.83 6.36-7.58 6.36-7.22 0-7.89-4.68-7.89-6.53l4.15-.08c0 2.21 1.74 3.07 3.76 3.07 1.41 0 3.4-.69 3.4-2.3 0-1.11-.47-1.69-2.52-2.44l-4.54-1.63a5.64 5.64 0 0 1-3.9-5.2c0-2.66 1.83-6.47 7.22-6.47 6.42 0 7.44 4.26 7.44 5.78z"/>
  <path fill="#5fbb46" d="M30.61 73.76a5.88 5.88 0 0 1 .92-1.18l-3-3.31a10.31 10.31 0 0 0-1.92 2.49z"/>
  <path fill="#d19f2a" d="M38 71.42a5.71 5.71 0 0 1 1.27.79l3-3.31a10.34 10.34 0 0 0-2.68-1.67z"/>
  <path fill="#c22033" d="M44.94 72.41l-4 2a5.74 5.74 0 0 1 .4 1.42l4.46-.42a10.24 10.24 0 0 0-.85-3"/>
  <path fill="#2d9a47" d="M40.64 73.83l4-2a10.28 10.28 0 0 0-1.87-2.49l-3 3.3a5.79 5.79 0 0 1 .89 1.18"/>
  <path fill="#48773c" d="M29.81 76.68v-.27L25.36 76v.67a10.27 10.27 0 0 0 .3 2.48l4.31-1.24a5.81 5.81 0 0 1-.14-1.25"/>
  <path fill="#fdb714" d="M40.08 80.35a5.84 5.84 0 0 1-1.09 1l2.36 3.82a10.37 10.37 0 0 0 2.3-2.17z"/>
  <path fill="#ef412a" d="M41.39 76.68a5.75 5.75 0 0 1-.13 1.23l4.31 1.24a10.21 10.21 0 0 0 .3-2.47v-.63l-4.46.42v.21"/>
  <path fill="#f99d25" d="M31.2 80.44l-3.57 2.71A10.35 10.35 0 0 0 30 85.26l2.36-3.81a5.8 5.8 0 0 1-1.12-1"/>
  <path fill="#007dbb" d="M29.88 75.77a5.7 5.7 0 0 1 .43-1.44l-4-2a10.21 10.21 0 0 0-.88 3z"/>
  <path fill="#8f1838" d="M40.8 85.54l-2.35-3.81a5.74 5.74 0 0 1-1.37.56l.83 4.41a10.21 10.21 0 0 0 2.9-1.16"/>
  <path fill="#00add8" d="M41.09 78.54a5.83 5.83 0 0 1-.63 1.29l3.54 2.7a10.22 10.22 0 0 0 1.35-2.75z"/>
  <path fill="#f36e24" d="M36.43 82.41a5.88 5.88 0 0 1-.83.06 5.54 5.54 0 0 1-.67 0l-.83 4.41a10.34 10.34 0 0 0 3.17 0z"/>
  <path fill="#ea1c2d" d="M36 70.91a5.73 5.73 0 0 1 1.43.28L39 67a10.16 10.16 0 0 0-3-.58z"/>
  <path fill="#e01a83" d="M34.29 82.32a5.76 5.76 0 0 1-1.42-.54l-2.36 3.82a10.25 10.25 0 0 0 2.95 1.13z"/>
  <path fill="#1a3668" d="M33.86 71.16a5.75 5.75 0 0 1 1.46-.26v-4.48a10.25 10.25 0 0 0-3.08.56z"/>
  <path fill="#cd8b2a" d="M30.8 79.92a5.77 5.77 0 0 1-.68-1.37l-4.31 1.24a10.21 10.21 0 0 0 1.42 2.84z"/>
  <path fill="#00558a" d="M32 72.14a5.77 5.77 0 0 1 1.24-.75l-1.62-4.18A10.27 10.27 0 0 0 29 68.83z"/>
  <path fill="#5091cd" d="M58.3 82.34h-7.71l-1.37 4.4h-4.55l7.68-21.09h4.43l7.57 21.09h-4.62zm-3.81-11.61h-.06l-2.66 8.19h5.41z"/>
</svg>
