<svg xmlns="http://www.w3.org/2000/svg" viewBox="0 0 522.99 59.02">
  <path fill="#5091cd" d="M55.83 13.78a24 24 0 0 1 1.59 17A24.63 24.63 0 0 1 44 46.39c-7.11 3.49-17.23 2.61-23.58-1.93a24.34 24.34 0 0 1 2.67-41.85A25.53 25.53 0 0 1 34.08 0a24.27 24.27 0 0 1 21.75 13.78M34.56 1.18a17 17 0 0 1 0 3.33.5.5 0 0 1 .11-.29c.17-.1.31 0 .39.17s.08.46-.06.56c.15 0 .22-.09.35-.09A18 18 0 0 1 43 7.18v-.06c.47-.23 1.07-.53 1.56-.12.58-.22.69.49 1.16.58A2.54 2.54 0 0 1 47 9.21c.11.22.45.37.49.6a9.25 9.25 0 0 1 1.82-2.11l.41-.17a22.51 22.51 0 0 0-12.81-6.06 18.84 18.84 0 0 1-2.35-.29m-1.35.12a23.49 23.49 0 0 0-13 4.6c-.74.51-1.39 1.28-2.14 1.71h.11a20.63 20.63 0 0 1 2.67 2.57l.06-.17a19.15 19.15 0 0 1 12.34-5.18l-.11-.29v-2.9zm4.14 1.82l-1.74.75c-.15-.06-.42-.13-.52.06s0 .14 0 .2c.64.82 1.75.36 2.55.21a1.53 1.53 0 0 0 1.57-.41v-.08a2.42 2.42 0 0 0-1.88-.72m-2.81 3l.12.23c0 1.12 0 2.32-.06 3.37a3.81 3.81 0 0 1 1.39 0 14.14 14.14 0 0 1 6.49 2.61 1.73 1.73 0 0 1-.56-.87.13.13 0 0 1 .15 0c0-.37-.37-.57-.43-.91a.25.25 0 0 1 .27-.11A7.84 7.84 0 0 1 43 11.67c.27-.11.48.06.68.21.35.2.13.65.4.89 0 .71.92 1.11.87 1.82 0 .17.22 0 .29.12l.72.89a.36.36 0 0 0 .12.49c.32.15.51-.26.83-.2.47.27-.07.58 0 .87.18 0 .41-.14.55 0s-.22.43-.33.6.22.21.41.27a.33.33 0 0 1 .29.43c.61.63-.18 1.3.11 2a1.15 1.15 0 0 1-.31 1.18c0 .53-.47.86-.66 1.3l-.62.12c-.33.33.28.72 0 .93h1.35l-.14-.14a2 2 0 0 1 .18-1.71 3.88 3.88 0 0 1 .64-1.33c.09 0 .24-.18.31 0a2.42 2.42 0 0 1-.2 1.24 3.7 3.7 0 0 1 .37 2 46.7 46.7 0 0 1 3.54-.08l-.11-.23a17.34 17.34 0 0 0-1.57-6.25c-.25 0-.43.22-.72.15a.23.23 0 0 1-.15-.24 16.63 16.63 0 0 0-1.33-1.47c-.61.06-.89-.65-1.45-.72s-.16-1-.87-.78a1.16 1.16 0 0 1-.76-.81 2 2 0 0 0-.69-1.71c-.43-.16-.62.42-1 .32-.24-.12-.13-.43-.21-.64s-.29-.32-.25-.56c.57-.75-.69-.74-.41-1.47-.07-.53-.62-.74-.89-1.16A19.55 19.55 0 0 0 36 6.31a4 4 0 0 1-1.45-.21m10.92 0c-.25.24-.47-.22-.7.06a.5.5 0 0 0 .08.35c.51.18.57.92 1.22.75.19-.22-.12-.45-.06-.72a.72.72 0 0 0-.54-.43M23.79 9.38c-.79.52-1.44 1.19-2.21 1.62A19.26 19.26 0 0 1 24 13.29l.08.23a14.48 14.48 0 0 1 7.24-3.67 6.43 6.43 0 0 1 1.91-.14 23.74 23.74 0 0 1 0-3.48 18.54 18.54 0 0 0-9.44 3.15m26.82-1.1a28 28 0 0 1-2.4 2.58l-.41.09c.25.06.33.36.49.54.88.47 1.11 1.41 1.88 1.94.43.91 1.44 1.6 1.47 2.64a19.13 19.13 0 0 1 1.83 7.5l-.1.14a.5.5 0 0 0 .29-.11l3.48-.06c-.23-.34-.13-.83-.19-1.24a23.87 23.87 0 0 0-6.35-14m-33.19.09a23.74 23.74 0 0 0-6.18 13.18c-.13.72 0 1.47-.19 2.21a24.19 24.19 0 0 1 3.73 0l-.08-.47a19.63 19.63 0 0 1 3.62-10.34 10 10 0 0 1 1.62-1.85c-.79-.73-1.6-1.59-2.43-2.4zm15.87 2.52l-.2.12A14.1 14.1 0 0 0 25 14.42a32 32 0 0 1 2.57 2.4l.18-.27a11 11 0 0 1 3.68-1.91 5.45 5.45 0 0 1 1.82-.2 16 16 0 0 1 0-3.56m1.27 0l.12.27v3.27l.31-.06a10.59 10.59 0 0 1 5.42 2.21l.09.25c.54-.76 1.36-1.41 2-2.14l.6-.35-.29-.12a14.07 14.07 0 0 0-4.35-2.51 21.37 21.37 0 0 0-3.89-.82m-13.84.91v.23l-1.3 1.65a19.24 19.24 0 0 0-3.45 10l3.31-.06.31.12c-.13-.08-.1-.23-.14-.35a14.56 14.56 0 0 1 3.85-9.07 24.11 24.11 0 0 1-2.55-2.55m23.08 3.41l-.06.15c-1.11 1.16-2.33 2.35-3.39 3.53a.83.83 0 0 0 .33.35c0-.29.21-.54.23-.85.29-.4.72-.14 1.1-.06a8.16 8.16 0 0 1 1.71.12c.43.22.47.77.87 1a.34.34 0 0 1-.12.46c.12.91.55-.24 1 0 .19.07.43 0 .58.25.07.37.53.3.56.66 0 .18-.23.23-.35.33.11.36-.37.59-.21 1 .7.13.72-.68 1.05-1a6.46 6.46 0 0 0-.68-1.82c-.4-.09-.64-.56-1-.64-.77-.3.12-.78 0-1.24a14.45 14.45 0 0 0-1.62-2.15m-19.64.12A14.22 14.22 0 0 0 20.92 22a11 11 0 0 1-.29 1.8 3 3 0 0 1 1.51-.06c-.28-.14 0-.49-.21-.69s-.08-.68.21-.87c0-.49.49-.75.54-1.2s.71-.17 1-.43c.18-.1 0-.26 0-.4.24-.33.61-.31.9-.49a2.56 2.56 0 0 1 .81-.85c.72 0 .74-1 1.42-1a29 29 0 0 1-2.67-2.49m10.43.4a22.69 22.69 0 0 1 .17 2.5l.87.29c.25-.42.81-.51 1.05-.9.16-.13.34 0 .46.15a2.43 2.43 0 0 1-.15 1c-.32.65-1.1.74-1.53 1.21.28.16.43-.13.66-.19a1.45 1.45 0 0 1 .81.54c.22.1.42 0 .62-.11.13-1 1.39-.86 1.76-1.8l-.23.09c-.1-.13-.34-.07-.33-.29a2.5 2.5 0 0 1 .72-.58A12.32 12.32 0 0 0 36 16a11.45 11.45 0 0 1-1.45-.29m-6.45 2.5h.27c.29.29.76.23 1 .61.11.22-.21.19-.19.38s.15.06.19.15c.23.08.18-.13.27-.23.3-.3.35.29.64.29a.45.45 0 0 1 .64.08c.19-.17.6 0 .66-.33.37-.4.17-1 .72-1.27.19.11 0 .29.06.46.38.16.8-.31 1.1.06a7.62 7.62 0 0 1-.18-2.63 8.23 8.23 0 0 0-5.15 2.43m5.85 2c-.19-.22-.62-.08-.87 0 .24.24.14.67.29 1a2.3 2.3 0 0 1-1.53.91c-.16.19-.12.62-.49.58-.12.26-.53.42-.37.81a7.43 7.43 0 0 0-.21 1.39c-.71.45-.51-.59-.87-.81l-.12.21c-.15 0-.24 0-.34-.14s-.29-.07-.39 0c-.16.27-.4.48-.34.84s-.43.15-.39.37a6.92 6.92 0 0 0 1.22-.17c.28.07.51-.13.78-.15a.26.26 0 0 1 .17.29h.1a.49.49 0 0 0 .19-.58c0-.25.3-.25.47-.33s.06.23.09.35c.54.2-.13.6-.21.89s0 .75-.46.68a.17.17 0 0 1-.12-.21h-.08a.62.62 0 0 0 .33.54c.34-.28.35-.75.83-.81.25-.27-.11-.68.26-.89.63 0 1.3-.28 1.8.23 0 .22-.12.31.06.49a2.38 2.38 0 0 1-.43.81.41.41 0 0 1-.12.46c-.17.74-1 .39-1.51.64a3.82 3.82 0 0 0 2.67.72c.52 0 .29-.66.55-1 .17-.85.94-.27 1.41-.49a3.39 3.39 0 0 0 .41-1.12.8.8 0 0 1-.33-.9c-.21-.28-.18-.79-.63-.83a.24.24 0 0 1 0-.29c0-.27.25-.35.33-.55-.28-.18-.21-.58-.18-.81-.47.13-.52-.48-.87-.61-.08-.28-.39-.33-.63-.37-.58.28-.68-.43-1.11-.6 0-.13-.15-.33 0-.43s.51 0 .76 0zm-10.49 3c-1 .31.16 1-.08 1.65-.13.35-.49 0-.75.17l-.1.64c-.14.37-.62.1-.83.35s0 .49.15.69c-.34.77.76 1 .75 1.71.34.43 0 1.06.44 1.45.11.79-.11 1.85.58 2.46l.12.75c.15.52-.62.39-.52.85.14-.07.18.12.19.17a31.79 31.79 0 0 1 3.1-3.16l-.54-.5a12.06 12.06 0 0 1-1.86-4.14l-.35-.18c0 .39-.19.69-.17 1.08l-.12.14c-.25 0-.41-.22-.63-.35 0-.13-.18-.35 0-.46a.4.4 0 0 1 .29.08c.11-.13.06-.33.12-.49s-.22-.55 0-.81c.23 0 .4.25.49.41s.41-.12.6-.2c0-.21.29-.48 0-.6a2.84 2.84 0 0 0 0-1.42c-.13-.4-.58-.33-.91-.29m22.59.41h-.35a.86.86 0 0 1 .35 0m-.75 1.18l.37.37c.37.25.12.8.52 1s.64.78.85 1.2a1.36 1.36 0 0 0 .11-.35c.17-.66.14-1.41.35-2.06a5.12 5.12 0 0 1-2.2-.17m8.26.17l-.21-.15.12.33a19.43 19.43 0 0 1-3.82 10.72 8 8 0 0 1-1.43 1.56 25.4 25.4 0 0 1 2.69 2.64l.1-.18a23.24 23.24 0 0 0 6-14.74l.14-.29-.18.08zm-4.84-.09a12.93 12.93 0 0 1-.16 2.13l.4.43a.44.44 0 0 1-.09.55.47.47 0 0 1-.56 0 15.78 15.78 0 0 1-2.11 4.61c-.4.51-.79 1.21-1.3 1.47L46 35c.06-.06 0-.16 0-.24s.07-.31.25-.29c.53 0 .54.55.85.84-.06.46.34.82.21 1.24a17.9 17.9 0 0 0 4.84-11.5l.17-.19c-1.09.11-2.23 0-3.36 0zm-28.16 0l.18.29a9.73 9.73 0 0 1 .17 2.37c.13-.23.17-.54.46-.69 0-.22-.29-.28-.25-.49.23-.45 0-1.17.6-1.36a1.39 1.39 0 0 1-1.16-.11m-5.82 0l-.33.12h-3.35a24.61 24.61 0 0 0 3 10.6 39.54 39.54 0 0 0 3.21 4.51l2.4-2.49.29-.12a7.33 7.33 0 0 1-1.12-1.16 1.66 1.66 0 0 1-1-.77c-.12-.13 0-.37-.14-.47l-.14.18c-.42.21-.58-.23-.87-.41s-.19-.92-.7-.79c-.19 0-.25-.23-.37-.35-.47 0-.59-.47-.84-.72 0 .11 0 .25-.15.33-.48.11-.65-.48-1-.72-.09 0-.15.13-.27.11a1.42 1.42 0 0 1-.5-1c-.4-.45-.22-1.16-.14-1.7.07-.14.28-.23.24-.41s.37-.28.63-.29a.62.62 0 0 1 .24.23c.16-.1.51 0 .38-.34A1.58 1.58 0 0 1 15 29a5.27 5.27 0 0 0 .54.75l-.17-.27a19.11 19.11 0 0 1-.58-3.67c0-.07-.16-.11-.06-.18a3.66 3.66 0 0 1 0-.68m4.72 0l-.26.12a27.75 27.75 0 0 1-3.34-.07l.15.21.27 2.22a17 17 0 0 1 .46 2.52c.13-.18 0-.54.37-.58-.13-.27.25-.49 0-.72a2.42 2.42 0 0 1 .72-1.65c.62 0 .66-.83 1.28-.87.31 0 .51.41.64.55a2.29 2.29 0 0 1-.27-1.68m6.2 1.48c.34.63.52 1.34.87 2s.7 1 .92 1.53a8.36 8.36 0 0 1 1-1.18.63.63 0 0 0-.11-.47c-.11-.25 0-.62-.21-.83-.31.11.11.42 0 .6a.19.19 0 0 1-.29-.15.8.8 0 0 1-.58-.54c.23-.15-.06-.21-.12-.33s-.13 0-.23.06-.13 0-.18 0c0-.69-.77-.28-1.06-.64m3.79 1a1.76 1.76 0 0 1-.5.78c.29-.21.49-.58.87-.6zm9.53 1a.88.88 0 0 0 .19.58c.47-.07.26.58.7.52.24-.07 0-.28.09-.43-.07-.36-.42-.4-.66-.62 0-.07 0-.13.06-.19-.18-.1-.26 0-.37.15m6.83 0c-.35 0-.77.18-1.07-.06-.11-.1-.18 0-.17.14s-.24.41-.52.33-.22-.33-.29-.5a1.33 1.33 0 0 1-.06.38 4.19 4.19 0 0 0-.52.81c-.25.28-.66.18-.93.41 0 .58-.69.46-1.05.64 0 .07.06.09.1.15a.46.46 0 0 0 .52-.12c.51.13.4-.51.69-.73.25 0 .5-.25.76-.09a1.72 1.72 0 0 1 .27 1.1c-.29.29-.15.76-.35 1.1 0 .4-.43.58-.37 1a.85.85 0 0 1-.67.21 11.32 11.32 0 0 0-3-.69.21.21 0 0 0-.15.23c.43.23 1 .24 1.42.43s.69.62 1.21.46 1.16.14 1.45-.31c0-.45.34-.77.53-1.16h.15c.24.25.23.63.34.91.34-.36.6-.76.9-1.13a10.78 10.78 0 0 0 1.76-3.73 3.56 3.56 0 0 0-1 .17m-15.21 0a18.72 18.72 0 0 1-2.23 2.4 9.18 9.18 0 0 0 4.35 2c.08-.33 0-.74.12-1s.45-.25.69-.2a.2.2 0 0 0 .15-.31c-.35-.07-.19-.46-.31-.68s.22-.1.17-.25c-.24-.19.12-.41-.08-.61.08-.06.15-.19.27-.19-.76.4-1.58-.09-2.26-.39-.31-.18-.77-.36-.84-.75m7 2.11c0 .1-.17.27 0 .33.29-.3.9-.29.93-.72-.42-.06-.64.17-.93.4m1.36.91c-.37 0-.57.29-.84.52s-.51-.36-.78-.23c0 .06.07.08.12.11a.27.27 0 0 1 0 .35c-.41.37-.6-.18-1-.15v.15c0 .08 0 .22-.14.17-.24-.4-.74-.25-1-.6-.16-.08-.3 0-.41.12s-.47 0-.37.29c-.3.11-.34.43-.56.63-.37-.06-.54.36-.89.35 0 .07 0 .19.11.21a1.23 1.23 0 0 0 .7.09c.36-.58 1-.1 1.47-.31.31.06.1.4.32.52.49-.16.87.42 1.27.06 0-.57.61-.52 1-.67.54-.32 1.16-.76 1.1-1.48zm-11.65.34A18 18 0 0 1 25 34.23c.37 0 .58.43.89.61A15.06 15.06 0 0 0 32 37.6l-.58-.27c-.43-.49-1.05-1.07-1.07-1.76.43-.14.39-.63.53-1a2.42 2.42 0 0 1 1.27-.7c-1.22.51-2.28-.4-3.3-.87a4.71 4.71 0 0 1-1.51-1.28m16.76 3.37l-.1-.18a2 2 0 0 1-.54.69c0 .19-.06.48.17.62.48.16 1.11.47 1.22 1-.19.53-1.21 1-.58 1.59.2.29-.29.4-.21.64l.17-.23a16.84 16.84 0 0 0 2.15-1.8h.08c-.14 0-.32.1-.5 0-.34-.16-.4-.46-.4-.81zm-19.41.46v-.09.15zm.39.52a.53.53 0 0 1-.29-.37zm.08.1c.07.29.46.47.35.83a1 1 0 0 1-1 .33c-.69-.11-1.2.41-1.85.48s-.8-.54-1.34-.48a19 19 0 0 0 11.68 5l.34.23-.15-.41V39l-.29.12a14 14 0 0 1-7.79-2.92m22.3 2.26l-.06-.29a6.49 6.49 0 0 1-1.65 1.59c-.78.78-2.06 1-2.46 2.09-.42.39-.57 1-1.16 1.21-.22.58-.83.54-1.18 1-1 .9-1.67-.58-2.58-.76l-1.85.33a5.79 5.79 0 0 1-1.88 0 28.53 28.53 0 0 1 0 3.79l.23-.14A23.49 23.49 0 0 0 50 40.89zm-26.79 0v.14l-2.49 2.5a24.45 24.45 0 0 0 12.87 6 20.12 20.12 0 0 1 2.4.29l-.18-.29v-3.28l.12-.18-.37.1a19.05 19.05 0 0 1-12.31-5.31m13.78.84l.18.27a24.51 24.51 0 0 1 0 3 18.66 18.66 0 0 1 2.9-.41 1 1 0 0 1-.52-.33c-.57 0-.83-.63-1-1.07s.13-.59.26-.87c-.24-.49-1-.13-1.43-.31-.12-.1-.2-.24-.37-.27M56.67 4.57a10.7 10.7 0 0 1 3.09 5.76L60 11a25.41 25.41 0 0 1-6.54-7l-2-2c1.76.75 3.66 1.2 5.17 2.55M11.79 7.72a38.65 38.65 0 0 1-4 3.68c.72-1.5.75-3.28 1.77-4.66C11 4.2 13.7 3.31 16.11 2.37a29.84 29.84 0 0 0-4.32 5.36"/>
  <path fill="#5091cd" d="M62.95 10.39c.57 2.53-.25 5 .26 7.57-1.38-2.72-4.31-4-6.32-6.17a8.65 8.65 0 0 1-2-4.53c1.16 2.79 4.27 3.4 6.06 5.74a7.55 7.55 0 0 1 1.18 1.91l.06-.06c-1-2.2-1.38-4.67-2.09-7a5.46 5.46 0 0 0-2-2.66 7.05 7.05 0 0 1 4.86 5.18M9.6 5.65c-2.39 1.64-2.23 4.59-3 7-.24.9-.66 1.74-.87 2.67h.06a8.32 8.32 0 0 1 2-2.9c1.7-1.57 4.21-2.55 5-4.86 0 3.22-2.73 5.76-5.3 7.57a10.73 10.73 0 0 0-2.67 3.19c-.06-.81.12-1.63.06-2.5-.28-2.81-.48-6 1.51-8.11A6 6 0 0 1 9.6 5.65"/>
  <path fill="#5091cd" d="M64.45 10.95a11.31 11.31 0 0 1 1 10.83 19.07 19.07 0 0 0-1.22 4.47c-.11-.27-.13-.63-.23-.93-.85-3.25-3.92-5.56-5.19-8.63a16.12 16.12 0 0 1-.93-3.13c1.35 2.5 4.68 3.79 5.59 6.54a12.51 12.51 0 0 1 .58 2.32.09.09 0 0 0 .1-.08 31.63 31.63 0 0 1 .11-8.61 7.11 7.11 0 0 0-1-4.16c.54.31.79.92 1.16 1.39M4.49 10c-1.83 2.79-.31 6.3-.4 9.48l-.24 3.25s0 .12.12.09a11.32 11.32 0 0 0 .21-1.12c.43-2.62 2.7-4.48 4.7-6.29a5.14 5.14 0 0 0 1-1.51 13.37 13.37 0 0 1-1.11 3.83c-1.54 3-4.41 5.49-4.93 8.95-.25-3.31-2.51-5.78-2.28-9.29a11.16 11.16 0 0 1 2.78-7.3s.08-.07.15-.06"/>
  <path fill="#5091cd" d="M66.46 29.74c-1.27 1.8-2.8 3.48-4 5.31a10.23 10.23 0 0 0-.27-4.61 40 40 0 0 1-2.11-9.21v-1.24c.74 3.32 4 5.6 3.79 9.32a8.13 8.13 0 0 1-.38 2.46l.06.06.14-.17a37.13 37.13 0 0 1 1.47-5.44c1.07-2.45 2.4-4.92 1.86-7.88a13.4 13.4 0 0 1-.64 11.4M3.56 28.58a30.53 30.53 0 0 0 .93 3.68s.09 0 .12-.06c-1.24-3.48.54-6.7 2.34-9.41a9.22 9.22 0 0 0 .9-2.4 20.36 20.36 0 0 1-.43 5c-.43 2.08-1.09 4-1.65 6.06a9.47 9.47 0 0 0-.09 4l-.18-.15c-1.32-2.43-3.92-4.32-4.7-7a14.77 14.77 0 0 1-.63-6.87 12.92 12.92 0 0 1 .75-2.63c-.74 3.77 1.8 6.48 2.63 9.75"/>
  <path fill="#5091cd" d="M61.47 35.45A8.67 8.67 0 0 1 60 39.83h.15a55.14 55.14 0 0 1 3.42-4.59c2.1-2 4.24-4.1 4.51-6.92.71 4.7-1.92 8.81-5.82 11.46-1.61 1.05-3.24 2-4.78 3.22v-.15c2.37-3.93 1.21-9.33 2.67-13.65l.54-1.45c-.3 2.69.87 5 .78 7.68M9.65 40.78c.25.89.77 1.69 1.11 2.55-3.6-2.45-8.5-4.78-10.09-9.27a11.16 11.16 0 0 1-.6-5.24c.29 4 4.59 6.11 6.58 9.41a10.94 10.94 0 0 0 1.51 2c-.1-.42-.49-.79-.64-1.22a8.61 8.61 0 0 1-.79-4.72c.19-2 1.05-3.94.72-6.08C9.2 32 8.67 36.69 9.65 40.78"/>
  <path fill="#5091cd" d="M56.11 43.76a12 12 0 0 1-2.46 3c.32 0 .59-.29.87-.47 2.6-2.58 6-3.31 8.77-5.41a8.46 8.46 0 0 0 2.64-3.33c-.53 4.28-4.79 8.3-8.81 9.58-2.08.56-4.3.74-6.31 1.42C54.23 45.59 54 41 56.32 37.6a35.35 35.35 0 0 1 2.17-2.93c-1.39 2.79-.79 6.4-2.38 9.1M13 40.14c1.21 3 1.66 6.33 4.45 8.57-3-1-6.55-.71-9.21-2.57-2.91-1.79-5.5-4.82-6-8.15 2 4.54 7 4.91 10.39 7.68a8.35 8.35 0 0 0 2 1.34 11.58 11.58 0 0 1-2.21-2.4c-2-2.74-1.28-6.58-2.75-9.52A22.11 22.11 0 0 1 13 40.14"/>
  <path fill="#5091cd" d="M48.81 49a18.48 18.48 0 0 1-2.43.93 25.39 25.39 0 0 0 3.15-.47c4-.63 8.55 0 11.33-3.38a10.7 10.7 0 0 1-6 5.18c-4.07 1.53-8.16-.35-12.06-1l-.75-.1a10.94 10.94 0 0 0 5.15-2.32 52.83 52.83 0 0 1 6.55-5.91c-1.8 2.31-2 5.59-5 7.07M20.89 47.88a11.25 11.25 0 0 0 5.36 2.38c-.47.17-1.09.12-1.59.25-3.51.87-7.42 2.28-11.15 1a10.83 10.83 0 0 1-6.14-5.07c3.21 3.66 8.46 2.44 12.75 3.39a6 6 0 0 0 1.8.23c-.51-.33-1.22-.29-1.77-.58-3.36-1.18-3.85-4.82-5.67-7.27a51.62 51.62 0 0 1 6.43 5.65"/>
  <path fill="#5091cd" d="M47.11 52.83a9.31 9.31 0 0 0 8.22-.89A9.76 9.76 0 0 1 51 55c-3.62 1.35-7.4-.06-10.22-2.21-1.17-.79-2.18-1.79-3.66-1.7a5.08 5.08 0 0 0-1.51.14 28 28 0 0 1 7.64 5.3 11.51 11.51 0 0 1-1.39 1.26 27.15 27.15 0 0 0-7.53-6.12 4.91 4.91 0 0 0-1.56.66 23.29 23.29 0 0 0-6.2 5.54l-1.45-1.2a26.48 26.48 0 0 1 7.68-5.47c-2.75-.87-4.55 1.43-6.64 2.61A9.72 9.72 0 0 1 13 52.23a9.45 9.45 0 0 0 8.4.72c3.54-1.53 7.21-3.48 11.47-2.55.66 0 1.32.68 1.94.11a13.61 13.61 0 0 1 9.47 1.19z"/>
  <path fill="#00aeef" d="M75.15 34.6h7.32c6.58 0 10.82 4.54 10.82 11.18v.29c0 6.64-4.25 11.21-10.82 11.21h-7.32zm4.7 4.24V53h2.59c3.57 0 6-2.49 6-7v-.16c0-4.5-2.43-7-6-7zM95.79 34.6h14.61v4.24h-9.95v4.89h8.75v4.25h-8.75v5.06h10.08v4.24H95.79V34.6zM111.31 34.6h5.09l4.79 15.62 4.8-15.62h4.96l-7.65 22.81h-4.34l-7.65-22.81zM132.56 34.6h14.62v4.24h-9.95v4.89h8.75v4.25h-8.75v5.06h10.08v4.24h-14.75V34.6zM149.8 34.6h4.7v18.37h9.17v4.31H149.8V34.6zM163.64 46.16v-.39c0-6.8 4.28-11.57 10.27-11.57s10.24 4.73 10.24 11.5v.39c0 6.77-4.28 11.57-10.27 11.57s-10.24-4.73-10.24-11.51m15.65-.1v-.23c0-4.47-2.27-7.29-5.41-7.29s-5.41 2.79-5.41 7.26V46c0 4.47 2.3 7.29 5.45 7.29s5.38-2.79 5.38-7.26M186.68 34.6h7.55c5.09 0 8.29 2.95 8.29 7.78v.06c0 5.22-3.73 7.84-8.49 7.94h-2.66v6.9h-4.7zM194 46.16a3.46 3.46 0 0 0 3.79-3.63c0-2.37-1.36-3.66-3.86-3.66h-2.56v7.32zM204.4 34.6h4.93l5.05 9.2 4.99-9.2h4.96v22.68h-4.6V42.8l-5.35 9.36h-.1l-5.31-9.3v14.42h-4.57V34.6zM227.66 34.6h14.62v4.24h-9.95v4.89h8.75v4.25h-8.75v5.06h10.08v4.24h-14.75V34.6zM244.9 34.6h4.31l8.69 13.22V34.6h4.6v22.68h-4.02l-8.98-13.71v13.71h-4.6V34.6zM270.18 38.94h-5.71V34.6h16.08v4.34h-5.71v18.34h-4.66V38.94zM73.28 23.34l3.06-3.8a9.55 9.55 0 0 0 6.18 2.81c2 0 3.2-1 3.2-2.45 0-1.24-.71-2-4.26-3.38-4.41-1.71-7.14-3.38-7.14-7.64v-.11c0-4.34 3.34-7.28 8.14-7.28a11.82 11.82 0 0 1 8 3.06l-2.86 3.9a8.7 8.7 0 0 0-5.29-2.31c-1.78 0-2.88.89-2.88 2.17 0 1.42.85 2.1 4.73 3.7 4.34 1.71 6.68 3.55 6.68 7.43v.07c0 4.62-3.52 7.46-8.35 7.46a13.35 13.35 0 0 1-9.2-3.66M93 17V1.81h5.15v15.24c0 3.52 1.67 5.26 4.33 5.26s4.34-1.71 4.34-5.15V1.81h5.12v15.1c0 6.86-3.77 10.16-9.52 10.16S93 23.73 93 17M113.47 23.34l3.06-3.8a9.55 9.55 0 0 0 6.18 2.81c2 0 3.2-1 3.2-2.45 0-1.24-.71-2-4.27-3.38-4.41-1.71-7.14-3.38-7.14-7.64v-.11c0-4.34 3.34-7.28 8.14-7.28a11.83 11.83 0 0 1 8 3.06l-2.84 3.9a8.7 8.7 0 0 0-5.3-2.31c-1.78 0-2.88.89-2.88 2.17 0 1.42.85 2.1 4.73 3.7 4.34 1.71 6.68 3.55 6.68 7.43v.07c0 4.62-3.52 7.46-8.35 7.46a13.35 13.35 0 0 1-9.2-3.66M137.74 6.57h-6.25V1.81h17.63v4.76h-6.26v20.11h-5.12V6.57zM155.76 1.66h4.9l8.92 25h-5.33l-1.85-5.4h-8.57L152 26.68h-5.19zm5.08 15.07l-2.7-8.1-2.74 8.1zM171.54 1.81h5.15v24.88h-5.15zM180.53 1.81h4.72l9.53 14.5V1.81h5.04v24.87h-4.4l-9.85-15.03v15.03h-5.04V1.81zM210.52 1.66h4.9l8.92 25H219l-1.85-5.4h-8.55l-1.81 5.4h-5.19zm5.08 15.07l-2.7-8.1-2.74 8.1zM226.12 1.81h9.24c2.77 0 5.08.75 6.5 2.17a5.76 5.76 0 0 1 1.67 4.23v.11a5.82 5.82 0 0 1-3.38 5.44c2.67 1 4.44 2.67 4.44 5.93v.18c0 4.48-3.59 6.82-9 6.82h-9.49zm12.33 7.32c0-1.81-1.28-2.77-3.48-2.77h-3.84V12h3.59c2.27 0 3.73-.92 3.73-2.81zm-2.81 7.18h-4.51v5.83h4.62c2.31 0 3.77-1 3.77-2.92 0-1.78-1.31-2.88-3.87-2.88M247.01 1.81h5.16v20.15h10.05v4.72h-15.21V1.81zM264.36 1.81h16.02v4.65h-10.91v5.37h9.6v4.65h-9.6v5.55h11.06v4.65h-16.17V1.81z"/>
  <path fill="#5091cd" d="M316.36 28.67h25.13C341.06 48.87 329.9 59 314.91 59c-16.15 0-26.51-13.6-26.51-28.23s10.36-28.25 26.51-28.25c17.89 0 22.82 11.15 24.85 16.95l-11.37.72c-2-4.78-5.87-8-13.47-8-8.55 0-15.21 7-15.21 18.54 0 9.78 6.16 18.54 15.93 18.54 8.76 0 12.82-6.23 13.76-11.37h-13zM448.88 3.68h10.83v44.21h20.88V58h-31.71V3.68zM511 18c0-3.76-3.61-6.07-7.95-6.07-5.42 0-8.67 2.38-8.67 6s3.61 5.56 6.28 6.43l10 3.18C517.86 29.83 523 34 523 42.4c0 6.6-4.78 16.6-19.8 16.6-18.85 0-20.59-12.21-20.59-17l10.84-.22c0 5.78 4.55 8 9.82 8 3.68 0 8.88-1.8 8.88-6 0-2.89-1.23-4.4-6.57-6.36l-11.85-4.26c-6-2.17-10.18-7.44-10.18-13.58 0-6.93 4.77-16.9 18.85-16.9 16.76 0 19.43 11.12 19.43 15.1z"/>
  <path fill="#5fbb46" d="M358.81 24.09a15.2 15.2 0 0 1 2.4-3.09l-7.88-8.64a27 27 0 0 0-5 6.51z"/>
  <path fill="#d19f2a" d="M378.13 18a15.06 15.06 0 0 1 3.3 2.07l7.9-8.63a26.88 26.88 0 0 0-7-4.37z"/>
  <path fill="#c22033" d="M396.22 20.58l-10.47 5.22a15 15 0 0 1 1 3.7l11.65-1.1a26.51 26.51 0 0 0-2.23-7.82"/>
  <path fill="#2d9a47" d="M385 24.29l10.47-5.22a26.9 26.9 0 0 0-4.89-6.5l-7.9 8.62a15.22 15.22 0 0 1 2.32 3.1"/>
  <path fill="#48773c" d="M356.73 31.73v-.7L345.1 30c0 .58-.06 1.16-.06 1.75a26.83 26.83 0 0 0 .79 6.48L357.08 35a15.15 15.15 0 0 1-.35-3.25"/>
  <path fill="#fdb714" d="M383.53 41.31a15.29 15.29 0 0 1-2.84 2.69l6.15 10a27 27 0 0 0 6-5.59z"/>
  <path fill="#ef412a" d="M387 31.73a14.94 14.94 0 0 1-.35 3.22l11.25 3.23a26.74 26.74 0 0 0 .79-6.45c0-.55 0-1.1-.05-1.65l-11.65 1.1v.54"/>
  <path fill="#f99d25" d="M360.35 41.53L351 48.61a27 27 0 0 0 6.08 5.51l6.15-9.95a15.26 15.26 0 0 1-2.92-2.64"/>
  <path fill="#007dbb" d="M356.92 29.35a14.88 14.88 0 0 1 1.08-3.76l-10.47-5.21a26.65 26.65 0 0 0-2.31 7.92z"/>
  <path fill="#8f1838" d="M385.41 54.84l-6.14-9.95a15 15 0 0 1-3.59 1.46l2.17 11.51a26.61 26.61 0 0 0 7.56-3"/>
  <path fill="#00add8" d="M386.17 36.58a15.15 15.15 0 0 1-1.64 3.37l9.34 7a26.7 26.7 0 0 0 3.53-7.18z"/>
  <path fill="#f36e24" d="M374 46.69a15 15 0 0 1-3.94.06l-2.17 11.51a27 27 0 0 0 8.27-.07z"/>
  <path fill="#ea1c2d" d="M372.81 16.65a15 15 0 0 1 3.74.72l4.2-10.92a26.6 26.6 0 0 0-7.94-1.5z"/>
  <path fill="#e01a83" d="M368.42 46.46a15 15 0 0 1-3.71-1.4l-6.15 10a26.67 26.67 0 0 0 7.7 2.94z"/>
  <path fill="#1a3668" d="M367.3 17.32a15.07 15.07 0 0 1 3.82-.68V4.94a26.74 26.74 0 0 0-8.05 1.47z"/>
  <path fill="#cd8b2a" d="M359.32 40.19a15 15 0 0 1-1.78-3.57l-11.25 3.23a26.72 26.72 0 0 0 3.71 7.42z"/>
  <path fill="#00558a" d="M362.48 19.88a15.17 15.17 0 0 1 3.24-2L361.49 7a26.82 26.82 0 0 0-6.9 4.22z"/>
  <path fill="#5091cd" d="M431.11 46.49H411L407.39 58h-11.86l20.06-55.07h11.57L446.93 58h-12.08zm-10-30.31H421l-7 21.38h14.13z"/>
</svg>
